<?xml version="1.0" encoding="UTF-8"?>
<svg id="Layer_1" xmlns="http://www.w3.org/2000/svg" version="1.1" viewBox="0 0 1100 788.4">
  <!-- Generator: Adobe Illustrator 30.1.0, SVG Export Plug-In . SVG Version: 2.1.1 Build 136)  -->
  <defs>
    <style>
      .st0 {
        font-size: 22px;
      }

      .st0, .st1, .st2, .st3, .st4, .st5, .st6 {
        isolation: isolate;
      }

      .st0, .st3, .st4, .st5 {
        font-family: CourierNewPS-BoldMT, 'Courier New';
        font-weight: 700;
      }

      .st0, .st4, .st5, .st7 {
        fill: #1a1a2e;
      }

      .st1 {
        fill: #555;
        font-family: CourierNewPS-ItalicMT, 'Courier New';
        font-size: 14px;
        font-style: italic;
      }

      .st8, .st9, .st10, .st11, .st12 {
        fill: none;
      }

      .st8, .st10 {
        stroke: #555;
      }

      .st9 {
        stroke-linecap: square;
        stroke-width: 4px;
      }

      .st9, .st11, .st12 {
        stroke: #1a1a2e;
      }

      .st10, .st12 {
        stroke-width: 1.5px;
      }

      .st3 {
        fill: #333;
      }

      .st3, .st4, .st6 {
        font-size: 11px;
      }

      .st5 {
        font-size: 26px;
      }

      .st13 {
        fill: #fefefe;
      }

      .st6 {
        fill: #666;
        font-family: CourierNewPSMT, 'Courier New';
      }
    </style>
  </defs>
  <rect class="st13" y="-1" width="1100" height="788.4"/>
  <g class="st2">
    <text class="st0" transform="translate(477.4 32)"><tspan x="0" y="0">Dining Hall</tspan></text>
  </g>
  <g class="st2">
    <text class="st6" transform="translate(925.6 780.4)"><tspan x="0" y="0">Door icons not to scale.</tspan></text>
  </g>
  <line class="st9" x1="100" y1="160" x2="758.9" y2="160"/>
  <line class="st9" x1="806.3" y1="160" x2="835.3" y2="160"/>
  <line class="st9" x1="100" y1="160" x2="100" y2="688.4"/>
  <line class="st9" x1="100" y1="688.4" x2="1000" y2="688.4"/>
  <line class="st9" x1="835.3" y1="160" x2="835.3" y2="186.4"/>
  <line class="st9" x1="835.3" y1="233.8" x2="835.3" y2="518.4"/>
  <line class="st9" x1="835.3" y1="518.4" x2="1000" y2="518.4"/>
  <line class="st9" x1="1000" y1="518.4" x2="1000" y2="556"/>
  <line class="st9" x1="1000" y1="650.8" x2="1000" y2="688.4"/>
  <line class="st12" x1="758.9" y1="160" x2="806.3" y2="160"/>
  <path class="st12" d="M806.3,160c0-26.2-21.2-47.4-47.4-47.4h0"/>
  <line class="st12" x1="835.3" y1="186.4" x2="835.3" y2="233.8"/>
  <path class="st12" d="M835.3,233.8c26.2,0,47.4-21.2,47.4-47.4"/>
  <line class="st12" x1="1000" y1="603.4" x2="1000" y2="556"/>
  <path class="st12" d="M1000.3,557.2c26.2,0,47.4,21.2,47.4,47.4"/>
  <line class="st12" x1="1000" y1="603.4" x2="1000" y2="650.8"/>
  <path class="st12" d="M1000.3,652c26.2,0,47.4-21.2,47.4-47.4"/>
  <g class="st2">
    <text class="st5" transform="translate(420.8 417)"><tspan x="0" y="0">Dining</tspan></text>
  </g>
  <g class="st2">
    <text class="st1" transform="translate(887.6 339.2)"><tspan x="0" y="0">Kitchen</tspan></text>
  </g>
  <line class="st8" x1="100" y1="160" x2="100" y2="117"/>
  <line class="st8" x1="835.3" y1="160" x2="835.3" y2="117"/>
  <line class="st8" x1="100" y1="125" x2="835.3" y2="125"/>
  <line class="st10" x1="100" y1="119" x2="100" y2="131"/>
  <line class="st10" x1="835.3" y1="119" x2="835.3" y2="131"/>
  <line class="st8" x1="100" y1="160" x2="57" y2="160"/>
  <line class="st8" x1="100" y1="688.4" x2="57" y2="688.4"/>
  <line class="st8" x1="65" y1="160" x2="65" y2="688.4"/>
  <line class="st10" x1="59" y1="160" x2="71" y2="160"/>
  <line class="st10" x1="59" y1="688.4" x2="71" y2="688.4"/>
  <line class="st8" x1="835.3" y1="160" x2="878.3" y2="160"/>
  <line class="st8" x1="835.3" y1="518.4" x2="878.3" y2="518.4"/>
  <line class="st8" x1="870.3" y1="160" x2="870.3" y2="518.4"/>
  <line class="st10" x1="864.3" y1="160" x2="876.3" y2="160"/>
  <line class="st10" x1="864.3" y1="518.4" x2="876.3" y2="518.4"/>
  <line class="st8" x1="835.3" y1="518.4" x2="835.3" y2="475.4"/>
  <line class="st8" x1="1000" y1="518.4" x2="1000" y2="475.4"/>
  <line class="st8" x1="835.3" y1="483.4" x2="1000" y2="483.4"/>
  <line class="st10" x1="835.3" y1="477.4" x2="835.3" y2="489.4"/>
  <line class="st10" x1="1000" y1="477.4" x2="1000" y2="489.4"/>
  <line class="st8" x1="1000" y1="518.4" x2="1043" y2="518.4"/>
  <line class="st8" x1="1000" y1="688.4" x2="1043" y2="688.4"/>
  <line class="st8" x1="1035" y1="518.4" x2="1035" y2="688.4"/>
  <line class="st10" x1="1029" y1="518.4" x2="1041" y2="518.4"/>
  <line class="st10" x1="1029" y1="688.4" x2="1041" y2="688.4"/>
  <line class="st8" x1="100" y1="688.4" x2="100" y2="731.4"/>
  <line class="st8" x1="1000" y1="688.4" x2="1000" y2="731.4"/>
  <line class="st8" x1="100" y1="723.4" x2="1000" y2="723.4"/>
  <line class="st10" x1="100" y1="717.4" x2="100" y2="729.4"/>
  <line class="st10" x1="1000" y1="717.4" x2="1000" y2="729.4"/>
  <rect class="st13" x="437.6" y="110" width="60" height="14"/>
  <g class="st2">
    <text class="st3" transform="translate(447.8 120)"><tspan x="0" y="0">46&apos;-6&quot;</tspan></text>
  </g>
  <rect class="st13" x="5" y="418.2" width="54" height="14"/>
  <g class="st2">
    <text class="st3" transform="translate(37.2 428.2)"><tspan x="0" y="0">33&apos;-5&quot;</tspan></text>
  </g>
  <rect class="st13" x="876.3" y="333.2" width="54" height="14"/>
  <g class="st2">
    <text class="st3" transform="translate(858.5 343.2)"><tspan x="0" y="0">22&apos;-8&quot;</tspan></text>
  </g>
  <rect class="st13" x="887.6" y="468.4" width="60" height="14"/>
  <g class="st2">
    <text class="st3" transform="translate(897.8 478.4)"><tspan x="0" y="0">10&apos;-5&quot;</tspan></text>
  </g>
  <rect class="st13" x="1041" y="597.4" width="54" height="14"/>
  <g class="st2">
    <text class="st3" transform="translate(1035 604.4)"><tspan x="0" y="0">10&apos;-9&quot;</tspan></text>
  </g>
  <rect class="st13" x="520" y="726.4" width="60" height="14"/>
  <g class="st2">
    <text class="st3" transform="translate(526.9 736.4)"><tspan x="0" y="0">56&apos;-11&quot;</tspan></text>
  </g>
  <g>
    <line class="st11" x1="1050" y1="23" x2="1050" y2="67"/>
    <line class="st11" x1="1028" y1="45" x2="1072" y2="45"/>
    <polygon class="st7" points="1050 19 1046 27 1054 27 1050 19"/>
    <polygon class="st7" points="1050 71 1046 63 1054 63 1050 71"/>
    <polygon class="st7" points="1024 45 1032 41 1032 49 1024 45"/>
    <polygon class="st7" points="1076 45 1068 41 1068 49 1076 45"/>
    <g class="st2">
      <text class="st4" transform="translate(1046.7 15)"><tspan x="0" y="0">S</tspan></text>
    </g>
    <g class="st2">
      <text class="st4" transform="translate(1046.7 81)"><tspan x="0" y="0">N</tspan></text>
    </g>
    <g class="st2">
      <text class="st4" transform="translate(1014.7 49)"><tspan x="0" y="0">E</tspan></text>
    </g>
    <g class="st2">
      <text class="st4" transform="translate(1078.7 49)"><tspan x="0" y="0">W</tspan></text>
    </g>
  </g>
</svg>