<?xml version="1.0" encoding="UTF-8"?>
<svg id="Layer_1" xmlns="http://www.w3.org/2000/svg" version="1.1" viewBox="0 0 936 960">
  <!-- Generator: Adobe Illustrator 30.1.0, SVG Export Plug-In . SVG Version: 2.1.1 Build 136)  -->
  <defs>
    <style>
      .st0 {
        font-size: 22px;
      }

      .st0, .st1, .st2, .st3, .st4, .st5 {
        isolation: isolate;
      }

      .st0, .st2, .st3, .st4 {
        font-family: CourierNewPS-BoldMT, 'Courier New';
        font-weight: 700;
      }

      .st0, .st3, .st4, .st6 {
        fill: #1a1a2e;
      }

      .st7, .st8, .st9, .st10, .st11 {
        fill: none;
      }

      .st7, .st9 {
        stroke: #555;
      }

      .st8 {
        stroke-linecap: square;
        stroke-width: 4px;
      }

      .st8, .st10, .st11 {
        stroke: #1a1a2e;
      }

      .st9, .st11 {
        stroke-width: 1.5px;
      }

      .st2 {
        fill: #333;
      }

      .st2, .st3, .st5 {
        font-size: 11px;
      }

      .st4 {
        font-size: 26px;
      }

      .st12 {
        fill: #fefefe;
      }

      .st5 {
        fill: #666;
        font-family: CourierNewPSMT, 'Courier New';
      }
    </style>
  </defs>
  <rect class="st12" width="936" height="960"/>
  <g class="st1">
    <text class="st0" transform="translate(402 32)"><tspan x="0" y="0">Grand Hall</tspan></text>
  </g>
  <g class="st1">
    <text class="st5" transform="translate(761.6 952)"><tspan x="0" y="0">Door icons not to scale.</tspan></text>
  </g>
  <rect class="st8" x="100" y="160" width="736" height="700"/>
  <line class="st8" x1="681.9" y1="160" x2="681.9" y2="860"/>
  <line class="st11" x1="100" y1="393.3" x2="100" y2="445.2"/>
  <path class="st11" d="M100,460.6c28.7,0,51.9-23.3,51.9-51.9"/>
  <line class="st11" x1="100" y1="626.7" x2="100" y2="678.5"/>
  <path class="st11" d="M100,694.1c28.7,0,51.9-23.3,51.9-51.9"/>
  <g class="st1">
    <text class="st4" transform="translate(312.9 510)"><tspan x="0" y="0">Grand Hall</tspan></text>
  </g>
  <g class="st1">
    <text class="st4" transform="translate(694.4 511)"><tspan x="0" y="0">Stage</tspan></text>
  </g>
  <line class="st7" x1="100" y1="160" x2="100" y2="117"/>
  <line class="st7" x1="681.9" y1="160" x2="681.9" y2="117"/>
  <line class="st7" x1="100" y1="125" x2="681.9" y2="125"/>
  <line class="st9" x1="100" y1="119" x2="100" y2="131"/>
  <line class="st9" x1="681.9" y1="119" x2="681.9" y2="131"/>
  <line class="st7" x1="681.9" y1="160" x2="681.9" y2="117"/>
  <line class="st7" x1="836" y1="160" x2="836" y2="117"/>
  <line class="st7" x1="681.9" y1="125" x2="836" y2="125"/>
  <line class="st9" x1="681.9" y1="119" x2="681.9" y2="131"/>
  <line class="st9" x1="836" y1="119" x2="836" y2="131"/>
  <line class="st7" x1="100" y1="160" x2="57" y2="160"/>
  <line class="st7" x1="100" y1="860" x2="57" y2="860"/>
  <line class="st7" x1="65" y1="160" x2="65" y2="860"/>
  <line class="st9" x1="59" y1="160" x2="71" y2="160"/>
  <line class="st9" x1="59" y1="860" x2="71" y2="860"/>
  <line class="st7" x1="100" y1="860" x2="100" y2="903"/>
  <line class="st7" x1="836" y1="860" x2="836" y2="903"/>
  <line class="st7" x1="100" y1="895" x2="836" y2="895"/>
  <line class="st9" x1="100" y1="889" x2="100" y2="901"/>
  <line class="st9" x1="836" y1="889" x2="836" y2="901"/>
  <rect class="st12" x="360.9" y="110" width="60" height="14"/>
  <g class="st1">
    <text class="st2" transform="translate(371.1 120)"><tspan x="0" y="0">33&apos;-8&quot;</tspan></text>
  </g>
  <rect class="st12" x="729" y="110" width="60" height="14"/>
  <g class="st1">
    <text class="st2" transform="translate(739.1 120)"><tspan x="0" y="0">8&apos;-11&quot;</tspan></text>
  </g>
  <rect class="st12" x="5" y="504" width="54" height="14"/>
  <g class="st1">
    <text class="st2" transform="translate(37.2 514)"><tspan x="0" y="0">40&apos;-6&quot;</tspan></text>
  </g>
  <rect class="st12" x="438" y="898" width="60" height="14"/>
  <g class="st1">
    <text class="st2" transform="translate(448.2 908)"><tspan x="0" y="0">42&apos;-7&quot;</tspan></text>
  </g>
  <g>
    <line class="st10" x1="886" y1="23" x2="886" y2="67"/>
    <line class="st10" x1="864" y1="45" x2="908" y2="45"/>
    <polygon class="st6" points="886 19 882 27 890 27 886 19"/>
    <polygon class="st6" points="886 71 882 63 890 63 886 71"/>
    <polygon class="st6" points="860 45 868 41 868 49 860 45"/>
    <polygon class="st6" points="912 45 904 41 904 49 912 45"/>
    <g class="st1">
      <text class="st3" transform="translate(882.7 15)"><tspan x="0" y="0">S</tspan></text>
    </g>
    <g class="st1">
      <text class="st3" transform="translate(882.7 81)"><tspan x="0" y="0">N</tspan></text>
    </g>
    <g class="st1">
      <text class="st3" transform="translate(850.7 49)"><tspan x="0" y="0">E</tspan></text>
    </g>
    <g class="st1">
      <text class="st3" transform="translate(914.7 49)"><tspan x="0" y="0">W</tspan></text>
    </g>
  </g>
  <path class="st11" d="M836.3,456.6c26.2,0,47.4,21.2,47.4,47.4"/>
  <path class="st11" d="M836.3,551.4c26.2,0,47.4-21.2,47.4-47.4"/>
</svg>