<?xml version="1.0" encoding="UTF-8"?>
<svg id="Layer_1" xmlns="http://www.w3.org/2000/svg" version="1.1" viewBox="0 0 1083.2 980">
  <!-- Generator: Adobe Illustrator 30.1.0, SVG Export Plug-In . SVG Version: 2.1.1 Build 136)  -->
  <defs>
    <style>
      .st0 {
        font-family: CourierNewPS-BoldMT, 'Courier New';
        font-size: 22px;
        font-weight: 700;
      }

      .st0, .st1 {
        isolation: isolate;
      }

      .st0, .st2 {
        fill: #1a1a2e;
      }

      .st3, .st4, .st5, .st6, .st7 {
        fill: none;
      }

      .st3, .st5 {
        stroke: #555;
      }

      .st4 {
        stroke-linecap: square;
        stroke-width: 4px;
      }

      .st4, .st6, .st7 {
        stroke: #1a1a2e;
      }

      .st5, .st7 {
        stroke-width: 1.5px;
      }

      .st8 {
        fill: #666;
      }

      .st9 {
        fill: #333;
      }

      .st10 {
        fill: #fefefe;
      }
    </style>
  </defs>
  <text class="st0" transform="translate(469 32)"><tspan x="0" y="0">Parking Lot</tspan></text>
  <g class="st1">
    <path class="st8" d="M910.3,971.5v-5.4h-.4c-.1,0-.2,0-.2,0s0,0,0-.2,0-.1,0-.2.1,0,.2,0h2.4c.4,0,.7,0,1,.2.3.2.6.3.7.5.3.3.5.7.6,1.1.1.3.2.6.2,1v.6c0,.5-.1.9-.3,1.3-.2.4-.5.8-1,1.1-.4.2-.8.4-1.2.4h-2.4c-.1,0-.2,0-.2,0s0,0,0-.2,0-.1,0-.2.1,0,.2,0h.4ZM910.8,971.5h1.6c.4,0,.7-.1,1.1-.4.3-.2.6-.5.7-.9s.2-.7.2-1v-.8c0-.3,0-.5-.1-.7-.1-.3-.3-.6-.5-.9-.1-.2-.3-.3-.6-.4s-.5-.2-.8-.2h-1.6v5.4Z"/>
    <path class="st8" d="M921.2,969.7c0,.7-.2,1.3-.7,1.8-.5.5-1.1.7-1.8.7s-1.3-.2-1.8-.7c-.5-.5-.7-1.1-.7-1.8s.2-1.3.7-1.8c.5-.5,1.1-.7,1.8-.7s1.3.2,1.8.7.7,1.1.7,1.8ZM920.8,969.7c0-.6-.2-1-.6-1.4-.4-.4-.9-.6-1.5-.6s-1.1.2-1.5.6c-.4.4-.6.9-.6,1.4s.2,1,.6,1.4c.4.4.9.6,1.5.6s1.1-.2,1.5-.6c.4-.4.6-.9.6-1.4Z"/>
    <path class="st8" d="M927.8,969.7c0,.7-.2,1.3-.7,1.8-.5.5-1.1.7-1.8.7s-1.3-.2-1.8-.7c-.5-.5-.7-1.1-.7-1.8s.2-1.3.7-1.8c.5-.5,1.1-.7,1.8-.7s1.3.2,1.8.7c.5.5.7,1.1.7,1.8ZM927.4,969.7c0-.6-.2-1-.6-1.4-.4-.4-.9-.6-1.5-.6s-1.1.2-1.5.6-.6.9-.6,1.4.2,1,.6,1.4c.4.4.9.6,1.5.6s1.1-.2,1.5-.6c.4-.4.6-.9.6-1.4Z"/>
    <path class="st8" d="M931.4,967.3v1.1c.6-.5,1-.9,1.3-1,.3-.2.6-.2.8-.2s.5,0,.7.3c.2.2.3.3.3.4s0,.1,0,.2c0,0-.1,0-.2,0s0,0,0,0c0,0,0,0-.1-.1-.1-.1-.2-.2-.3-.3s-.2,0-.3,0c-.2,0-.4,0-.7.2-.3.2-.8.5-1.4,1.2v2.5h2c.1,0,.2,0,.2,0s0,0,0,.2,0,.1,0,.2-.1,0-.2,0h-3.5c-.1,0-.2,0-.2,0s0,0,0-.2,0-.1,0-.2.1,0,.2,0h1.1v-3.8h-.8c-.1,0-.2,0-.2,0s0,0,0-.2,0-.1,0-.2.1,0,.2,0h1.3Z"/>
    <path class="st8" d="M945.4,967.3v4.2h1.8c.1,0,.2,0,.2,0,0,0,0,0,0,.2s0,.1,0,.2c0,0-.1,0-.2,0h-4c-.1,0-.2,0-.2,0s0,0,0-.2,0-.1,0-.2.1,0,.2,0h1.8v-3.7h-1.3c-.1,0-.2,0-.2,0,0,0,0,0,0-.2s0-.1,0-.2.1,0,.2,0h1.8ZM945.3,965v1.2h-.7v-1.2h.7Z"/>
    <path class="st8" d="M953.6,967.8v-.2c0-.1,0-.2,0-.2,0,0,0,0,.2,0s.1,0,.2,0c0,0,0,.1,0,.2v1c0,.1,0,.2,0,.2,0,0,0,0-.2,0s-.1,0-.2,0c0,0,0-.1,0-.2,0-.3-.2-.5-.5-.7-.3-.2-.7-.3-1.3-.3s-1.2.2-1.5.6c-.3.4-.5.9-.5,1.4s.2,1.1.6,1.4c.4.4.9.6,1.5.6s.7,0,1.1-.2c.4-.1.7-.3,1-.6,0,0,.1-.1.2-.1s.1,0,.2,0c0,0,0,0,0,.2,0,.2-.2.3-.5.6-.6.4-1.2.6-1.9.6s-1.3-.2-1.8-.7-.7-1.1-.7-1.8.2-1.3.7-1.8,1.1-.7,1.8-.7,1.3.2,1.7.6Z"/>
    <path class="st8" d="M960.8,969.7c0,.7-.2,1.3-.7,1.8-.5.5-1.1.7-1.8.7s-1.3-.2-1.8-.7c-.5-.5-.7-1.1-.7-1.8s.2-1.3.7-1.8c.5-.5,1.1-.7,1.8-.7s1.3.2,1.8.7c.5.5.7,1.1.7,1.8ZM960.4,969.7c0-.6-.2-1-.6-1.4-.4-.4-.9-.6-1.5-.6s-1.1.2-1.5.6c-.4.4-.6.9-.6,1.4s.2,1,.6,1.4c.4.4.9.6,1.5.6s1.1-.2,1.5-.6c.4-.4.6-.9.6-1.4Z"/>
    <path class="st8" d="M963.5,967.3v.7c.3-.3.6-.5.9-.7.3-.1.5-.2.9-.2s.7,0,.9.2c.2.1.4.3.5.5.2.2.2.5.2.8v2.8h.4c.1,0,.2,0,.2,0,0,0,0,0,0,.2s0,.1,0,.2c0,0-.1,0-.2,0h-1.2c-.1,0-.2,0-.2,0,0,0,0,0,0-.2s0-.1,0-.2c0,0,.1,0,.2,0h.4v-2.8c0-.3-.1-.6-.3-.8-.2-.2-.5-.3-.9-.3s-.6,0-.8.2-.5.4-.9.9v2.8h.5c.1,0,.2,0,.2,0s0,0,0,.2,0,.1,0,.2-.1,0-.2,0h-1.5c-.1,0-.2,0-.2,0s0,0,0-.2,0-.1,0-.2.1,0,.2,0h.5v-3.7h-.4c-.1,0-.2,0-.2,0s0,0,0-.2,0-.1,0-.2.1,0,.2,0h.8Z"/>
    <path class="st8" d="M973,967.6c0-.1,0-.2,0-.2,0,0,0,0,.2,0s.1,0,.2,0c0,0,0,.1,0,.2v.8c0,.1,0,.2,0,.2s0,0-.2,0-.1,0-.2,0,0-.1,0-.2c0-.2-.1-.4-.3-.5-.3-.2-.7-.3-1.2-.3s-.9.1-1.2.3c-.2.2-.3.3-.3.5s.1.4.4.5c.2.1.5.2,1,.2.6,0,1.1.1,1.3.2.3.1.6.3.8.5.2.2.3.5.3.7,0,.4-.2.7-.6,1-.4.3-.9.4-1.6.4s-1.3-.2-1.8-.5c0,.1,0,.2,0,.2,0,0,0,0,0,0,0,0,0,0-.1,0s-.1,0-.2,0c0,0,0-.1,0-.2v-.9c0-.1,0-.2,0-.2s0,0,.2,0,.1,0,.2,0c0,0,0,.1,0,.2,0,.2,0,.3.1.4.1.2.3.3.6.4.3.1.6.2,1,.2.6,0,1-.1,1.3-.3s.4-.4.4-.7-.1-.5-.4-.7c-.3-.2-.7-.3-1.3-.3-.6,0-1-.1-1.2-.2-.2,0-.4-.2-.6-.4-.1-.2-.2-.4-.2-.6,0-.4.2-.7.6-.9s.8-.3,1.4-.3,1.1.2,1.5.5Z"/>
    <path class="st8" d="M983.3,967.3v.7c.3-.3.6-.5.9-.7s.5-.2.9-.2.7,0,.9.2c.2.1.4.3.5.5s.2.5.2.8v2.8h.4c.1,0,.2,0,.2,0s0,0,0,.2,0,.1,0,.2-.1,0-.2,0h-1.2c-.1,0-.2,0-.2,0s0,0,0-.2,0-.1,0-.2.1,0,.2,0h.4v-2.8c0-.3-.1-.6-.3-.8-.2-.2-.5-.3-.9-.3s-.6,0-.8.2c-.2.1-.5.4-.9.9v2.8h.5c.1,0,.2,0,.2,0,0,0,0,0,0,.2s0,.1,0,.2c0,0-.1,0-.2,0h-1.5c-.1,0-.2,0-.2,0,0,0,0,0,0-.2s0-.1,0-.2c0,0,.1,0,.2,0h.5v-3.7h-.4c-.1,0-.2,0-.2,0,0,0,0,0,0-.2s0-.1,0-.2c0,0,.1,0,.2,0h.8Z"/>
    <path class="st8" d="M993.9,969.7c0,.7-.2,1.3-.7,1.8-.5.5-1.1.7-1.8.7s-1.3-.2-1.8-.7c-.5-.5-.7-1.1-.7-1.8s.2-1.3.7-1.8c.5-.5,1.1-.7,1.8-.7s1.3.2,1.8.7.7,1.1.7,1.8ZM993.4,969.7c0-.6-.2-1-.6-1.4s-.9-.6-1.5-.6-1.1.2-1.5.6c-.4.4-.6.9-.6,1.4s.2,1,.6,1.4c.4.4.9.6,1.5.6s1.1-.2,1.5-.6.6-.9.6-1.4Z"/>
    <path class="st8" d="M997,967.3h2.4c.1,0,.2,0,.2,0,0,0,0,0,0,.2s0,.1,0,.2c0,0-.1,0-.2,0h-2.4v3c0,.3.1.5.3.7.2.2.5.3.9.3s.6,0,1-.1c.4,0,.6-.2.8-.3,0,0,.1,0,.2,0s.1,0,.2,0,0,0,0,.2,0,.1,0,.2c-.1.1-.4.2-.8.4-.4.1-.9.2-1.3.2s-.9-.1-1.3-.4-.5-.6-.5-1v-3h-.8c-.1,0-.2,0-.2,0,0,0,0,0,0-.2s0-.1,0-.2c0,0,.1,0,.2,0h.8v-1.3c0-.1,0-.2,0-.2,0,0,0,0,.2,0s.1,0,.2,0c0,0,0,.1,0,.2v1.3Z"/>
    <path class="st8" d="M1010.2,967.3h2.4c.1,0,.2,0,.2,0,0,0,0,0,0,.2s0,.1,0,.2c0,0-.1,0-.2,0h-2.4v3c0,.3.1.5.3.7.2.2.5.3.9.3s.6,0,1-.1c.4,0,.6-.2.8-.3,0,0,.1,0,.2,0s.1,0,.2,0,0,0,0,.2,0,.1,0,.2c-.1.1-.4.2-.8.4s-.9.2-1.3.2-.9-.1-1.3-.4-.5-.6-.5-1v-3h-.8c-.1,0-.2,0-.2,0,0,0,0,0,0-.2s0-.1,0-.2c0,0,.1,0,.2,0h.8v-1.3c0-.1,0-.2,0-.2,0,0,0,0,.2,0s.1,0,.2,0c0,0,0,.1,0,.2v1.3Z"/>
    <path class="st8" d="M1020.3,969.7c0,.7-.2,1.3-.7,1.8-.5.5-1.1.7-1.8.7s-1.3-.2-1.8-.7c-.5-.5-.7-1.1-.7-1.8s.2-1.3.7-1.8c.5-.5,1.1-.7,1.8-.7s1.3.2,1.8.7.7,1.1.7,1.8ZM1019.8,969.7c0-.6-.2-1-.6-1.4s-.9-.6-1.5-.6-1.1.2-1.5.6c-.4.4-.6.9-.6,1.4s.2,1,.6,1.4c.4.4.9.6,1.5.6s1.1-.2,1.5-.6.6-.9.6-1.4Z"/>
    <path class="st8" d="M1032.4,967.6c0-.1,0-.2,0-.2,0,0,0,0,.2,0s.1,0,.2,0c0,0,0,.1,0,.2v.8c0,.1,0,.2,0,.2s0,0-.2,0-.1,0-.2,0,0-.1,0-.2c0-.2-.1-.4-.3-.5-.3-.2-.7-.3-1.2-.3s-.9.1-1.2.3c-.2.2-.3.3-.3.5s.1.4.4.5c.2.1.5.2,1,.2.6,0,1.1.1,1.3.2.3.1.6.3.8.5.2.2.3.5.3.7,0,.4-.2.7-.6,1s-.9.4-1.6.4-1.3-.2-1.8-.5c0,.1,0,.2,0,.2s0,0,0,0c0,0,0,0-.1,0s-.1,0-.2,0c0,0,0-.1,0-.2v-.9c0-.1,0-.2,0-.2,0,0,0,0,.2,0s.1,0,.2,0c0,0,0,.1,0,.2,0,.2,0,.3.1.4.1.2.3.3.6.4.3.1.6.2,1,.2.6,0,1-.1,1.3-.3.3-.2.4-.4.4-.7s-.1-.5-.4-.7c-.3-.2-.7-.3-1.3-.3-.6,0-1-.1-1.2-.2-.2,0-.4-.2-.6-.4-.1-.2-.2-.4-.2-.6,0-.4.2-.7.6-.9.4-.2.8-.3,1.4-.3s1.1.2,1.5.5Z"/>
    <path class="st8" d="M1039.4,967.8v-.2c0-.1,0-.2,0-.2,0,0,0,0,.2,0s.1,0,.2,0c0,0,0,.1,0,.2v1c0,.1,0,.2,0,.2,0,0,0,0-.2,0s-.1,0-.2,0c0,0,0-.1,0-.2,0-.3-.2-.5-.5-.7-.3-.2-.7-.3-1.3-.3s-1.2.2-1.5.6-.5.9-.5,1.4.2,1.1.6,1.4c.4.4.9.6,1.5.6s.7,0,1.1-.2c.4-.1.7-.3,1-.6,0,0,.1-.1.2-.1s.1,0,.2,0,0,0,0,.2c0,.2-.2.3-.5.6-.6.4-1.2.6-1.9.6s-1.3-.2-1.8-.7c-.5-.5-.7-1.1-.7-1.8s.2-1.3.7-1.8c.5-.5,1.1-.7,1.8-.7s1.3.2,1.7.6Z"/>
    <path class="st8" d="M1045.4,972v-.7c-.7.6-1.4.8-2.1.8s-1-.1-1.3-.4c-.3-.3-.5-.6-.5-1s.2-.8.6-1.1c.4-.3,1-.5,1.8-.5s.4,0,.7,0c.2,0,.5,0,.8.1v-.7c0-.2-.1-.5-.3-.6-.2-.2-.6-.3-1-.3s-.8.1-1.5.3c-.1,0-.2,0-.2,0,0,0-.1,0-.1,0,0,0,0,0,0-.2s0-.1,0-.1c0,0,.3-.1.6-.2.6-.2,1-.2,1.3-.2.6,0,1,.1,1.3.4.3.3.5.6.5,1v3h.6c.1,0,.2,0,.2,0s0,0,0,.2,0,.1,0,.2-.1,0-.2,0h-1.1ZM1045.4,969.8c-.2,0-.4-.1-.7-.1-.2,0-.5,0-.7,0-.7,0-1.2.1-1.5.4-.3.2-.4.5-.4.8s.1.5.3.7c.2.2.5.3.9.3s.8,0,1.1-.2c.3-.2.7-.4,1-.7v-1Z"/>
    <path class="st8" d="M1051,965.3v6.3h1.8c.1,0,.2,0,.2,0,0,0,0,0,0,.2s0,.1,0,.2c0,0-.1,0-.2,0h-4c-.1,0-.2,0-.2,0s0,0,0-.2,0-.1,0-.2.1,0,.2,0h1.8v-5.8h-1.3c-.1,0-.2,0-.2,0,0,0,0,0,0-.2s0-.1,0-.2c0,0,.1,0,.2,0h1.8Z"/>
    <path class="st8" d="M1059.8,969.8h-4.6c0,.6.3,1.1.7,1.4s.9.5,1.5.5.7,0,1.1-.2c.4-.1.7-.3.9-.4s.1,0,.2,0,.1,0,.2,0,0,0,0,.2,0,.1,0,.2c-.2.2-.5.3-.9.5-.4.2-.9.2-1.4.2-.8,0-1.4-.3-1.9-.8s-.8-1.1-.8-1.8.2-1.2.7-1.7c.5-.5,1.1-.7,1.8-.7s1.3.2,1.8.7c.5.5.7,1.1.7,1.9ZM1059.3,969.3c0-.5-.3-.9-.7-1.2s-.8-.5-1.4-.5-1,.2-1.4.5c-.4.3-.6.7-.7,1.2h4.1Z"/>
    <path class="st8" d="M1063.8,970.7h.2c.2,0,.4,0,.5.2.1.1.2.3.2.5s0,.4-.2.5c-.1.1-.3.2-.5.2h-.2c-.2,0-.4,0-.5-.2-.1-.1-.2-.3-.2-.5s0-.4.2-.5c.1-.1.3-.2.5-.2Z"/>
  </g>
  <line class="st4" x1="120" y1="160" x2="332" y2="160"/>
  <line class="st4" x1="638.1" y1="160" x2="983.2" y2="160"/>
  <polyline class="st4" points="120 355.2 120 359.6 120 860"/>
  <path class="st4" d="M120,355.2"/>
  <line class="st4" x1="120" y1="160" x2="120" y2="169"/>
  <path class="st4" d="M983.2,860"/>
  <path class="st4" d="M975.4,860"/>
  <line class="st4" x1="120" y1="860" x2="788" y2="860"/>
  <line class="st4" x1="983.2" y1="160" x2="983.2" y2="860"/>
  <line class="st4" x1="332" y1="160" x2="332" y2="359.6"/>
  <line class="st4" x1="332" y1="359.6" x2="638.1" y2="359.6"/>
  <line class="st4" x1="638.1" y1="160" x2="638.1" y2="359.6"/>
  <path class="st7" d="M462,359.6c0,12.7,10.3,23.1,23.1,23.1h0"/>
  <path class="st7" d="M508.1,359.6c0,12.7-10.3,23.1-23.1,23.1"/>
  <g class="st1">
    <path class="st2" d="M452.8,253v10.2h5.6v-2.5c0-.6.1-1.1.4-1.3.2-.3.6-.4.9-.4s.7.1.9.4c.2.3.4.7.4,1.3v5.1h-12.3c-.6,0-1.1-.1-1.3-.4-.3-.2-.4-.6-.4-.9s.1-.7.4-.9c.3-.2.7-.4,1.3-.4h1.5v-10.2h-1.5c-.6,0-1.1-.1-1.3-.4-.3-.2-.4-.6-.4-.9s.1-.7.4-.9c.3-.2.7-.4,1.3-.4h5.6c.6,0,1.1.1,1.3.4s.4.5.4.9-.1.7-.4.9c-.3.2-.7.4-1.3.4h-1.5Z"/>
    <path class="st2" d="M476.2,260.3c0,1-.3,2-.8,2.9-.6.9-1.4,1.7-2.5,2.2-1.1.6-2.2.8-3.4.8s-2.3-.3-3.4-.8c-1.1-.5-1.9-1.3-2.5-2.2s-.9-1.9-.9-2.9.3-2.1.9-3.1c.6-1,1.4-1.8,2.5-2.4s2.2-.9,3.4-.9,2.3.3,3.4.9c1.1.6,1.9,1.4,2.5,2.4.6,1,.8,2,.8,3.1ZM473.6,260.3c0-.8-.3-1.6-.9-2.3-.8-.9-1.9-1.4-3.2-1.4s-2.2.4-2.9,1.1-1.2,1.6-1.2,2.6.4,1.6,1.2,2.3c.8.7,1.8,1.1,2.9,1.1s2.1-.4,2.9-1.1c.8-.7,1.2-1.5,1.2-2.3Z"/>
    <path class="st2" d="M491.1,249.3v13.9h.4c.6,0,1.1.1,1.3.4.3.2.4.6.4.9s-.1.7-.4.9c-.3.2-.7.4-1.3.4h-3v-.6c-.6.3-1.2.6-1.9.8s-1.3.3-2,.3c-2,0-3.5-.6-4.7-1.7-1.2-1.1-1.8-2.5-1.8-4.2s.6-3.3,1.9-4.5,2.8-1.9,4.6-1.9,1.3.1,2,.3c.7.2,1.3.5,1.9.9v-3.2h-.4c-.6,0-1.1-.1-1.3-.4-.3-.2-.4-.6-.4-.9s.1-.7.4-.9c.3-.2.7-.4,1.3-.4h3ZM488.5,260.4c0-1.1-.4-2-1.1-2.7s-1.7-1.1-2.8-1.1-2,.4-2.8,1.1-1.1,1.6-1.1,2.7.3,1.7,1,2.4c.7.6,1.6.9,2.9.9s2.2-.3,2.9-.9c.7-.6,1-1.4,1-2.3Z"/>
    <path class="st2" d="M503.5,255.1v-.8h3c.6,0,1.1.1,1.3.4.3.2.4.6.4.9s-.1.7-.4.9c-.3.2-.7.4-1.3.4h-.4v9.5c0,.9-.2,1.7-.6,2.4-.4.7-1,1.3-1.8,1.8s-1.7.7-2.7.7h-2.9c-.6,0-1.1-.1-1.3-.4-.3-.2-.4-.6-.4-.9s.1-.7.4-.9c.3-.2.7-.4,1.3-.4h2.9c.8,0,1.4-.2,1.9-.6s.7-1,.7-1.6v-1.3c-.6.4-1.2.7-1.8.8s-1.2.3-1.8.3c-1.8,0-3.2-.6-4.4-1.8-1.2-1.2-1.8-2.6-1.8-4.4s.6-3.2,1.8-4.4c1.2-1.2,2.7-1.8,4.4-1.8s1.3,0,1.9.3c.6.2,1.2.5,1.7.9ZM503.5,260c0-1-.4-1.8-1.1-2.5s-1.6-1.1-2.5-1.1-1.8.4-2.5,1.1-1.1,1.5-1.1,2.5.4,1.8,1.1,2.5c.7.7,1.6,1,2.5,1s1.8-.3,2.5-1c.7-.7,1.1-1.5,1.1-2.5Z"/>
    <path class="st2" d="M522.8,261.4h-10.7c.3.7.8,1.2,1.4,1.6s1.6.6,2.8.6,2.2-.2,3.8-.6c.7-.2,1.1-.3,1.4-.3s.6.1.9.4.4.6.4.9-.1.6-.4.9c-.3.3-1.2.6-2.5.9-1.3.3-2.6.4-3.8.4-2.1,0-3.7-.6-5-1.8s-1.9-2.6-1.9-4.3.7-3.3,2-4.5c1.4-1.1,2.9-1.7,4.7-1.7s2,.2,2.9.6,1.5.8,2,1.2c.6.6,1.1,1.4,1.5,2.3.3.6.4,1.4.4,2.2v1.1ZM519.9,258.8c-.4-.7-.9-1.3-1.6-1.7-.6-.4-1.4-.6-2.3-.6s-1.6.2-2.3.6c-.6.4-1.2.9-1.6,1.7h7.7Z"/>
  </g>
  <g class="st1">
    <path class="st2" d="M471.7,616.1v2.7h2.6c.6,0,1.1.1,1.3.4.3.2.4.6.4.9s-.1.7-.4.9c-.3.2-.7.4-1.3.4h-5.6c-.6,0-1.1-.1-1.3-.4-.3-.2-.4-.6-.4-.9s.1-.7.4-.9c.3-.2.7-.4,1.3-.4h.4v-10.2h-.4c-.6,0-1.1-.1-1.3-.4-.3-.2-.4-.6-.4-.9s.1-.7.4-.9c.3-.2.7-.4,1.3-.4h6c1.8,0,3.2.5,4.2,1.5,1,1,1.5,2.1,1.5,3.5s-.2,1.5-.5,2.2c-.3.5-.7,1-1.3,1.5-.6.5-1.2.9-1.9,1.1-.6.2-1.5.4-2.5.4h-2.5ZM471.7,613.5h2.4c1.1,0,2-.3,2.7-.8.7-.5,1-1.1,1-1.8s-.3-1.1-.8-1.6-1.3-.7-2.3-.7h-3v4.9Z"/>
    <path class="st2" d="M491.1,621.3v-.6c-.7.3-1.4.6-2.2.8-.8.2-1.5.3-2.1.3-1.4,0-2.5-.4-3.4-1.1-.9-.7-1.3-1.6-1.3-2.5s.6-2.1,1.7-3c1.1-.9,2.7-1.4,4.6-1.4s1.7,0,2.7.3v-.6c0-.4-.2-.7-.5-1s-1-.4-1.9-.4-1.8.2-3,.5c-.5.1-.8.2-1.1.2s-.6-.1-.9-.4c-.2-.2-.4-.6-.4-1s0-.4.1-.6.2-.3.4-.4c.2,0,.5-.2,1-.3.6-.2,1.3-.3,2-.4.7-.1,1.3-.2,1.8-.2,1.6,0,2.9.3,3.8,1,.9.7,1.3,1.7,1.3,2.9v5.4h.4c.6,0,1.1.1,1.3.4.3.2.4.6.4.9s-.1.7-.4.9c-.3.2-.7.4-1.3.4h-3ZM491.1,616.7c-1-.2-2-.3-2.9-.3s-2,.3-2.7.8c-.5.3-.7.7-.7,1s.1.4.3.6c.4.3,1,.4,1.7.4s1.3-.1,2.1-.4,1.5-.6,2.1-1v-1.1Z"/>
    <path class="st2" d="M503.8,609.8v1.6c1.1-.8,2-1.3,2.6-1.6s1.2-.4,1.8-.4c.8,0,1.7.3,2.5.9.5.4.8.9.8,1.3s-.1.7-.4.9c-.3.3-.6.4-.9.4s-.7-.2-1-.5-.7-.5-1-.5-.9.2-1.6.7-1.6,1.1-2.7,2.1v3.9h3.7c.6,0,1.1.1,1.3.4.3.2.4.6.4.9s-.1.7-.4.9c-.3.2-.7.4-1.3.4h-7.9c-.6,0-1.1-.1-1.3-.4-.3-.2-.4-.6-.4-.9s.1-.7.4-.9c.3-.2.7-.4,1.3-.4h1.5v-6.3h-.9c-.6,0-1.1-.1-1.3-.4-.3-.2-.4-.6-.4-.9s.1-.7.4-.9c.3-.2.7-.4,1.3-.4h3.5Z"/>
    <path class="st2" d="M517.8,617v4.3h-3c-.6,0-1.1-.1-1.3-.4-.3-.2-.4-.6-.4-.9s.1-.7.4-.9c.3-.2.7-.4,1.3-.4h.4v-11.3h-.4c-.6,0-1.1-.1-1.3-.4-.3-.2-.4-.6-.4-.9s.1-.7.4-.9c.3-.2.7-.4,1.3-.4h3v8.8l2-1.6c-.2-.4-.3-.7-.3-.9,0-.4.1-.7.4-.9.3-.2.7-.4,1.3-.4h3c.6,0,1.1.1,1.3.4.3.2.4.6.4.9s-.1.7-.4.9c-.3.2-.7.4-1.3.4h-.7l-3.2,2.6,4.3,3.8h.8c.6,0,1.1.1,1.3.4.3.2.4.6.4.9s-.1.7-.4.9c-.3.2-.7.4-1.3.4h-3c-.6,0-1.1-.1-1.3-.4-.3-.2-.4-.6-.4-.9s.1-.7.4-1l-2.8-2.4-.5.4Z"/>
    <path class="st2" d="M536.9,609.8v8.9h3.1c.6,0,1.1.1,1.3.4.3.2.4.6.4.9s-.1.7-.4.9c-.3.2-.7.4-1.3.4h-8.8c-.6,0-1.1-.1-1.3-.4-.3-.2-.4-.6-.4-.9s.1-.7.4-.9c.3-.2.7-.4,1.3-.4h3.1v-6.3h-2.1c-.6,0-1.1-.1-1.3-.4-.3-.2-.4-.6-.4-.9s.1-.7.4-.9c.3-.2.7-.4,1.3-.4h4.7ZM536.5,604.9v2.8h-3.1v-2.8h3.1Z"/>
    <path class="st2" d="M548.5,609.8v.9c.5-.4,1-.7,1.6-.9s1.2-.3,1.9-.3c1.5,0,2.8.5,3.7,1.4.7.8,1.1,1.8,1.1,3v4.8c.5,0,1,.1,1.2.4.3.2.4.6.4.9s-.1.7-.4.9c-.3.2-.7.4-1.3.4h-2.3c-.6,0-1.1-.1-1.3-.4-.3-.2-.4-.6-.4-.9s.1-.7.4-.9c.3-.2.7-.4,1.2-.4v-4.9c0-.6-.2-1-.5-1.2-.4-.3-1-.5-1.8-.5s-1.1.1-1.6.3c-.5.2-1,.7-1.7,1.5v4.8c.7,0,1.1,0,1.3.2.4.3.6.6.6,1.1s-.1.7-.4.9c-.3.2-.7.4-1.3.4h-3c-.6,0-1.1-.1-1.3-.4-.3-.2-.4-.6-.4-.9s.2-.8.6-1.1c.2-.1.6-.2,1.3-.2v-6.3c-.5,0-1-.1-1.2-.4-.3-.2-.4-.6-.4-.9s.1-.7.4-.9c.3-.2.7-.4,1.3-.4h2.5Z"/>
    <path class="st2" d="M569.6,610.6v-.8h3c.6,0,1.1.1,1.3.4.3.2.4.6.4.9s-.1.7-.4.9c-.3.2-.7.4-1.3.4h-.4v9.5c0,.9-.2,1.7-.6,2.4-.4.7-1,1.3-1.8,1.8-.8.5-1.7.7-2.7.7h-2.9c-.6,0-1.1-.1-1.3-.4-.3-.2-.4-.6-.4-.9s.1-.7.4-.9c.3-.2.7-.4,1.3-.4h2.9c.8,0,1.4-.2,1.9-.6.4-.4.7-1,.7-1.6v-1.3c-.6.4-1.2.7-1.8.8s-1.2.3-1.8.3c-1.8,0-3.2-.6-4.4-1.8-1.2-1.2-1.8-2.6-1.8-4.4s.6-3.2,1.8-4.4c1.2-1.2,2.7-1.8,4.4-1.8s1.3,0,1.9.3c.6.2,1.2.5,1.7.9ZM569.6,615.6c0-1-.4-1.8-1.1-2.5s-1.6-1.1-2.5-1.1-1.8.4-2.5,1.1-1.1,1.5-1.1,2.5.4,1.8,1.1,2.5c.7.7,1.6,1,2.5,1s1.8-.3,2.5-1c.7-.7,1.1-1.5,1.1-2.5Z"/>
    <path class="st2" d="M596.9,608.6v10.2h5.6v-2.5c0-.6.1-1.1.4-1.3.2-.3.6-.4.9-.4s.7.1.9.4c.2.3.4.7.4,1.3v5.1h-12.3c-.6,0-1.1-.1-1.3-.4-.3-.2-.4-.6-.4-.9s.1-.7.4-.9c.3-.2.7-.4,1.3-.4h1.5v-10.2h-1.5c-.6,0-1.1-.1-1.3-.4-.3-.2-.4-.6-.4-.9s.1-.7.4-.9c.3-.2.7-.4,1.3-.4h5.6c.6,0,1.1.1,1.3.4s.4.5.4.9-.1.7-.4.9c-.3.2-.7.4-1.3.4h-1.5Z"/>
    <path class="st2" d="M620.3,615.8c0,1-.3,2-.8,2.9-.6.9-1.4,1.7-2.5,2.2-1.1.6-2.2.8-3.4.8s-2.3-.3-3.4-.8c-1.1-.5-1.9-1.3-2.5-2.2-.6-.9-.9-1.9-.9-2.9s.3-2.1.9-3.1c.6-1,1.4-1.8,2.5-2.4s2.2-.9,3.4-.9,2.3.3,3.4.9c1.1.6,1.9,1.4,2.5,2.4.6,1,.8,2,.8,3.1ZM617.7,615.8c0-.8-.3-1.6-.9-2.3-.8-.9-1.9-1.4-3.2-1.4s-2.2.4-2.9,1.1-1.2,1.6-1.2,2.6.4,1.6,1.2,2.3c.8.7,1.8,1.1,2.9,1.1s2.2-.4,2.9-1.1c.8-.7,1.2-1.5,1.2-2.3Z"/>
    <path class="st2" d="M628.6,612.4v5.2c0,.6.1.9.3,1.1.4.3,1,.4,1.9.4,1.3,0,2.6-.3,3.7-.9.4-.2.8-.3,1-.3s.6.1.9.4.4.6.4.9-.1.6-.4.9c-.4.4-1.2.8-2.5,1.1-1.2.3-2.3.5-3.1.5-1.6,0-2.8-.3-3.6-1-.8-.7-1.2-1.6-1.2-2.6v-5.7h-.9c-.6,0-1.1-.1-1.3-.4-.3-.2-.4-.6-.4-.9s.1-.7.4-.9c.3-.2.7-.4,1.3-.4h.9v-2.3c0-.6.1-1.1.4-1.3.2-.3.6-.4.9-.4s.7.1.9.4c.2.3.4.7.4,1.3v2.3h4.8c.6,0,1.1.1,1.3.4.3.2.4.6.4.9s-.1.7-.4.9c-.3.2-.7.4-1.3.4h-4.8Z"/>
  </g>
  <g class="st1">
    <path class="st8" d="M92,558.4l7.3,1.6v-4.1l-2.4-.5c-.1,0-.3,0-.3-.2,0,0,0-.2,0-.2s0-.1,0-.2c0,0,0,0,.2,0s0,0,.2,0l3.1.7v6.8c0,.1,0,.2,0,.3,0,0-.1,0-.2,0s-.2,0-.3-.1c0,0-.1-.2-.1-.4v-1.5l-7.3-1.6v1.5c0,.1,0,.2,0,.3,0,0-.1,0-.2,0s-.2,0-.3-.1c0,0-.1-.2-.1-.4v-3.6c0-.1,0-.2,0-.3,0,0,.1,0,.2,0s.2,0,.3.1c0,0,.1.2.1.4v1.5Z"/>
    <path class="st8" d="M100,548.3l-.9-.2c.8,1.1,1.1,2.1,1.1,3.1s-.1,1.1-.4,1.5-.7.5-1.1.5c-.7,0-1.2-.3-1.7-.9-.6-.7-.9-1.7-.9-2.8s0-1.2.2-2l-1-.2c0,0-.1,0-.2,0-.3,0-.5.1-.7.3-.2.3-.4.7-.4,1.3s.1,1.2.4,2.2c0,.1,0,.2,0,.2s0,.1,0,.2-.1,0-.2,0-.2,0-.2-.1c0,0-.2-.3-.3-.8-.2-.8-.3-1.5-.3-1.9,0-.7.2-1.2.5-1.6.3-.4.7-.5,1-.5s.3,0,.4,0l4.1.9v-.8c0-.1,0-.2,0-.3,0,0,.1,0,.2,0s.2,0,.3.1c0,0,.1.2.1.4v1.4ZM96.9,547.6c-.2.6-.2,1.2-.2,1.9s.2,1.8.7,2.4c.3.4.7.7,1.2.7s.6-.1.8-.3c.2-.2.3-.6.3-1.1s-.1-1-.3-1.6c-.2-.5-.5-1.1-1-1.6l-1.4-.3Z"/>
    <path class="st8" d="M100,538.9v.8s-3.9.5-3.9.5l4,2.2v.8s-5.7,0-5.7,0v.3c0,.1,0,.2,0,.3s-.1,0-.2,0-.2,0-.3-.1c0,0-.1-.2-.1-.4v-1.7c0-.1,0-.2,0-.3,0,0,.1,0,.2,0s.2,0,.3.1c0,0,.1.2.1.4v.8h4.9c0,0-3.9-2.2-3.9-2.2v-.7l3.9-.5-4.9-2.1v.8c0,.1,0,.2,0,.3,0,0-.1,0-.2,0s-.2,0-.3-.1c0,0-.1-.2-.1-.4v-1.7c0-.1,0-.2,0-.3,0,0,.1,0,.2,0s.2,0,.3.1c0,0,.1.2.1.4v.3l5.7,2.5Z"/>
    <path class="st8" d="M93.7,531.4l1.6.3c-.7-1-1.2-1.7-1.4-2.1-.2-.4-.3-.8-.3-1.2s.1-.6.3-.9c.2-.3.4-.4.5-.4s.2,0,.3.1.1.2.1.3,0,0,0,.1c0,0,0,0-.2.2-.2.1-.3.3-.4.4s0,.2,0,.3c0,.3.1.6.3,1,.2.4.7,1.2,1.6,2.3l3.4.7v-2.7c0-.1,0-.2,0-.3,0,0,.1,0,.2,0s.2,0,.3.1c0,0,.1.2.1.4v4.8c0,.1,0,.2,0,.3,0,0,0,0-.2,0s-.2,0-.3-.1c0,0-.1-.2-.1-.4v-1.5l-5.1-1.1v1.1c0,.1,0,.2,0,.3s-.1,0-.2,0-.2,0-.3-.1c0,0-.1-.2-.1-.4v-1.8Z"/>
    <path class="st8" d="M97,519.1v6.3c.2,0,.3,0,.3,0,.7,0,1.2-.2,1.7-.7s.7-1.1.7-1.8,0-.9-.2-1.5c-.1-.5-.4-1-.6-1.4,0-.1-.1-.2-.1-.3s0-.1,0-.2c0,0,.1,0,.2,0s.2,0,.2.1c.2.2.5.7.7,1.3.2.7.3,1.4.3,2.1s-.3,1.6-.8,2.2-1.2.8-2,.8-1.1-.1-1.5-.4c-.5-.2-.9-.5-1.2-.9-.3-.4-.6-.8-.9-1.3s-.3-1-.3-1.6c0-.8.2-1.5.7-2s1.1-.8,1.9-.8.6,0,.9.1ZM96.4,519.6c-.7,0-1.2.2-1.7.6-.4.4-.6,1-.6,1.7s.2,1.4.6,2c.4.6,1,1.1,1.7,1.3v-5.6Z"/>
    <path class="st8" d="M93.7,514.7l.9.2c-.4-.5-.7-1-.9-1.4-.2-.4-.2-.8-.2-1.2s.2-1.1.5-1.4.7-.5,1.3-.5.2,0,.3,0l3.9.8v-.5c0-.1,0-.2,0-.3,0,0,.1,0,.2,0s.2,0,.3.1c0,0,.1.2.1.4v1.7c0,.1,0,.2,0,.3,0,0-.1,0-.2,0s-.2,0-.3-.1c0,0-.1-.2-.1-.4v-.5l-3.8-.8c-.1,0-.2,0-.3,0-.4,0-.7.1-.9.4-.2.2-.3.6-.3,1.1s0,.8.3,1.1c.2.3.6.8,1.2,1.5l3.9.8v-.7c0-.1,0-.2,0-.3,0,0,.1,0,.2,0s.2,0,.3.1c0,0,.1.2.1.4v2c0,.1,0,.2,0,.3,0,0-.1,0-.2,0s-.2,0-.3-.1c0,0-.1-.2-.1-.4v-.7l-5.1-1.1v.5c0,.1,0,.2,0,.3s-.1,0-.2,0-.2,0-.3-.1c0,0-.1-.2-.1-.4v-1.1Z"/>
    <path class="st8" d="M94.3,501.3c-.3,0-.4-.1-.5-.2,0,0-.1-.2-.1-.3s0-.1,0-.2c0,0,0,0,.2,0s.1,0,.2,0l1.4.3c.2,0,.3,0,.3.2s0,.2,0,.2,0,.1,0,.2c0,0,0,0-.2,0s0,0-.1,0c0,0,0,0-.1,0-.3,0-.6.2-.9.5-.3.4-.5,1-.5,1.6s.1,1.2.4,1.7c.3.5.7,1,1.3,1.3s1.1.5,1.7.5,1.2-.2,1.5-.6c.4-.4.6-1,.6-1.7s0-1-.3-1.5c-.2-.5-.5-1-.9-1.5,0-.1-.1-.2-.1-.3s0-.1,0-.2c0,0,0,0,.2,0,0,0,.2,0,.3.1.4.3.7.9.9,1.6.3.7.4,1.4.4,2.1s-.2,1.5-.7,2c-.5.5-1.1.7-1.9.7s-1.1-.1-1.7-.4c-.5-.2-1-.6-1.3-.9-.4-.4-.7-.8-.9-1.3-.2-.5-.3-1-.3-1.6s0-.9.2-1.3c.1-.4.4-.7.6-.9Z"/>
    <path class="st8" d="M97,492.1v6.3c.2,0,.3,0,.3,0,.7,0,1.2-.2,1.7-.7.4-.5.7-1.1.7-1.8s0-.9-.2-1.5c-.1-.5-.4-1-.6-1.4,0-.1-.1-.2-.1-.3s0-.1,0-.2c0,0,.1,0,.2,0s.2,0,.2.1c.2.2.5.7.7,1.3.2.7.3,1.4.3,2.1s-.3,1.6-.8,2.2c-.5.5-1.2.8-2,.8s-1.1-.1-1.5-.4c-.5-.2-.9-.5-1.2-.9-.3-.4-.6-.8-.9-1.3-.2-.5-.3-1-.3-1.6,0-.8.2-1.5.7-2,.5-.5,1.1-.8,1.9-.8s.6,0,.9.1ZM96.4,492.6c-.7,0-1.2.2-1.7.6-.4.4-.6,1-.6,1.7s.2,1.4.6,2,1,1.1,1.7,1.3v-5.6Z"/>
    <path class="st8" d="M97.1,475.1v4l2.2,1.3v-1.2c0-.1,0-.2,0-.3,0,0,.1,0,.2,0s.2,0,.3.1c0,0,.1.2.1.4v2.3c0,.1,0,.2,0,.3,0,0-.1,0-.2,0s-.2,0-.3-.1c0,0-.1-.2-.1-.4v-.5l-7.3-4.3v1.8c0,.1,0,.2,0,.3,0,0-.1,0-.2,0s-.2,0-.3-.1c0,0-.1-.2-.1-.4v-3.1l8-1.3v-.5c0-.1,0-.2,0-.3,0,0,.1,0,.2,0s.2,0,.3.1c0,0,.1.2.1.4v2.3c0,.1,0,.2,0,.3,0,0-.1,0-.2,0s-.2,0-.3-.1c0,0-.1-.2-.1-.4v-1.2l-2.2.4ZM96.5,475.2l-4.5.7v.2l4.5,2.6v-3.6Z"/>
    <path class="st8" d="M100,468.5v1l-5.7,1.3v.6c0,.1,0,.2,0,.3s-.1,0-.2,0-.2,0-.3-.1c0,0-.1-.2-.1-.4v-2.3c0-.1,0-.2,0-.3,0,0,.1,0,.2,0s.2,0,.3.1c0,0,.1.2.1.4v1l5.1-1.2v-.3l-5.1-3.3v1c0,.1,0,.2,0,.3s-.1,0-.2,0-.2,0-.3-.1c0,0-.1-.2-.1-.4v-2.3c0-.1,0-.2,0-.3,0,0,.1,0,.2,0s.2,0,.3.1c0,0,.1.2.1.4v.6l5.7,3.7Z"/>
    <path class="st8" d="M97,456.1v6.3c.2,0,.3,0,.3,0,.7,0,1.2-.2,1.7-.7s.7-1.1.7-1.8,0-.9-.2-1.5c-.1-.5-.4-1-.6-1.4,0-.1-.1-.2-.1-.3s0-.1,0-.2c0,0,.1,0,.2,0s.2,0,.2.1c.2.2.5.7.7,1.3.2.7.3,1.4.3,2.1s-.3,1.6-.8,2.2-1.2.8-2,.8-1.1-.1-1.5-.4c-.5-.2-.9-.5-1.2-.9-.3-.4-.6-.8-.9-1.3s-.3-1-.3-1.6c0-.8.2-1.5.7-2s1.1-.8,1.9-.8.6,0,.9.1ZM96.4,456.6c-.7,0-1.2.2-1.7.6-.4.4-.6,1-.6,1.7s.2,1.4.6,2,1,1.1,1.7,1.3v-5.6Z"/>
  </g>
  <g class="st1">
    <path class="st8" d="M522,872.7l-1.8,8.7h2.1c.1,0,.2,0,.3,0,0,0,0,.1,0,.2s0,.2-.1.3c0,0-.2.1-.4.1h-4.8c-.1,0-.2,0-.3,0,0,0,0-.1,0-.2s0-.2.1-.3c0,0,.2-.1.4-.1h2.1l1.7-7.9-2.1.6c-.1,0-.2,0-.2,0s-.1,0-.2,0c0,0,0-.1,0-.2s0-.2,0-.2.2-.1.3-.2l3-.9Z"/>
    <path class="st8" d="M526.2,881.4h4.7c0-.3.1-.5.2-.5,0,0,.2-.1.3-.1s.1,0,.2,0,0,0,0,.2,0,.1,0,.2l-.2.9h-5.9l.2-.9c1.6-1.2,3.1-2.4,4.5-3.5.7-.6,1.1-1,1.4-1.3s.4-.5.5-.8c.1-.2.2-.5.2-.7,0-.5-.2-.8-.5-1.2-.3-.3-.8-.5-1.3-.5s-1,.2-1.5.5-.8.7-1.1,1.1c0,.2-.2.3-.4.3s-.1,0-.2,0c0,0,0,0,0-.2,0-.2.1-.4.4-.8.4-.5.8-.9,1.4-1.1.5-.3,1.1-.4,1.6-.4s1.2.2,1.6.6c.4.4.6.9.6,1.5s0,.6-.2.9-.3.6-.6.9c-.3.3-.8.7-1.4,1.3-1.8,1.5-3.3,2.7-4.5,3.5h0Z"/>
    <path class="st8" d="M537.8,875.7h3.3c.1,0,.2,0,.3,0,0,0,0,.1,0,.2s0,.2,0,.2c0,0,0,0-.1.1,0,0-.2,0-.3,0h-3.3l-.9,4.1c0,.1,0,.2,0,.3,0,.2.1.4.4.6.2.2.6.3,1.1.3s.9,0,1.4-.2.9-.3,1.2-.4c.1,0,.2,0,.3,0s.1,0,.2,0c0,0,0,.1,0,.2s0,.2-.2.3c-.3.2-.8.4-1.6.6-.5.1-1,.2-1.5.2s-1.1-.1-1.4-.4c-.3-.3-.5-.6-.5-1s0-.3,0-.4l.9-4.1h-1.1c-.1,0-.2,0-.3,0s0-.1,0-.2,0-.2.1-.3c0,0,.2-.1.4-.1h1.1l.4-1.8c0-.1,0-.3.2-.3,0,0,.2,0,.2,0s.1,0,.2,0c0,0,0,0,0,.2s0,0,0,.2l-.4,1.8Z"/>
    <path class="st8" d="M546.6,872.8l-.8,3.8c.5-.4.9-.7,1.3-.9.4-.2.8-.3,1.2-.3.6,0,1.1.2,1.5.5s.5.7.5,1.2,0,.3,0,.4l-.8,3.8h.7c.1,0,.2,0,.3,0,0,0,0,.1,0,.2s0,.2-.1.3c0,0-.2.1-.4.1h-2c-.1,0-.2,0-.3,0,0,0,0-.1,0-.2s0-.2.1-.3c0,0,.2-.1.4-.1h.7l.8-3.8c0-.1,0-.2,0-.3,0-.4-.1-.7-.4-.9-.3-.2-.6-.3-1.1-.3s-.8,0-1.1.2c-.3.2-.8.6-1.5,1.2l-.8,3.9h.7c.1,0,.2,0,.3,0,0,0,0,.1,0,.2s0,.2-.1.3c0,0-.2.1-.4.1h-2c-.1,0-.2,0-.3,0,0,0,0-.1,0-.2s0-.2.1-.3c0,0,.2-.1.4-.1h.7l1.7-8h-.8c-.1,0-.2,0-.3,0,0,0,0-.1,0-.2s0-.2.1-.3c0,0,.2-.1.4-.1h1.4Z"/>
    <path class="st8" d="M567.6,879.1h-4l-1.3,2.2h1.2c.1,0,.2,0,.3,0,0,0,0,.1,0,.2s0,.2-.1.3c0,0-.2.1-.4.1h-2.3c-.1,0-.2,0-.3,0,0,0,0-.1,0-.2s0-.2.1-.3c0,0,.2-.1.4-.1h.5l4.3-7.3h-1.8c-.1,0-.2,0-.3,0,0,0,0-.1,0-.2s0-.2.1-.3c0,0,.2-.1.4-.1h3.1l1.3,8h.5c.1,0,.2,0,.3,0,0,0,0,.1,0,.2s0,.2-.1.3c0,0-.2.1-.4.1h-2.3c-.1,0-.2,0-.3,0,0,0,0-.1,0-.2s0-.2.1-.3c0,0,.2-.1.4-.1h1.2l-.4-2.2ZM567.5,878.5l-.7-4.5h-.2l-2.6,4.5h3.6Z"/>
    <path class="st8" d="M574.2,882h-1l-1.3-5.7h-.6c-.1,0-.2,0-.3,0s0-.1,0-.2,0-.2.1-.3c0,0,.2-.1.4-.1h2.3c.1,0,.2,0,.3,0,0,0,0,.1,0,.2s0,.2-.1.3c0,0-.2.1-.4.1h-1l1.2,5.1h.3l3.3-5.1h-1c-.1,0-.2,0-.3,0s0-.1,0-.2,0-.2.1-.3c0,0,.2-.1.4-.1h2.3c.1,0,.2,0,.3,0,0,0,0,.1,0,.2s0,.2-.1.3c0,0-.2.1-.4.1h-.6l-3.7,5.7Z"/>
    <path class="st8" d="M586.7,879h-6.3c0,.2,0,.3,0,.3,0,.7.2,1.2.7,1.7.5.4,1.1.7,1.8.7s.9,0,1.5-.2c.5-.1,1-.4,1.4-.6.1,0,.2-.1.3-.1s.1,0,.2,0c0,0,0,.1,0,.2s0,.2-.1.2c-.2.2-.7.5-1.3.7-.7.2-1.4.3-2.1.3s-1.6-.3-2.2-.8c-.5-.5-.8-1.2-.8-2s.1-1.1.4-1.5c.2-.5.5-.9.9-1.2.4-.3.8-.6,1.3-.9.5-.2,1-.3,1.6-.3.8,0,1.5.2,2,.7.5.5.8,1.1.8,1.9s0,.6-.1.9ZM586.2,878.4c0-.7-.2-1.2-.6-1.7-.4-.4-1-.6-1.7-.6s-1.4.2-2,.6-1.1,1-1.3,1.7h5.6Z"/>
  </g>
  <line class="st3" x1="120" y1="160" x2="120" y2="117"/>
  <line class="st3" x1="983.2" y1="160" x2="983.2" y2="117"/>
  <line class="st3" x1="120" y1="125" x2="983.2" y2="125"/>
  <line class="st5" x1="120" y1="119" x2="120" y2="131"/>
  <line class="st5" x1="983.2" y1="119" x2="983.2" y2="131"/>
  <line class="st3" x1="983.2" y1="160" x2="1026.2" y2="160"/>
  <line class="st3" x1="983.2" y1="860" x2="1026.2" y2="860"/>
  <line class="st3" x1="1018.2" y1="160" x2="1018.2" y2="860"/>
  <line class="st5" x1="1012.2" y1="160" x2="1024.2" y2="160"/>
  <line class="st5" x1="1012.2" y1="860" x2="1024.2" y2="860"/>
  <line class="st3" x1="332" y1="359.6" x2="332" y2="402.6"/>
  <line class="st3" x1="638.1" y1="359.6" x2="638.1" y2="402.6"/>
  <line class="st3" x1="332" y1="394.6" x2="638.1" y2="394.6"/>
  <line class="st5" x1="332" y1="388.6" x2="332" y2="400.6"/>
  <line class="st5" x1="638.1" y1="388.6" x2="638.1" y2="400.6"/>
  <line class="st3" x1="638.1" y1="160" x2="681.1" y2="160"/>
  <line class="st3" x1="638.1" y1="359.6" x2="681.1" y2="359.6"/>
  <line class="st3" x1="673.1" y1="160" x2="673.1" y2="359.6"/>
  <line class="st5" x1="667.1" y1="160" x2="679.1" y2="160"/>
  <line class="st5" x1="667.1" y1="359.6" x2="679.1" y2="359.6"/>
  <rect class="st10" x="521.6" y="110" width="60" height="14"/>
  <g class="st1">
    <path class="st9" d="M536.7,116.5c.3.2.5.5.6.7s.2.6.2.9,0,.7-.3,1c-.2.3-.5.6-.9.7s-.8.3-1.3.3-.9,0-1.3-.3c-.4-.2-.7-.4-.8-.7-.2-.3-.3-.6-.3-1s0-.6.2-.9c.1-.3.4-.5.6-.7-.2-.2-.4-.5-.6-.7-.1-.3-.2-.5-.2-.8,0-.6.2-1,.6-1.5s1-.6,1.7-.6,1.2.2,1.7.6.6.9.6,1.5,0,.6-.2.8c-.1.3-.3.5-.6.7ZM536.4,118.2c0-.3-.1-.6-.4-.8-.2-.2-.6-.4-.9-.4s-.7.1-.9.4-.4.5-.4.8.1.4.3.6.5.3,1,.3.8,0,1-.3c.2-.2.3-.4.3-.6ZM536.3,115c0-.3-.1-.5-.3-.7-.2-.2-.5-.3-.9-.3s-.7,0-.9.3c-.2.2-.3.4-.3.7s.1.5.3.7c.2.2.5.3.9.3s.6,0,.9-.3c.2-.2.3-.4.3-.7Z"/>
    <path class="st9" d="M542.3,112.9v6h1.1c.3,0,.5,0,.6.2.1.1.2.2.2.4s0,.3-.2.4c-.1.1-.3.2-.6.2h-3.3c-.3,0-.5,0-.6-.2-.1-.1-.2-.2-.2-.4s0-.3.2-.4c.1-.1.3-.2.6-.2h1.1v-4.6l-1,.3c-.2,0-.3,0-.4,0-.1,0-.3,0-.4-.2-.1-.1-.2-.2-.2-.4s0-.3.1-.3.2-.2.5-.2l2.4-.6Z"/>
    <path class="st9" d="M547.6,113.3h1.4l-.3,2.8c0,.2,0,.3-.1.3,0,0-.1,0-.2,0s-.2,0-.2,0c0,0,0-.2-.1-.3l-.4-2.8Z"/>
    <path class="st9" d="M557.2,117.4h-4.6v-1h4.6v1Z"/>
    <path class="st9" d="M562.1,112.9v6h1.1c.3,0,.5,0,.6.2.1.1.2.2.2.4s0,.3-.2.4c-.1.1-.3.2-.6.2h-3.3c-.3,0-.5,0-.6-.2-.1-.1-.2-.2-.2-.4s0-.3.2-.4c.1-.1.3-.2.6-.2h1.1v-4.6l-1,.3c-.2,0-.3,0-.4,0-.1,0-.3,0-.4-.2-.1-.1-.2-.2-.2-.4s0-.3.1-.3.2-.2.5-.2l2.4-.6Z"/>
    <path class="st9" d="M566.2,113.4h1.4l-.3,2.6c0,.1,0,.2-.1.3,0,0-.1,0-.2,0s-.2,0-.2,0c0,0,0-.1-.1-.3l-.4-2.6ZM568.5,113.4h1.4l-.3,2.6c0,.1,0,.2-.1.3,0,0-.1,0-.2,0s-.2,0-.2,0c0,0,0-.1-.1-.3l-.4-2.6Z"/>
  </g>
  <rect class="st10" x="1024.2" y="504" width="54" height="14"/>
  <g class="st1">
    <path class="st9" d="M1008.7,510.2c.3-.2.5-.4.8-.5.2-.1.5-.2.8-.2.6,0,1.1.2,1.5.7.4.5.7,1,.7,1.7s-.2,1.2-.6,1.6c-.4.4-1,.6-1.6.6s-1.1-.1-1.4-.4c-.4-.3-.7-.7-.8-1.2-.2-.6-.3-1.2-.3-1.9s.2-1.5.6-2.1c.4-.5.8-1,1.3-1.3s1-.5,1.6-.5.8,0,1,.3c.2.1.2.3.2.5s0,.3-.2.4-.2.2-.4.2-.2,0-.4-.1c0,0-.2,0-.3,0-.4,0-.7,0-1.1.3-.4.2-.7.5-1,.9-.2.3-.3.6-.4,1.1ZM1008.9,511.9c.1.4.3.7.5.9.2.2.5.2.8.2s.6,0,.8-.3.3-.4.3-.8-.1-.7-.3-.9c-.2-.2-.5-.4-.8-.4s-.5.1-.7.3c-.3.2-.5.5-.6.9Z"/>
    <path class="st9" d="M1015.4,508.2v1.3c.4-.1.8-.2,1.1-.2.7,0,1.2.2,1.7.7s.7,1.1.7,1.8-.2,1.3-.7,1.8-1.1.6-2.1.6-1.5-.2-2-.5c-.3-.2-.4-.4-.4-.6s0-.3.2-.4c.1-.1.2-.2.4-.2s.3,0,.4.2.3.2.5.2c.2,0,.5.1.9.1.7,0,1.1-.1,1.4-.3s.4-.5.4-1-.1-.8-.4-1c-.2-.2-.5-.4-.9-.4s-.9.1-1.4.4c-.1,0-.2,0-.3,0-.2,0-.3,0-.4-.2-.1-.1-.2-.3-.2-.4v-3.2h3.4c.3,0,.5,0,.6.2.1.1.2.2.2.4s0,.3-.2.4c-.1.1-.3.2-.6.2h-2.3Z"/>
    <path class="st9" d="M1022.2,507.3h1.4l-.3,2.8c0,.2,0,.3-.1.3,0,0-.1,0-.2,0s-.2,0-.2,0c0,0,0-.2-.1-.3l-.4-2.8Z"/>
    <path class="st9" d="M1031.9,511.4h-4.6v-1h4.6v1Z"/>
    <path class="st9" d="M1037.7,511.1c-.3.2-.5.4-.8.5s-.5.1-.7.1c-.6,0-1.1-.2-1.5-.7-.4-.5-.7-1.1-.7-1.8s.2-1,.5-1.5c.4-.6,1-.9,1.8-.9s1,.2,1.4.5c.4.3.7.8.9,1.4.2.6.3,1.2.3,1.9,0,1.1-.4,2-1.3,2.7-.7.5-1.4.8-2.2.8s-.8,0-1-.3c-.2-.1-.2-.3-.2-.5s0-.3.2-.4.2-.2.4-.2.2,0,.3,0c.1,0,.3.1.4.1.6,0,1.1-.2,1.5-.6.5-.4.8-.8.9-1.4ZM1037.5,509.4c-.1-.5-.3-.9-.5-1.1-.2-.2-.5-.3-.8-.3s-.6.1-.8.4c-.2.2-.3.6-.3.9s.1.7.3,1c.2.3.5.4.8.4.5,0,.9-.4,1.4-1.3Z"/>
    <path class="st9" d="M1040.9,507.4h1.4l-.3,2.6c0,.1,0,.2-.1.3s-.1,0-.2,0-.2,0-.2,0c0,0,0-.1-.1-.3l-.4-2.6ZM1043.2,507.4h1.4l-.3,2.6c0,.1,0,.2-.1.3s-.1,0-.2,0-.2,0-.2,0,0-.1-.1-.3l-.4-2.6Z"/>
  </g>
  <rect class="st10" x="455.1" y="397.6" width="60" height="14"/>
  <g class="st1">
    <path class="st9" d="M467.6,406.5h2.4c.1-.1.3-.2.4-.2.2,0,.3,0,.4.2,0,.1.1.3.1.6v.5h-5v-1.2c2-1.6,3.2-2.7,3.6-3.2.2-.2.3-.5.3-.7s-.1-.5-.4-.7c-.2-.2-.5-.3-.9-.3s-.7.1-1,.3c-.1.1-.2.3-.3.5,0,.2-.1.3-.2.3,0,0-.2,0-.3,0s-.3,0-.4-.2c-.1-.1-.2-.2-.2-.4,0-.2,0-.5.3-.8.2-.3.5-.6.9-.8.4-.2.8-.3,1.2-.3.7,0,1.3.2,1.7.6s.7.9.7,1.5,0,.6-.2.8c-.1.3-.4.6-.9,1.1-.4.4-1.1,1-2.2,1.9Z"/>
    <path class="st9" d="M476.7,404.1c.3.2.5.5.6.7.1.3.2.6.2.9s0,.7-.3,1c-.2.3-.5.6-.9.7s-.8.3-1.3.3-.9,0-1.3-.3-.7-.4-.8-.7c-.2-.3-.3-.6-.3-1s0-.6.2-.9c.1-.3.4-.5.6-.7-.2-.2-.4-.5-.6-.7s-.2-.5-.2-.8c0-.6.2-1,.6-1.5s1-.6,1.7-.6,1.2.2,1.7.6.6.9.6,1.5,0,.6-.2.8c-.1.3-.3.5-.6.7ZM476.5,405.8c0-.3-.1-.6-.4-.8-.2-.2-.6-.4-.9-.4s-.7.1-.9.4c-.2.2-.4.5-.4.8s.1.4.3.6.5.3,1,.3.8,0,1-.3c.2-.2.3-.4.3-.6ZM476.4,402.6c0-.3-.1-.5-.3-.7-.2-.2-.5-.3-.9-.3s-.7,0-.9.3c-.2.2-.3.4-.3.7s.1.5.3.7c.2.2.5.3.9.3s.6,0,.9-.3c.2-.2.3-.4.3-.7Z"/>
    <path class="st9" d="M481.1,400.9h1.4l-.3,2.8c0,.2,0,.3-.1.3,0,0-.1,0-.2,0s-.2,0-.2,0c0,0,0-.2-.1-.3l-.4-2.8Z"/>
    <path class="st9" d="M490.7,405h-4.6v-1h4.6v1Z"/>
    <path class="st9" d="M496.5,404.7c-.3.2-.5.4-.8.5s-.5.1-.7.1c-.6,0-1.1-.2-1.5-.7-.4-.5-.7-1.1-.7-1.8s.2-1,.5-1.5c.4-.6,1-.9,1.8-.9s1,.2,1.4.5.7.8.9,1.4.3,1.2.3,1.9c0,1.1-.4,2-1.3,2.7-.7.5-1.4.8-2.2.8s-.8,0-1-.3c-.2-.1-.2-.3-.2-.5s0-.3.2-.4c.1-.1.2-.2.4-.2s.2,0,.3,0c.1,0,.3.1.4.1.6,0,1.1-.2,1.5-.6s.8-.8.9-1.4ZM496.4,403c-.1-.5-.3-.9-.5-1.1-.2-.2-.5-.3-.8-.3s-.6.1-.8.4-.3.6-.3.9.1.7.3,1c.2.3.5.4.8.4.5,0,.9-.4,1.4-1.3Z"/>
    <path class="st9" d="M499.7,401h1.4l-.3,2.6c0,.1,0,.2-.1.3,0,0-.1,0-.2,0s-.2,0-.2,0,0-.1-.1-.3l-.4-2.6ZM502,401h1.4l-.3,2.6c0,.1,0,.2-.1.3s-.1,0-.2,0-.2,0-.2,0,0-.1-.1-.3l-.4-2.6Z"/>
  </g>
  <rect class="st10" x="679.1" y="253.8" width="54" height="14"/>
  <g class="st1">
    <path class="st9" d="M665.2,256.7v6h1.1c.3,0,.5,0,.6.2.1.1.2.2.2.4s0,.3-.2.4c-.1.1-.3.2-.6.2h-3.3c-.3,0-.5,0-.6-.2-.1-.1-.2-.2-.2-.4s0-.3.2-.4c.1-.1.3-.2.6-.2h1.1v-4.6l-1,.3c-.2,0-.3,0-.4,0-.1,0-.3,0-.4-.2-.1-.1-.2-.2-.2-.4s0-.3.1-.3.2-.2.5-.2l2.4-.6Z"/>
    <path class="st9" d="M672.8,260.3c.3.2.5.5.6.7.1.3.2.6.2.9s0,.7-.3,1-.5.6-.9.7-.8.3-1.3.3-.9,0-1.3-.3c-.4-.2-.7-.4-.8-.7-.2-.3-.3-.6-.3-1s0-.6.2-.9.4-.5.6-.7c-.2-.2-.4-.5-.6-.7-.1-.3-.2-.5-.2-.8,0-.6.2-1,.6-1.5s1-.6,1.7-.6,1.2.2,1.7.6.6.9.6,1.5,0,.6-.2.8c-.1.3-.3.5-.6.7ZM672.5,262c0-.3-.1-.6-.4-.8s-.6-.4-.9-.4-.7.1-.9.4c-.2.2-.4.5-.4.8s.1.4.3.6.5.3,1,.3.8,0,1-.3.3-.4.3-.6ZM672.4,258.8c0-.3-.1-.5-.3-.7s-.5-.3-.9-.3-.7,0-.9.3-.3.4-.3.7.1.5.3.7.5.3.9.3.6,0,.9-.3.3-.4.3-.7Z"/>
    <path class="st9" d="M677.1,257.1h1.4l-.3,2.8c0,.2,0,.3-.1.3,0,0-.1,0-.2,0s-.2,0-.2,0c0,0,0-.2-.1-.3l-.4-2.8Z"/>
    <path class="st9" d="M686.7,261.2h-4.6v-1h4.6v1Z"/>
    <path class="st9" d="M692.6,260.9c-.3.2-.5.4-.8.5-.2,0-.5.1-.7.1-.6,0-1.1-.2-1.5-.7-.4-.5-.7-1.1-.7-1.8s.2-1,.5-1.5c.4-.6,1-.9,1.8-.9s1,.2,1.4.5c.4.3.7.8.9,1.4.2.6.3,1.2.3,1.9,0,1.1-.4,2-1.3,2.7-.7.5-1.4.8-2.2.8s-.8,0-1-.3c-.2-.1-.2-.3-.2-.5s0-.3.2-.4c.1-.1.2-.2.4-.2s.2,0,.3,0c.1,0,.3.1.4.1.6,0,1.1-.2,1.5-.6.5-.4.8-.8.9-1.4ZM692.4,259.2c-.1-.5-.3-.9-.5-1.1-.2-.2-.5-.3-.8-.3s-.6.1-.8.4c-.2.2-.3.6-.3.9s.1.7.3,1c.2.3.5.4.8.4.5,0,.9-.4,1.4-1.3Z"/>
    <path class="st9" d="M695.7,257.2h1.4l-.3,2.6c0,.1,0,.2-.1.3,0,0-.1,0-.2,0s-.2,0-.2,0c0,0,0-.1-.1-.3l-.4-2.6ZM698,257.2h1.4l-.3,2.6c0,.1,0,.2-.1.3,0,0-.1,0-.2,0s-.2,0-.2,0c0,0,0-.1-.1-.3l-.4-2.6Z"/>
  </g>
  <g>
    <line class="st6" x1="1033.2" y1="23" x2="1033.2" y2="67"/>
    <line class="st6" x1="1011.2" y1="45" x2="1055.2" y2="45"/>
    <polygon class="st2" points="1033.2 19 1029.2 27 1037.2 27 1033.2 19"/>
    <polygon class="st2" points="1033.2 71 1029.2 63 1037.2 63 1033.2 71"/>
    <polygon class="st2" points="1007.2 45 1015.2 41 1015.2 49 1007.2 45"/>
    <polygon class="st2" points="1059.2 45 1051.2 41 1051.2 49 1059.2 45"/>
    <g class="st1">
      <path class="st2" d="M1031.6,14.7c0,.1-.2.2-.2.2,0,0-.1,0-.2,0-.2,0-.3,0-.4-.2-.1-.1-.2-.3-.2-.6v-.7c0-.3,0-.5.2-.6.1-.1.2-.2.4-.2s.2,0,.3.1.2.2.2.3c0,.2,0,.3.1.3.1.1.3.2.6.3.3.1.6.2.9.2.5,0,.9-.1,1.2-.3.2-.1.3-.3.3-.5s0-.3-.1-.4-.3-.2-.5-.3c-.1,0-.5-.1-1-.2-.6-.1-1.1-.2-1.4-.4-.3-.2-.6-.4-.7-.7-.2-.3-.3-.6-.3-.9,0-.5.2-1,.7-1.4s1-.6,1.7-.6.5,0,.8,0c.2,0,.5.2.7.3.1-.1.3-.2.4-.2s.3,0,.4.2c.1.1.2.3.2.6v.8c0,.3,0,.5-.2.6-.1.1-.2.2-.4.2s-.3,0-.4-.1c0,0-.1-.2-.2-.4,0-.2,0-.3-.2-.4-.1-.1-.3-.3-.5-.3-.2,0-.4-.1-.7-.1-.4,0-.7,0-.9.3-.2.2-.3.4-.3.6s0,.3.1.4c0,.1.2.2.4.3.1,0,.5.1,1,.2.6.1,1,.2,1.3.4.3.1.6.3.8.6.2.3.3.6.3,1s-.2,1-.6,1.3c-.5.4-1.2.6-1.9.6s-.6,0-.9-.1-.6-.2-.8-.3Z"/>
    </g>
    <g class="st1">
      <path class="st2" d="M1031.9,76.6v3.3h.4c.3,0,.5,0,.6.2.1.1.2.2.2.4s0,.3-.2.4c-.1.1-.3.2-.6.2h-1.4c-.3,0-.5,0-.6-.2-.1-.1-.2-.2-.2-.4s0-.3.2-.4c.1-.1.3-.2.5-.2v-4.3h-.2c-.3,0-.5,0-.6-.2-.1-.1-.2-.2-.2-.4s0-.3.2-.4c.1-.1.3-.2.6-.2h1.3s2.8,4.4,2.8,4.4v-3.3h-.4c-.3,0-.5,0-.6-.2-.1-.1-.2-.2-.2-.4s0-.3.2-.4c.1-.1.3-.2.6-.2h1.4c.3,0,.5,0,.6.2.1.1.2.2.2.4s0,.3-.2.4c-.1.1-.3.2-.5.2v5.4h-1.1l-2.8-4.4Z"/>
    </g>
    <g class="st1">
      <path class="st2" d="M1000.1,46.3v1.6h2.8v-.6c0-.3,0-.5.2-.6.1-.1.2-.2.4-.2s.3,0,.4.2c.1.1.2.3.2.6v1.7h-5.2c-.3,0-.5,0-.6-.2-.1-.1-.2-.2-.2-.4s0-.3.2-.4c.1-.1.3-.2.6-.2h.2v-4.3h-.2c-.3,0-.5,0-.6-.2-.1-.1-.2-.2-.2-.4s0-.3.2-.4c.1-.1.3-.2.6-.2h4.9v1.7c0,.3,0,.4-.2.6,0,.1-.2.2-.4.2s-.3,0-.4-.2c-.1-.1-.2-.3-.2-.6v-.6h-2.6v1.6h1c0-.3,0-.5,0-.6.1-.2.3-.3.5-.3s.3,0,.4.2c.1.1.2.3.2.6v1.3c0,.2,0,.4,0,.5-.1.2-.3.3-.5.3s-.4,0-.5-.3c0,0,0-.3,0-.6h-1Z"/>
    </g>
    <g class="st1">
      <path class="st2" d="M1065.2,45.9l-1,3.1h-1.2l-.7-5.4c-.2,0-.3,0-.4-.2s-.1-.2-.1-.4,0-.3.2-.4c.1-.1.3-.2.6-.2h1.5c.3,0,.5,0,.6.2.1.1.2.2.2.4s0,.3-.2.4c-.1.1-.3.2-.6.2h-.6l.4,3.1.9-2.6h1.1l.9,2.6.4-3.1h-.6c-.3,0-.5,0-.6-.2-.1-.1-.2-.2-.2-.4s0-.3.2-.4c.1-.1.3-.2.6-.2h1.5c.3,0,.5,0,.6.2.1.1.2.2.2.4s0,.3-.1.4c0,0-.2.2-.4.2l-.6,5.4h-1.2l-1.1-3.1Z"/>
    </g>
  </g>
  <line class="st4" x1="136.7" y1="355.2" x2="103.3" y2="355.2"/>
  <line class="st4" x1="136.7" y1="170" x2="103.3" y2="170"/>
  <line class="st4" x1="788" y1="876.7" x2="788" y2="843.3"/>
  <line class="st4" x1="983.2" y1="876.7" x2="983.2" y2="843.3"/>
</svg>