<?xml version="1.0" encoding="UTF-8"?>
<svg id="Layer_1" xmlns="http://www.w3.org/2000/svg" version="1.1" viewBox="0 0 693.5 980">
  <!-- Generator: Adobe Illustrator 30.1.0, SVG Export Plug-In . SVG Version: 2.1.1 Build 136)  -->
  <defs>
    <style>
      .st0 {
        font-size: 22px;
      }

      .st0, .st1, .st2, .st3 {
        font-family: CourierNewPS-BoldMT, 'Courier New';
        font-weight: 700;
      }

      .st0, .st1, .st2, .st3, .st4 {
        isolation: isolate;
      }

      .st0, .st2, .st3, .st5 {
        fill: #1a1a2e;
      }

      .st6, .st7, .st8, .st9, .st10, .st11 {
        fill: none;
      }

      .st6, .st8, .st9 {
        stroke: #555;
      }

      .st7 {
        stroke-linecap: square;
        stroke-width: 4px;
      }

      .st7, .st10, .st11 {
        stroke: #1a1a2e;
      }

      .st8 {
        stroke-dasharray: 3 2;
        stroke-width: .8px;
      }

      .st9, .st11 {
        stroke-width: 1.5px;
      }

      .st1 {
        fill: #333;
      }

      .st1, .st2, .st4 {
        font-size: 11px;
      }

      .st3 {
        font-size: 26px;
      }

      .st12 {
        fill: #fefefe;
      }

      .st4 {
        fill: #666;
        font-family: CourierNewPSMT, 'Courier New';
      }
    </style>
  </defs>
  <rect class="st12" width="693.5" height="980"/>
  <text class="st0" transform="translate(241.2 32)"><tspan x="0" y="0">Upstairs Hallway</tspan></text>
  <text class="st4" transform="translate(519.1 972)"><tspan x="0" y="0">Door icons not to scale.</tspan></text>
  <path class="st7" d="M378.6,170h101.8v422.8h-101.8v277.2H100v-103.2h161.2v-280h117.4V170Z"/>
  <line class="st11" x1="404" y1="170" x2="454.9" y2="170"/>
  <path class="st11" d="M454.9,170c0-28.1-22.8-50.9-50.9-50.9"/>
  <line class="st11" x1="480.4" y1="235.1" x2="480.4" y2="286"/>
  <path class="st11" d="M426.9,222.1c0,28.1,22.8,50.9,50.9,50.9"/>
  <line class="st11" x1="480.4" y1="308.6" x2="480.4" y2="359.5"/>
  <path class="st11" d="M426.9,295.6c0,28.1,22.8,50.9,50.9,50.9"/>
  <line class="st11" x1="480.4" y1="434.4" x2="480.4" y2="485.4"/>
  <path class="st11" d="M426.9,421.5c0,28.1,22.8,50.9,50.9,50.9"/>
  <line class="st11" x1="378.6" y1="650.8" x2="378.6" y2="701.7"/>
  <path class="st11" d="M328.5,664.9c0,28.1,22.8,50.9,50.9,50.9"/>
  <line class="st11" x1="261.2" y1="534.8" x2="261.2" y2="483.9"/>
  <path class="st11" d="M312.1,545.2h0c0-28.1-22.8-50.9-50.9-50.9"/>
  <line class="st11" x1="261.2" y1="655.1" x2="261.2" y2="706"/>
  <path class="st11" d="M312.1,665.4h0c0,28.1-22.8,50.9-50.9,50.9"/>
  <line class="st8" x1="261.2" y1="766.8" x2="378.6" y2="766.8"/>
  <text class="st3" transform="translate(184 823.3)"><tspan x="0" y="0">Landing</tspan></text>
  <line class="st6" x1="378.6" y1="170" x2="378.6" y2="127"/>
  <line class="st6" x1="480.4" y1="170" x2="480.4" y2="127"/>
  <line class="st6" x1="378.6" y1="135" x2="480.4" y2="135"/>
  <line class="st9" x1="378.6" y1="129" x2="378.6" y2="141"/>
  <line class="st9" x1="480.4" y1="129" x2="480.4" y2="141"/>
  <line class="st6" x1="480.4" y1="170" x2="523.4" y2="170"/>
  <line class="st6" x1="480.4" y1="592.8" x2="523.4" y2="592.8"/>
  <line class="st6" x1="515.4" y1="170" x2="515.4" y2="592.8"/>
  <line class="st9" x1="509.4" y1="170" x2="521.4" y2="170"/>
  <line class="st9" x1="509.4" y1="592.8" x2="521.4" y2="592.8"/>
  <line class="st6" x1="378.6" y1="592.8" x2="378.6" y2="635.8"/>
  <line class="st6" x1="480.4" y1="592.8" x2="480.4" y2="635.8"/>
  <line class="st6" x1="378.6" y1="627.8" x2="480.4" y2="627.8"/>
  <line class="st9" x1="378.6" y1="621.8" x2="378.6" y2="633.8"/>
  <line class="st9" x1="480.4" y1="621.8" x2="480.4" y2="633.8"/>
  <line class="st6" x1="378.6" y1="592.8" x2="443.6" y2="592.8"/>
  <line class="st6" x1="378.6" y1="870" x2="443.6" y2="870"/>
  <line class="st6" x1="435.6" y1="592.8" x2="435.6" y2="870"/>
  <line class="st9" x1="429.6" y1="592.8" x2="441.6" y2="592.8"/>
  <line class="st9" x1="429.6" y1="870" x2="441.6" y2="870"/>
  <line class="st6" x1="100" y1="870" x2="100" y2="913"/>
  <line class="st6" x1="378.6" y1="870" x2="378.6" y2="913"/>
  <line class="st6" x1="100" y1="905" x2="378.6" y2="905"/>
  <line class="st9" x1="100" y1="899" x2="100" y2="911"/>
  <line class="st9" x1="378.6" y1="899" x2="378.6" y2="911"/>
  <line class="st6" x1="100" y1="766.8" x2="57" y2="766.8"/>
  <line class="st6" x1="100" y1="870" x2="57" y2="870"/>
  <line class="st6" x1="65" y1="766.8" x2="65" y2="870"/>
  <line class="st9" x1="59" y1="766.8" x2="71" y2="766.8"/>
  <line class="st9" x1="59" y1="870" x2="71" y2="870"/>
  <line class="st6" x1="100" y1="766.8" x2="100" y2="723.8"/>
  <line class="st6" x1="261.2" y1="766.8" x2="261.2" y2="723.8"/>
  <line class="st6" x1="100" y1="731.8" x2="261.2" y2="731.8"/>
  <line class="st9" x1="100" y1="725.8" x2="100" y2="737.8"/>
  <line class="st9" x1="261.2" y1="725.8" x2="261.2" y2="737.8"/>
  <line class="st6" x1="261.2" y1="486.8" x2="196.2" y2="486.8"/>
  <line class="st6" x1="261.2" y1="766.8" x2="196.2" y2="766.8"/>
  <line class="st6" x1="204.2" y1="486.8" x2="204.2" y2="766.8"/>
  <line class="st9" x1="198.2" y1="486.8" x2="210.2" y2="486.8"/>
  <line class="st9" x1="198.2" y1="766.8" x2="210.2" y2="766.8"/>
  <line class="st6" x1="261.2" y1="486.8" x2="261.2" y2="443.8"/>
  <line class="st6" x1="378.6" y1="486.8" x2="378.6" y2="443.8"/>
  <line class="st6" x1="261.2" y1="451.8" x2="378.6" y2="451.8"/>
  <line class="st9" x1="261.2" y1="445.8" x2="261.2" y2="457.8"/>
  <line class="st9" x1="378.6" y1="445.8" x2="378.6" y2="457.8"/>
  <line class="st6" x1="378.6" y1="170" x2="335.6" y2="170"/>
  <line class="st6" x1="378.6" y1="486.8" x2="335.6" y2="486.8"/>
  <line class="st6" x1="343.6" y1="170" x2="343.6" y2="486.8"/>
  <line class="st9" x1="337.6" y1="170" x2="349.6" y2="170"/>
  <line class="st9" x1="337.6" y1="486.8" x2="349.6" y2="486.8"/>
  <rect class="st12" x="399.5" y="120" width="60" height="14"/>
  <text class="st1" transform="translate(413 130)"><tspan x="0" y="0">6&apos;-0&quot;</tspan></text>
  <rect class="st12" x="521.4" y="375.4" width="54" height="14"/>
  <text class="st1" transform="translate(500.3 385.4)"><tspan x="0" y="0">24&apos;-11&quot;</tspan></text>
  <rect class="st12" x="399.5" y="630.8" width="60" height="14"/>
  <text class="st1" transform="translate(413 640.8)"><tspan x="0" y="0">6&apos;-0&quot;</tspan></text>
  <rect class="st12" x="441.6" y="725.4" width="54" height="14"/>
  <text class="st1" transform="translate(423.8 735.4)"><tspan x="0" y="0">16&apos;-4&quot;</tspan></text>
  <rect class="st12" x="209.3" y="908" width="60" height="14"/>
  <text class="st1" transform="translate(219.5 918)"><tspan x="0" y="0">16&apos;-5&quot;</tspan></text>
  <rect class="st12" x="5" y="812.4" width="54" height="14"/>
  <text class="st1" transform="translate(40.5 822.4)"><tspan x="0" y="0">6&apos;-1&quot;</tspan></text>
  <rect class="st12" x="150.6" y="716.8" width="60" height="14"/>
  <text class="st1" transform="translate(164.1 726.8)"><tspan x="0" y="0">9&apos;-6&quot;</tspan></text>
  <rect class="st12" x="144.2" y="620.8" width="54" height="14"/>
  <text class="st1" transform="translate(176.4 630.8)"><tspan x="0" y="0">16&apos;-6&quot;</tspan></text>
  <rect class="st12" x="289.9" y="436.8" width="60" height="14"/>
  <text class="st1" transform="translate(300.1 446.8)"><tspan x="0" y="0">6&apos;-11&quot;</tspan></text>
  <rect class="st12" x="283.6" y="322.4" width="54" height="14"/>
  <text class="st1" transform="translate(315.8 332.4)"><tspan x="0" y="0">18&apos;-8&quot;</tspan></text>
  <g>
    <line class="st10" x1="643.5" y1="23" x2="643.5" y2="67"/>
    <line class="st10" x1="621.5" y1="45" x2="665.5" y2="45"/>
    <polygon class="st5" points="643.5 19 639.5 27 647.5 27 643.5 19"/>
    <polygon class="st5" points="643.5 71 639.5 63 647.5 63 643.5 71"/>
    <polygon class="st5" points="617.5 45 625.5 41 625.5 49 617.5 45"/>
    <polygon class="st5" points="669.5 45 661.5 41 661.5 49 669.5 45"/>
    <text class="st2" transform="translate(640.2 15)"><tspan x="0" y="0">S</tspan></text>
    <text class="st2" transform="translate(640.2 81)"><tspan x="0" y="0">N</tspan></text>
    <text class="st2" transform="translate(608.2 49)"><tspan x="0" y="0">E</tspan></text>
    <text class="st2" transform="translate(672.2 49)"><tspan x="0" y="0">W</tspan></text>
  </g>
</svg>