<?xml version="1.0" encoding="UTF-8"?>
<svg id="Layer_2" data-name="Layer 2" xmlns="http://www.w3.org/2000/svg" viewBox="0 0 591.98 516.79">
  <defs>
    <style>
      .cls-1 {
        fill: #a91e23;
      }

      .cls-1, .cls-2, .cls-3, .cls-4, .cls-5 {
        stroke: #231f20;
        stroke-miterlimit: 10;
        stroke-width: 3px;
      }

      .cls-2 {
        fill: #252e67;
      }

      .cls-3 {
        fill: #fcfdff;
      }

      .cls-4 {
        fill: #fff;
      }

      .cls-5 {
        fill: #f5a71c;
      }

      .cls-6 {
        fill: #aa1f23;
      }
    </style>
  </defs>
  <g id="Layer_1-2" data-name="Layer 1">
    <g>
      <path class="cls-2" d="M294.8,1.71l-147.89,255.15L2.57,1.5l292.23.21ZM162.94,94.72c-.37-1.65-1.83-2.42-3.27-2.42l-19.16-.06c-2.27,0-4.03-1.44-4.03-3.77.34-30.88-4.93-21.12,30.75-22.78,1.79,0,3.31-1.25,3.54-2.93.36-2.62.66-7.38-3.19-7.39l-26.88-.06c-4.22,0-8.18-.35-12.32.23-1.57.22-2.37,2.33-2.37,3.96.87,1.52-2.04,73.75,1.67,72.65,3.09,1.43,8.97,1.33,8.76-3.29,0,0,.06-22.72.06-22.72,0-2.04,1.6-3.3,3.49-3.33,0,0,19.68-.28,19.68-.28,4.06.1,3.8-4.89,3.26-7.81Z"/>
      <path class="cls-3" d="M162.94,94.72c.42,1.86.34,3.95-.07,5.71-.33,1.45-1.84,2.08-3.19,2.1l-19.68.28c-1.89.03-3.48,1.28-3.49,3.33l-.06,22.72c0,1.06-.46,2.81-1.37,3.24-2.28,1.09-5.08,1.16-7.39.05-1.16-.56-1.68-2.48-1.68-3.91V59.5c.01-1.63.81-3.74,2.39-3.96,4.14-.58,8.1-.24,12.32-.23l26.88.06c3.85,0,3.55,4.77,3.19,7.39-.23,1.68-1.76,2.92-3.54,2.93l-27.13.06c-2,0-3.57,1.4-3.57,3.5l-.05,19.22c0,2.34,1.76,3.77,4.03,3.77l19.16.06c1.44,0,2.9.77,3.27,2.42Z"/>
      <path class="cls-5" d="M441.76,256.63L294.8,1.71l294.58-.1-147.62,255.02ZM451.37,122.48c-23.35,6.94-30.82-26.96-23.64-43.37,3.02-8.07,10-16.19,19.51-14.97s11.7,9.5,14.77,9.1c2.08-.27,3.93-1.48,5.49-2.66,2.93-2.24-.85-6.14-2.26-7.76-32.89-30.07-61.09,19.33-46.85,50.1,5.84,17.8,28.25,28.12,43.58,15.16,2.36-1.93,10.12-8.69,5.78-11.67-8.76-6.62-8.31,3.51-16.38,6.05Z"/>
      <path class="cls-4" d="M451.17,122.37c3.5-1.36,6.04-3.94,8.24-6.72,2.37-2.99,5.36-1.24,8.14.67,4.34,2.98-3.41,9.73-5.78,11.67-5.11,4.18-11.18,6.06-17.81,5.76-12.43-.57-21.29-9.89-25.76-20.92-4.91-12.13-4.72-25.62-.17-37.87,1.81-4.88,4.51-8.95,7.91-12.66,10.72-11.68,28.67-11.5,39.11.43,1.41,1.62,5.19,5.52,2.26,7.76-1.55,1.19-3.41,2.39-5.49,2.66-3.08.4-4.97-7.83-14.77-9.1-9.51-1.23-16.49,6.89-19.51,14.96-3.31,8.85-3.56,18.5-.68,27.5,3.37,10.52,12.25,20.54,24.31,15.87Z"/>
      <path class="cls-1" d="M441.56,257.52s-146.58,254-147.05,255.53l-147.19-255.52h294.24ZM316.6,387.98c7.4-9.04,6.61-22.08-1.36-30.35-1.38-1.43-1.3-3.34-.22-5,9.5-12.98.36-34.06-16.59-34.41-1.63.33-25.69-1.12-26.16.9-.49.67-.87,1.85-.87,2.94v69.91c0,2.35,1.76,3.67,3.89,3.66l25.37-.02c6.33,0,11.82-2.61,15.94-7.63Z"/>
      <path class="cls-4" d="M316.21,387.98c-4.11,5.03-9.61,7.63-15.94,7.63l-25.37.02c-2.13,0-3.89-1.31-3.89-3.66v-69.91c0-1.09.38-2.27.87-2.94.42-.57,1.75-1.02,2.66-1.02l23.5.11c7.71.04,14.74,5.39,17.93,11.6,3.94,7.67,3.14,15.96-1.34,22.81-1.09,1.66-1.16,3.57.22,5,7.96,8.28,8.75,21.31,1.36,30.35ZM284.74,351.64h11.55c6.52.02,11.57-4.9,11.68-11.18s-4.47-11.81-10.98-11.81h-12.4c-1.86-.01-3.11,1.61-3.12,3.36v16.24c0,1.72,1.27,3.4,3.26,3.4ZM300.31,385.24c3.16-.37,5.93-1.47,7.78-3.84,2.77-3.56,3.39-8.3,1.75-12.44s-5.13-6.69-9.56-6.81c-5.08-.15-10.06-.13-15.15,0-1.93.05-3.63,1.31-3.63,3.36l-.02,16.19c0,1.91,1.45,3.48,3.46,3.49l15.38.06Z"/>
      <path class="cls-6" d="M300.31,385.24l-15.38-.06c-2.01,0-3.46-1.58-3.46-3.49l.02-16.19c0-2.06,1.7-3.32,3.63-3.36,5.09-.13,10.08-.14,15.15,0,4.42.13,7.94,2.73,9.56,6.81s1.03,8.88-1.75,12.44c-1.85,2.37-4.62,3.47-7.78,3.84Z"/>
      <path class="cls-6" d="M284.74,351.64c-1.99,0-3.27-1.68-3.27-3.4v-16.24c0-1.75,1.26-3.37,3.12-3.37h12.4c6.51.02,11.09,5.68,10.98,11.82s-5.16,11.2-11.68,11.19h-11.55Z"/>
    </g>
  </g>
</svg>