<?xml version="1.0" encoding="UTF-8"?>
<svg id="Layer_2" data-name="Layer 2" xmlns="http://www.w3.org/2000/svg" viewBox="0 0 8468.74 341.79">
  <defs>
    <style>
      .cls-1 {
        fill: #ffae35;
      }
    </style>
  </defs>
  <g id="Layer_1-2" data-name="Layer 1">
    <g>
      <path class="cls-1" d="M5390.42,293.75c-3.79-2.24-8.42-4.95-14.06-8.25-15.31-8.95-38.06-22.17-79.31-53.79-41.24-31.62-100.98-81.65-144.15-115.7-26.72-21.07-47.09-36.03-64.98-48.03-11.02-7.39-21.1-13.67-31.14-19.57-26.35-15.48-52.45-28.36-76.38-36.39-23.93-8.03-45.68-11.21-67.51-11.88-21.83-.67-43.75,1.17-57.31,2.51-13.55,1.34-18.74,2.17-25.77,3.68-7.03,1.5-15.9,3.68-26.44,8.2-5.94,2.54-12.41,5.83-18.01,8.83-4.35,2.33-8.18,4.48-10.85,5.98l-6.11,3.43-.03.02c.95.49,1.9.98,2.86,1.48l5.54,2.94.37.19c2.73,1.47,5.47,2.97,8.22,4.51,3.77,2.11,7.55,4.28,11.34,6.5,26.35,15.48,52.96,33.55,96.12,67.6,43.17,34.05,102.9,84.08,144.14,115.7,5.6,4.29,10.86,8.25,15.8,11.9.39.24.85.57,1.41.98,1.65,1.19,4.16,3,7.07,5.08l.03-.04.52.43c2.82,2.01,5.98,4.25,9.09,6.42,6.28,4.38,12.32,8.45,17.04,11.56l.63.41c4.81,3.16,8.13,5.26,11.93,7.59,3.81,2.33,8.11,4.91,11.72,7.06,3.62,2.14,6.55,3.86,9.08,5.34,2.53,1.48,4.66,2.73,12.68,7.4,8.02,4.67,21.92,12.76,35.82,19.9,13.9,7.15,27.79,13.36,42.06,17.47,14.27,4.11,28.92,6.12,39.34,7.22,10.41,1.1,16.59,1.29,21.3,1.35,4.71.05,7.96-.03,9.58-.07.4,0,.71-.02.88,0,16.18-.7,32.59-3.22,51.77-9.1,19.61-6.01,42.12-15.53,55.72-21.41,1.54-.67,2.97-1.29,4.26-1.85l12.72-5.52-3.93-2.34c-2.48-1.48-6.54-3.89-13.05-7.73Z"/>
      <path class="cls-1" d="M6600.53,293.75c-3.79-2.24-8.42-4.95-14.06-8.25-15.31-8.95-38.06-22.17-79.31-53.79-41.24-31.62-100.98-81.65-144.15-115.7-26.72-21.07-47.09-36.03-64.98-48.03-11.02-7.39-21.1-13.67-31.14-19.57-26.35-15.48-52.45-28.36-76.38-36.39-23.93-8.03-45.68-11.21-67.51-11.88-21.83-.67-43.75,1.17-57.31,2.51s-18.74,2.17-25.77,3.68c-7.03,1.5-15.9,3.68-26.44,8.2-5.94,2.54-12.41,5.83-18.01,8.83-4.35,2.33-8.18,4.48-10.85,5.98l-6.11,3.43-.03.02c.95.49,1.9.98,2.86,1.48l5.54,2.94.37.19c2.73,1.47,5.47,2.98,8.22,4.51,3.77,2.11,7.55,4.28,11.34,6.5,26.35,15.48,52.96,33.55,96.12,67.6,43.17,34.05,102.9,84.08,144.14,115.7,5.6,4.29,10.86,8.25,15.8,11.9.39.24.85.57,1.41.98,1.65,1.19,4.16,3,7.07,5.08l.03-.04.52.43c2.82,2.01,5.98,4.25,9.09,6.42,6.28,4.38,12.32,8.45,17.04,11.56l.63.41c4.81,3.16,8.12,5.26,11.93,7.59,3.81,2.33,8.11,4.91,11.72,7.06,3.62,2.14,6.55,3.86,9.08,5.34,2.53,1.48,4.66,2.73,12.68,7.4,8.02,4.67,21.92,12.76,35.82,19.9,13.9,7.15,27.79,13.36,42.06,17.47,14.27,4.11,28.92,6.12,39.34,7.22,10.41,1.1,16.59,1.29,21.3,1.35,4.71.05,7.96-.03,9.58-.07.4,0,.71-.02.88,0,16.18-.7,32.59-3.22,51.77-9.1,19.61-6.01,42.12-15.53,55.72-21.41,1.54-.67,2.97-1.29,4.26-1.85l12.72-5.52-3.93-2.34c-2.48-1.48-6.54-3.89-13.05-7.73Z"/>
      <path class="cls-1" d="M6298.03,293.75c-3.79-2.24-8.42-4.95-14.06-8.25-15.31-8.95-38.06-22.17-79.31-53.79-41.24-31.62-100.98-81.65-144.15-115.7-26.75-21.1-47.14-36.06-65.05-48.08-10.99-7.37-21.05-13.64-31.08-19.52-26.35-15.48-52.45-28.36-76.38-36.39-23.93-8.03-45.68-11.21-67.51-11.88-21.84-.67-43.75,1.17-57.31,2.51-13.55,1.34-18.74,2.17-25.77,3.68-7.03,1.5-15.9,3.68-26.44,8.2-5.94,2.54-12.41,5.83-18.02,8.83-4.35,2.33-8.18,4.48-10.85,5.98l-6.11,3.43-.03.02c.95.49,1.9.98,2.86,1.48l5.54,2.94.37.19c2.73,1.47,5.47,2.98,8.22,4.51,3.77,2.11,7.55,4.28,11.34,6.5,26.35,15.48,52.96,33.55,96.12,67.6,43.17,34.05,102.9,84.08,144.14,115.7,5.6,4.29,10.86,8.25,15.8,11.9.39.24.85.57,1.41.98,1.65,1.19,4.16,3,7.07,5.08l.03-.04.52.43c2.82,2.01,5.98,4.25,9.09,6.42,6.25,4.36,12.26,8.41,16.98,11.52l.69.46c4.81,3.16,8.13,5.26,11.93,7.59,3.81,2.33,8.1,4.91,11.72,7.06,3.62,2.14,6.55,3.86,9.08,5.34,2.53,1.48,4.66,2.73,12.68,7.4,8.02,4.67,21.92,12.76,35.82,19.9,13.9,7.15,27.79,13.36,42.06,17.47,14.27,4.11,28.92,6.12,39.34,7.22,10.41,1.1,16.59,1.29,21.3,1.35,4.71.05,7.96-.03,9.58-.07.4,0,.71-.02.88,0,16.18-.7,32.59-3.22,51.77-9.1,19.61-6.01,42.12-15.53,55.72-21.41,1.54-.67,2.97-1.29,4.26-1.85l12.72-5.52-3.93-2.34c-2.48-1.48-6.54-3.89-13.05-7.73Z"/>
      <path class="cls-1" d="M7205.58,293.75c-3.79-2.23-8.42-4.95-14.05-8.25-15.31-8.95-38.06-22.17-79.31-53.79-41.24-31.62-100.98-81.65-144.15-115.7-26.72-21.08-47.09-36.03-64.99-48.04-11.02-7.39-21.09-13.67-31.13-19.56-26.35-15.48-52.45-28.36-76.38-36.39-23.93-8.03-45.68-11.21-67.51-11.88-21.83-.67-43.75,1.17-57.31,2.51-13.55,1.34-18.74,2.17-25.77,3.68-7.03,1.5-15.9,3.68-26.44,8.2-5.94,2.54-12.41,5.83-18.02,8.83-4.35,2.32-8.18,4.47-10.84,5.97l-6.11,3.43-.03.02c.95.49,1.9.98,2.86,1.48l5.54,2.94.37.19c2.73,1.47,5.47,2.97,8.21,4.51,3.77,2.11,7.56,4.28,11.34,6.51,26.35,15.48,52.96,33.55,96.12,67.6,43.17,34.05,102.9,84.08,144.14,115.7,5.6,4.29,10.86,8.25,15.8,11.9.39.24.85.57,1.41.98,1.65,1.19,4.16,3,7.07,5.08l.03-.04.52.43c2.82,2.01,5.98,4.25,9.09,6.42,6.28,4.38,12.31,8.44,17.04,11.56l.63.42c4.81,3.16,8.13,5.26,11.93,7.59,3.81,2.33,8.1,4.91,11.72,7.06,3.62,2.14,6.55,3.86,9.08,5.34,2.53,1.48,4.66,2.73,12.68,7.4,8.02,4.67,21.92,12.76,35.82,19.9s27.79,13.36,42.06,17.47c14.27,4.11,28.92,6.12,39.33,7.22s16.59,1.29,21.3,1.35c4.71.05,7.96-.03,9.58-.07.4,0,.71-.02.88,0,16.18-.7,32.59-3.22,51.77-9.1,19.61-6.01,42.12-15.53,55.71-21.41,1.54-.67,2.97-1.29,4.27-1.85l12.72-5.52-3.93-2.34c-2.49-1.48-6.54-3.9-13.05-7.73Z"/>
      <path class="cls-1" d="M6903.09,293.75c-3.79-2.23-8.42-4.95-14.05-8.25-15.31-8.95-38.06-22.17-79.31-53.79-41.24-31.62-100.98-81.65-144.15-115.7-26.75-21.1-47.14-36.07-65.05-48.08-10.99-7.37-21.05-13.63-31.07-19.52-26.35-15.48-52.45-28.36-76.38-36.39-23.93-8.03-45.68-11.21-67.51-11.88-21.83-.67-43.75,1.17-57.31,2.51s-18.74,2.17-25.77,3.68c-7.03,1.5-15.9,3.68-26.44,8.2-5.94,2.54-12.41,5.83-18.02,8.83-4.35,2.32-8.18,4.47-10.84,5.97l-6.11,3.43-.03.02c.95.49,1.9.98,2.86,1.48l5.54,2.94.37.19c2.73,1.47,5.47,2.97,8.21,4.51,3.77,2.11,7.55,4.28,11.34,6.51,26.35,15.48,52.96,33.55,96.12,67.6,43.17,34.05,102.9,84.08,144.14,115.7,5.6,4.29,10.86,8.25,15.8,11.9.39.24.85.57,1.41.98,1.65,1.19,4.16,3,7.07,5.08l.03-.04.52.43c2.82,2.01,5.98,4.25,9.09,6.42,6.25,4.36,12.26,8.41,16.97,11.52l.7.46c4.81,3.16,8.12,5.26,11.93,7.59,3.81,2.33,8.1,4.91,11.72,7.06,3.62,2.14,6.55,3.86,9.08,5.34,2.53,1.48,4.66,2.73,12.68,7.4,8.02,4.67,21.92,12.76,35.82,19.9s27.79,13.36,42.06,17.47c14.27,4.11,28.92,6.12,39.33,7.22s16.59,1.29,21.3,1.35c4.71.05,7.96-.03,9.58-.07.4,0,.71-.02.88,0,16.18-.7,32.59-3.22,51.77-9.1,19.61-6.01,42.12-15.53,55.71-21.41,1.54-.67,2.97-1.29,4.27-1.85l12.72-5.52-3.93-2.34c-2.49-1.48-6.54-3.9-13.05-7.73Z"/>
      <path class="cls-1" d="M5087.92,293.75c-3.79-2.24-8.42-4.95-14.06-8.25-15.31-8.95-38.06-22.17-79.31-53.79-41.24-31.62-100.98-81.65-144.15-115.7-26.75-21.1-47.14-36.06-65.05-48.08-10.99-7.37-21.05-13.64-31.08-19.52-26.35-15.48-52.45-28.36-76.38-36.39-23.93-8.03-45.68-11.21-67.51-11.88-21.83-.67-43.75,1.17-57.31,2.51s-18.74,2.17-25.77,3.68c-7.03,1.5-15.9,3.68-26.44,8.2-5.94,2.54-12.41,5.83-18.01,8.83-4.35,2.33-8.18,4.48-10.85,5.98l-6.11,3.43-.03.02c.95.49,1.9.98,2.86,1.48l5.54,2.94.37.19c2.73,1.47,5.47,2.98,8.22,4.51,3.77,2.11,7.55,4.28,11.34,6.5,26.35,15.48,52.96,33.55,96.12,67.6,43.17,34.05,102.9,84.08,144.14,115.7,5.6,4.29,10.86,8.25,15.8,11.9.39.24.85.57,1.41.98,1.65,1.19,4.16,3,7.07,5.08l.03-.04.52.43c2.82,2.01,5.98,4.25,9.09,6.42,6.25,4.36,12.27,8.41,16.98,11.52l.69.46c4.81,3.16,8.13,5.26,11.93,7.59,3.81,2.33,8.1,4.91,11.72,7.06,3.61,2.14,6.55,3.86,9.08,5.34,2.53,1.48,4.66,2.73,12.68,7.4,8.02,4.67,21.92,12.76,35.82,19.9s27.79,13.36,42.06,17.47c14.27,4.11,28.92,6.12,39.34,7.22,10.41,1.1,16.59,1.29,21.3,1.35,4.71.05,7.96-.03,9.58-.07.4,0,.71-.02.88,0,16.18-.7,32.59-3.22,51.77-9.1,19.61-6.01,42.12-15.53,55.72-21.41,1.54-.67,2.97-1.29,4.26-1.85l12.72-5.52-3.93-2.34c-2.48-1.48-6.54-3.89-13.05-7.73Z"/>
      <path class="cls-1" d="M5692.98,293.75c-3.79-2.24-8.42-4.95-14.05-8.25-15.31-8.95-38.07-22.17-79.31-53.79-41.24-31.62-100.98-81.65-144.15-115.7-26.75-21.1-47.14-36.06-65.05-48.08-10.99-7.37-21.05-13.63-31.07-19.52-26.35-15.48-52.45-28.36-76.38-36.39-23.93-8.03-45.68-11.21-67.51-11.88-21.83-.67-43.75,1.17-57.31,2.51-13.55,1.34-18.74,2.17-25.77,3.68-7.03,1.5-15.9,3.68-26.44,8.2-5.94,2.54-12.41,5.83-18.02,8.83-4.35,2.32-8.18,4.47-10.84,5.97l-6.11,3.43-.03.02c.95.49,1.9.98,2.86,1.48l5.54,2.94.37.19c2.73,1.47,5.47,2.97,8.22,4.51,3.77,2.11,7.55,4.28,11.34,6.5,26.35,15.48,52.96,33.55,96.12,67.6,43.17,34.05,102.9,84.08,144.14,115.7,5.6,4.29,10.86,8.25,15.8,11.9.39.24.85.57,1.41.98,1.65,1.19,4.16,3,7.07,5.08l.03-.04.52.43c2.82,2.01,5.98,4.25,9.09,6.42,6.25,4.36,12.26,8.41,16.97,11.52l.7.46c4.81,3.16,8.13,5.26,11.93,7.59,3.81,2.33,8.11,4.91,11.72,7.06,3.62,2.14,6.55,3.86,9.08,5.34,2.53,1.48,4.66,2.73,12.68,7.4,8.02,4.67,21.92,12.76,35.82,19.9,13.9,7.15,27.79,13.36,42.06,17.47,14.27,4.11,28.92,6.12,39.34,7.22,10.41,1.1,16.59,1.29,21.3,1.35,4.71.05,7.96-.03,9.58-.07.4,0,.71-.02.88,0,16.18-.7,32.59-3.22,51.77-9.1,19.61-6.01,42.12-15.53,55.71-21.41,1.54-.67,2.97-1.29,4.27-1.85l12.72-5.52-3.93-2.34c-2.49-1.48-6.54-3.9-13.05-7.73Z"/>
      <path class="cls-1" d="M5995.47,293.75c-3.79-2.23-8.42-4.95-14.05-8.25-15.31-8.95-38.07-22.17-79.31-53.79-41.24-31.62-100.98-81.65-144.14-115.7-26.72-21.08-47.09-36.03-64.99-48.04-11.02-7.39-21.09-13.67-31.13-19.56-26.35-15.48-52.45-28.36-76.38-36.39-23.93-8.03-45.68-11.21-67.51-11.88-21.83-.67-43.75,1.17-57.31,2.51s-18.74,2.17-25.77,3.68c-7.03,1.5-15.9,3.68-26.44,8.2-5.94,2.54-12.41,5.83-18.02,8.83-4.35,2.32-8.18,4.47-10.84,5.97l-6.11,3.43-.03.02c.95.49,1.9.98,2.86,1.48l5.54,2.94.37.19c2.73,1.47,5.47,2.97,8.21,4.51,3.77,2.11,7.55,4.28,11.34,6.5,26.35,15.48,52.96,33.55,96.12,67.6,43.17,34.05,102.9,84.08,144.14,115.7,5.6,4.29,10.86,8.25,15.8,11.9.39.24.85.57,1.41.98,1.65,1.19,4.16,3,7.07,5.08l.03-.04.52.43c2.82,2.01,5.98,4.25,9.09,6.42,6.28,4.38,12.32,8.44,17.04,11.56l.63.42c4.81,3.16,8.13,5.26,11.93,7.59,3.81,2.33,8.11,4.91,11.72,7.06,3.62,2.14,6.55,3.86,9.08,5.34,2.53,1.48,4.66,2.73,12.68,7.4,8.02,4.67,21.92,12.76,35.82,19.9,13.9,7.15,27.79,13.36,42.06,17.47,14.27,4.11,28.92,6.12,39.34,7.22,10.41,1.1,16.59,1.29,21.3,1.35,4.71.05,7.96-.03,9.58-.07.41,0,.71-.02.88,0,16.18-.7,32.59-3.22,51.77-9.1,19.61-6.01,42.12-15.53,55.71-21.41,1.54-.67,2.97-1.29,4.27-1.85l12.72-5.52-3.93-2.34c-2.48-1.48-6.54-3.9-13.05-7.73Z"/>
      <path class="cls-1" d="M8415.7,67.94c-10.99-7.37-21.05-13.64-31.08-19.52-26.35-15.48-52.45-28.36-76.38-36.39-23.93-8.03-45.68-11.21-67.51-11.88-21.83-.67-43.75,1.17-57.31,2.51-13.55,1.34-18.74,2.17-25.77,3.68-7.03,1.5-15.9,3.68-26.44,8.2-5.94,2.54-12.41,5.83-18.01,8.83-4.35,2.33-8.18,4.48-10.85,5.98l-6.11,3.43-.03.02c.95.49,1.9.98,2.86,1.48l5.54,2.94.37.19c2.73,1.47,5.47,2.97,8.22,4.51,3.77,2.11,7.55,4.28,11.34,6.5,26.35,15.48,52.96,33.55,96.12,67.6,43.17,34.05,102.9,84.08,144.14,115.7,5.6,4.29,10.86,8.25,15.8,11.9.39.24.85.57,1.41.98,1.65,1.19,4.16,3,7.07,5.08l.03-.04.52.43c2.82,2.01,5.98,4.25,9.09,6.42,6.25,4.36,12.26,8.41,16.98,11.52l.69.46c4.81,3.16,8.13,5.26,11.93,7.59,1.74,1.06,3.57,2.18,5.4,3.28,2.18,1.31,4.35,2.61,6.32,3.78,3.62,2.14,6.55,3.86,9.08,5.34,2.53,1.48,4.66,2.73,12.68,7.4,1.98,1.15,4.33,2.52,6.94,4.03V106.62c-13.08-10.13-24.56-18.71-35.01-26.18-6.35-4.54-12.31-8.67-18.03-12.5Z"/>
      <path class="cls-1" d="M8415.7,293.75c-3.79-2.23-8.42-4.95-14.05-8.25-15.31-8.95-38.06-22.17-79.31-53.79-41.24-31.62-100.98-81.65-144.15-115.7-26.72-21.08-47.09-36.03-64.99-48.04-11.02-7.39-21.1-13.67-31.14-19.56-26.35-15.48-52.45-28.36-76.38-36.39-23.93-8.03-45.68-11.21-67.51-11.88-21.83-.67-43.75,1.17-57.31,2.51s-18.74,2.17-25.77,3.68c-7.03,1.5-15.89,3.68-26.44,8.2-5.94,2.55-12.42,5.84-18.03,8.84-4.34,2.32-8.17,4.47-10.84,5.97l-6.11,3.43-.03.02c.95.49,1.9.98,2.86,1.48l5.54,2.94.37.19c2.73,1.47,5.47,2.97,8.21,4.51,3.77,2.11,7.56,4.28,11.35,6.51,26.35,15.48,52.96,33.55,96.12,67.6,43.17,34.05,102.9,84.08,144.14,115.7,5.6,4.29,10.86,8.25,15.8,11.9.39.24.85.57,1.41.98,1.65,1.19,4.16,3,7.07,5.08l.03-.04.52.43c2.82,2.01,5.98,4.25,9.09,6.42,6.28,4.38,12.32,8.44,17.04,11.56l.63.42c4.81,3.16,8.12,5.26,11.93,7.59,3.81,2.33,8.11,4.91,11.72,7.06,3.62,2.14,6.55,3.86,9.08,5.34,2.53,1.48,4.66,2.73,12.68,7.4,8.02,4.67,21.92,12.76,35.82,19.9s27.79,13.36,42.06,17.47c14.27,4.11,28.92,6.12,39.33,7.22s16.59,1.29,21.3,1.35c4.71.05,7.96-.03,9.58-.07.4,0,.71-.02.88,0,16.18-.7,32.59-3.22,51.77-9.1,19.61-6.01,42.12-15.53,55.71-21.41,1.54-.67,2.97-1.29,4.27-1.85l12.72-5.52-3.93-2.34c-2.49-1.48-6.54-3.9-13.05-7.73Z"/>
      <path class="cls-1" d="M4785.36,293.75c-3.79-2.24-8.42-4.95-14.05-8.25-15.31-8.95-38.06-22.17-79.31-53.79-41.24-31.62-100.98-81.65-144.15-115.7-26.72-21.08-47.09-36.03-64.99-48.04-11.02-7.39-21.09-13.67-31.14-19.56-26.35-15.48-52.45-28.36-76.38-36.39-23.93-8.03-45.68-11.21-67.51-11.88-21.83-.67-43.75,1.17-57.31,2.51-13.55,1.34-18.74,2.17-25.77,3.68-7.03,1.5-15.9,3.68-26.44,8.2-5.94,2.54-12.41,5.83-18.02,8.83-4.35,2.32-8.17,4.47-10.84,5.97l-6.11,3.43-.03.02c.95.49,1.9.98,2.86,1.48l5.54,2.94.37.19c2.73,1.47,5.47,2.97,8.21,4.51,3.77,2.11,7.56,4.28,11.34,6.51,26.35,15.48,52.96,33.55,96.12,67.6,43.17,34.05,102.9,84.08,144.14,115.7,5.6,4.29,10.86,8.25,15.8,11.9.39.24.85.57,1.41.98,1.65,1.19,4.16,3,7.07,5.08l.03-.04.52.43c2.82,2.01,5.98,4.25,9.09,6.42,6.28,4.38,12.32,8.44,17.04,11.56l.63.42c4.81,3.16,8.12,5.26,11.93,7.59,3.81,2.33,8.11,4.91,11.72,7.06,3.62,2.14,6.55,3.86,9.08,5.34,2.53,1.48,4.66,2.73,12.68,7.4,8.02,4.67,21.92,12.76,35.82,19.9,13.9,7.15,27.79,13.36,42.06,17.47,14.27,4.11,28.92,6.12,39.34,7.22,10.41,1.1,16.59,1.29,21.3,1.35,4.71.05,7.96-.03,9.58-.07.4,0,.71-.02.88,0,16.18-.7,32.59-3.22,51.77-9.1,19.61-6.01,42.12-15.53,55.71-21.41,1.54-.67,2.97-1.29,4.27-1.85l12.72-5.52-3.93-2.34c-2.49-1.48-6.54-3.9-13.05-7.73Z"/>
      <path class="cls-1" d="M7508.15,293.75c-3.79-2.24-8.42-4.95-14.06-8.25-15.31-8.95-38.07-22.17-79.31-53.79-41.24-31.62-100.98-81.65-144.15-115.7-26.75-21.1-47.14-36.06-65.05-48.07-10.99-7.37-21.05-13.64-31.08-19.52-26.35-15.48-52.45-28.36-76.38-36.39-23.93-8.03-45.68-11.21-67.51-11.88-21.83-.67-43.75,1.17-57.31,2.51s-18.74,2.17-25.77,3.68c-7.03,1.5-15.9,3.68-26.44,8.2-5.94,2.54-12.41,5.83-18.02,8.83-4.35,2.33-8.18,4.48-10.85,5.98l-6.11,3.43-.03.02c.95.49,1.9.98,2.86,1.48l5.54,2.94.37.19c2.73,1.47,5.47,2.98,8.22,4.51,3.77,2.11,7.55,4.28,11.34,6.5,26.35,15.48,52.96,33.55,96.12,67.6,43.17,34.05,102.9,84.08,144.14,115.7,5.6,4.29,10.86,8.25,15.8,11.9.39.24.85.57,1.41.98,1.65,1.19,4.16,3,7.07,5.08l.03-.04.52.43c2.82,2.01,5.98,4.25,9.09,6.42,6.25,4.36,12.26,8.41,16.98,11.52l.69.46c4.81,3.16,8.13,5.26,11.93,7.59,3.81,2.33,8.1,4.91,11.72,7.06,3.61,2.14,6.55,3.86,9.08,5.34,2.53,1.48,4.66,2.73,12.68,7.4,8.02,4.67,21.92,12.76,35.82,19.9s27.79,13.36,42.06,17.47c14.27,4.11,28.92,6.12,39.33,7.22,10.41,1.1,16.59,1.29,21.3,1.35,4.71.05,7.96-.03,9.58-.07.4,0,.71-.02.88,0,16.18-.7,32.59-3.22,51.77-9.1,19.61-6.01,42.13-15.53,55.72-21.41,1.54-.67,2.96-1.28,4.26-1.85l12.72-5.52-3.93-2.34c-2.48-1.48-6.54-3.89-13.04-7.73Z"/>
      <path class="cls-1" d="M247.47,293.75c-3.79-2.24-8.42-4.96-14.06-8.25-15.31-8.95-38.06-22.17-79.31-53.79-41.24-31.62-100.98-81.65-144.15-115.7-3.42-2.7-6.73-5.29-9.95-7.8v192.83c7.66,4.39,17.24,9.77,26.82,14.7,13.9,7.15,27.79,13.36,42.06,17.47,14.27,4.11,28.92,6.12,39.34,7.22,10.41,1.1,16.59,1.29,21.3,1.35,4.71.05,7.96-.03,9.58-.07.4,0,.71-.02.88,0,16.18-.7,32.59-3.22,51.77-9.1,19.61-6.01,42.13-15.53,55.72-21.41,1.54-.67,2.97-1.28,4.26-1.85l12.72-5.52-3.93-2.34c-2.48-1.48-6.54-3.89-13.04-7.73Z"/>
      <path class="cls-1" d="M7810.64,293.75c-3.79-2.24-8.42-4.96-14.06-8.25-15.31-8.95-38.06-22.17-79.31-53.79-41.24-31.62-100.98-81.65-144.15-115.7-26.71-21.07-47.08-36.02-64.98-48.03-11.02-7.39-21.1-13.67-31.15-19.57-26.35-15.48-52.45-28.36-76.38-36.39-23.93-8.03-45.68-11.21-67.51-11.88-21.83-.67-43.75,1.17-57.31,2.51-13.55,1.34-18.74,2.17-25.77,3.68-7.03,1.5-15.9,3.68-26.44,8.2-5.94,2.54-12.41,5.83-18.01,8.83-4.35,2.33-8.18,4.48-10.85,5.98l-6.11,3.43-.03.02c.95.49,1.9.98,2.86,1.48l5.54,2.94.37.19c2.73,1.47,5.47,2.98,8.22,4.51,3.77,2.11,7.55,4.28,11.34,6.5,26.35,15.48,52.96,33.55,96.12,67.6,43.17,34.05,102.9,84.08,144.14,115.7,5.6,4.29,10.86,8.25,15.8,11.9.39.24.85.57,1.41.98,1.65,1.19,4.16,3,7.07,5.08l.03-.04.52.43c2.82,2.01,5.98,4.25,9.09,6.42,6.28,4.38,12.33,8.45,17.05,11.57l.62.41c4.81,3.16,8.13,5.26,11.93,7.59,3.81,2.33,8.1,4.91,11.72,7.06,3.61,2.14,6.55,3.86,9.08,5.34,2.53,1.48,4.66,2.73,12.68,7.4,8.02,4.67,21.92,12.76,35.82,19.9,13.9,7.15,27.79,13.36,42.06,17.47,14.27,4.11,28.92,6.12,39.33,7.22s16.59,1.29,21.3,1.35c4.71.05,7.96-.03,9.58-.07.4,0,.71-.02.88,0,16.18-.7,32.59-3.22,51.77-9.1,19.61-6.01,42.13-15.53,55.72-21.41,1.54-.67,2.96-1.28,4.26-1.85l12.72-5.52-3.93-2.34c-2.48-1.48-6.54-3.89-13.04-7.73Z"/>
      <path class="cls-1" d="M8113.21,293.75c-3.79-2.24-8.42-4.95-14.05-8.25-15.31-8.95-38.06-22.17-79.31-53.79-41.24-31.62-100.98-81.65-144.15-115.7-26.75-21.1-47.15-36.07-65.06-48.08-10.99-7.37-21.04-13.63-31.06-19.51-26.35-15.48-52.45-28.36-76.38-36.39-23.93-8.03-45.68-11.21-67.51-11.88-21.83-.67-43.75,1.17-57.31,2.51-13.55,1.34-18.74,2.17-25.77,3.68-7.03,1.5-15.9,3.68-26.44,8.2-5.94,2.55-12.41,5.84-18.03,8.84-4.34,2.32-8.17,4.47-10.84,5.97l-6.11,3.43-.03.02c.95.49,1.9.98,2.86,1.48l5.54,2.94.37.19c2.73,1.47,5.47,2.97,8.21,4.51,3.77,2.11,7.56,4.28,11.35,6.51,26.35,15.48,52.96,33.55,96.12,67.6,43.17,34.05,102.9,84.08,144.14,115.7,5.6,4.29,10.86,8.25,15.8,11.9.39.24.85.57,1.41.98,1.65,1.19,4.16,3,7.07,5.08l.03-.04.52.43c2.82,2.01,5.98,4.25,9.09,6.42,6.25,4.36,12.26,8.4,16.96,11.51l.7.46c4.81,3.16,8.13,5.26,11.93,7.59,3.81,2.33,8.11,4.91,11.72,7.06,3.62,2.14,6.55,3.86,9.08,5.34,2.53,1.48,4.66,2.73,12.68,7.4,8.02,4.67,21.92,12.76,35.82,19.9,13.9,7.15,27.79,13.36,42.06,17.47,14.27,4.11,28.92,6.12,39.34,7.22,10.41,1.1,16.59,1.29,21.3,1.35,4.71.05,7.96-.03,9.58-.07.4,0,.71-.02.88,0,16.18-.7,32.59-3.22,51.77-9.1,19.61-6.01,42.12-15.53,55.71-21.41,1.54-.67,2.97-1.29,4.27-1.85l12.72-5.52-3.93-2.34c-2.48-1.48-6.54-3.9-13.05-7.73Z"/>
      <path class="cls-1" d="M8460.16,6.33c-7.03,1.5-15.89,3.68-26.42,8.19h-.01c-5.94,2.55-12.41,5.84-18.01,8.84-4.35,2.33-8.18,4.48-10.85,5.98l-6.11,3.43-.03.02c.95.49,1.9.98,2.86,1.48l5.54,2.94.37.19c2.73,1.47,5.47,2.98,8.22,4.51,3.77,2.11,7.55,4.28,11.34,6.5,2.22,1.31,4.45,2.63,6.69,3.98,11,6.64,22.28,13.93,35.01,22.81V4.71c-3.04.48-5.65.99-8.59,1.62Z"/>
      <path class="cls-1" d="M1457.58,293.75c-3.79-2.24-8.42-4.95-14.06-8.25-15.31-8.95-38.06-22.17-79.31-53.79-41.24-31.62-100.98-81.65-144.15-115.7-26.75-21.1-47.14-36.06-65.05-48.08-10.99-7.37-21.05-13.64-31.08-19.52-26.35-15.48-52.45-28.36-76.38-36.39-23.93-8.03-45.68-11.21-67.51-11.88-21.83-.67-43.75,1.17-57.31,2.51-13.55,1.34-18.74,2.17-25.77,3.68-7.03,1.5-15.9,3.68-26.44,8.2-5.94,2.54-12.41,5.83-18.01,8.83-4.35,2.33-8.18,4.48-10.85,5.98l-6.11,3.43-.03.02c.95.49,1.9.98,2.86,1.48l5.54,2.94.37.19c2.73,1.47,5.47,2.98,8.22,4.51,3.77,2.11,7.55,4.28,11.34,6.5,26.35,15.48,52.96,33.55,96.12,67.6,43.17,34.05,102.9,84.08,144.14,115.7,5.6,4.29,10.86,8.25,15.8,11.9.39.24.85.57,1.41.98,1.65,1.19,4.16,3,7.07,5.08l.03-.04.52.43c2.82,2.01,5.98,4.25,9.09,6.42,6.25,4.36,12.26,8.41,16.98,11.52l.69.46c4.81,3.16,8.13,5.26,11.93,7.59,3.81,2.33,8.1,4.91,11.72,7.06,3.61,2.14,6.55,3.86,9.08,5.34,2.53,1.48,4.66,2.73,12.68,7.4,8.02,4.67,21.92,12.76,35.82,19.9s27.79,13.36,42.06,17.47c14.27,4.11,28.92,6.12,39.34,7.22,10.41,1.1,16.59,1.29,21.3,1.35,4.71.05,7.96-.03,9.58-.07.4,0,.71-.02.88,0,16.18-.7,32.59-3.22,51.77-9.1,19.61-6.01,42.12-15.53,55.72-21.41,1.54-.67,2.97-1.29,4.26-1.85l12.72-5.52-3.93-2.34c-2.48-1.48-6.54-3.89-13.05-7.73Z"/>
      <path class="cls-1" d="M1760.08,293.75c-3.79-2.24-8.42-4.95-14.06-8.25-15.31-8.95-38.06-22.17-79.31-53.79-41.24-31.62-100.98-81.65-144.15-115.7-26.72-21.07-47.09-36.03-64.98-48.03-11.02-7.39-21.1-13.67-31.14-19.57-26.35-15.48-52.45-28.36-76.38-36.39-23.93-8.03-45.68-11.21-67.51-11.88-21.83-.67-43.75,1.17-57.31,2.51-13.55,1.34-18.74,2.17-25.77,3.68-7.03,1.5-15.9,3.68-26.44,8.2-5.94,2.54-12.41,5.83-18.01,8.83-4.35,2.33-8.18,4.48-10.85,5.98l-6.11,3.43-.03.02c.95.49,1.9.98,2.86,1.48l5.54,2.94.37.19c2.73,1.47,5.47,2.98,8.22,4.51,3.77,2.11,7.55,4.28,11.34,6.5,26.35,15.48,52.96,33.55,96.12,67.6,43.17,34.05,102.9,84.08,144.14,115.7,5.6,4.29,10.86,8.25,15.8,11.9.39.24.85.57,1.41.98,1.65,1.19,4.16,3,7.07,5.08l.03-.04.52.43c2.82,2.01,5.98,4.25,9.09,6.42,6.28,4.38,12.32,8.45,17.04,11.56l.63.41c4.81,3.16,8.13,5.26,11.93,7.59,3.81,2.33,8.1,4.91,11.72,7.06,3.62,2.14,6.55,3.86,9.08,5.34,2.53,1.48,4.66,2.73,12.68,7.4,8.02,4.67,21.92,12.76,35.82,19.9,13.9,7.15,27.79,13.36,42.06,17.47,14.27,4.11,28.92,6.12,39.34,7.22,10.41,1.1,16.59,1.29,21.3,1.35,4.71.05,7.96-.03,9.58-.07.4,0,.71-.02.88,0,16.18-.7,32.59-3.22,51.77-9.1,19.61-6.01,42.13-15.53,55.72-21.41,1.54-.67,2.97-1.29,4.26-1.85l12.72-5.52-3.93-2.34c-2.48-1.48-6.54-3.89-13.05-7.73Z"/>
      <path class="cls-1" d="M2062.64,293.75c-3.79-2.23-8.42-4.95-14.05-8.25-15.31-8.95-38.06-22.17-79.31-53.79-41.24-31.62-100.98-81.65-144.15-115.7-26.75-21.1-47.14-36.07-65.05-48.08-10.99-7.37-21.05-13.63-31.07-19.52-26.35-15.48-52.45-28.36-76.38-36.39-23.93-8.03-45.68-11.21-67.51-11.88-21.83-.67-43.75,1.17-57.31,2.51-13.55,1.34-18.74,2.17-25.77,3.68-7.03,1.5-15.9,3.68-26.44,8.2-5.94,2.54-12.41,5.83-18.02,8.83-4.35,2.32-8.18,4.47-10.84,5.97l-6.11,3.43-.03.02c.95.49,1.9.98,2.86,1.48l5.54,2.94.37.19c2.73,1.47,5.47,2.97,8.21,4.51,3.77,2.11,7.56,4.28,11.34,6.51,26.35,15.48,52.96,33.55,96.12,67.6,43.17,34.05,102.9,84.08,144.14,115.7,5.6,4.29,10.86,8.25,15.8,11.9.39.24.85.57,1.41.98,1.65,1.19,4.16,3,7.07,5.08l.03-.04.52.43c2.82,2.01,5.98,4.25,9.09,6.42,6.25,4.36,12.26,8.41,16.97,11.51l.7.46c4.81,3.16,8.13,5.26,11.93,7.59,3.81,2.33,8.1,4.91,11.72,7.06,3.61,2.14,6.55,3.86,9.08,5.34,2.53,1.48,4.66,2.73,12.68,7.4,8.02,4.67,21.92,12.76,35.82,19.9,13.9,7.15,27.79,13.36,42.06,17.47,14.27,4.11,28.92,6.12,39.34,7.22,10.41,1.1,16.59,1.29,21.3,1.35,4.71.05,7.96-.03,9.58-.07.4,0,.71-.02.88,0,16.18-.7,32.59-3.22,51.77-9.1,19.61-6.01,42.12-15.53,55.71-21.41,1.54-.67,2.97-1.29,4.27-1.85l12.72-5.52-3.93-2.34c-2.49-1.48-6.54-3.9-13.05-7.73Z"/>
      <path class="cls-1" d="M4482.87,293.75c-3.79-2.24-8.42-4.95-14.05-8.25-15.31-8.95-38.06-22.17-79.31-53.79-41.24-31.62-100.98-81.65-144.15-115.7-26.75-21.1-47.14-36.07-65.05-48.08-10.99-7.37-21.05-13.63-31.07-19.52-26.35-15.48-52.45-28.36-76.38-36.39-23.93-8.03-45.68-11.21-67.51-11.88-21.83-.67-43.75,1.17-57.31,2.51-13.55,1.34-18.74,2.17-25.77,3.68-7.03,1.5-15.9,3.68-26.44,8.2-5.94,2.54-12.41,5.83-18.02,8.83-4.35,2.32-8.17,4.47-10.84,5.97l-6.11,3.43-.03.02c.95.49,1.9.98,2.86,1.48l5.54,2.94.37.19c2.73,1.47,5.47,2.97,8.21,4.51,3.77,2.11,7.56,4.28,11.34,6.51,26.35,15.48,52.96,33.55,96.12,67.6,43.17,34.05,102.9,84.08,144.14,115.7,5.6,4.29,10.86,8.25,15.8,11.9.39.24.85.57,1.41.98,1.65,1.19,4.16,3,7.07,5.08l.03-.04.52.43c2.82,2.01,5.98,4.25,9.09,6.42,6.25,4.36,12.26,8.41,16.97,11.51l.7.46c4.81,3.16,8.13,5.26,11.93,7.59,3.81,2.33,8.1,4.91,11.72,7.06,3.62,2.14,6.55,3.86,9.08,5.34,2.53,1.48,4.66,2.73,12.68,7.4,8.02,4.67,21.92,12.76,35.82,19.9,13.9,7.15,27.79,13.36,42.06,17.47,14.27,4.11,28.92,6.12,39.34,7.22,10.41,1.1,16.59,1.29,21.3,1.35,4.71.05,7.96-.03,9.58-.07.4,0,.71-.02.88,0,16.18-.7,32.59-3.22,51.77-9.1,19.61-6.01,42.12-15.53,55.71-21.41,1.54-.67,2.97-1.29,4.27-1.85l12.72-5.52-3.93-2.34c-2.49-1.48-6.54-3.9-13.05-7.73Z"/>
      <path class="cls-1" d="M549.96,293.75c-3.79-2.24-8.42-4.96-14.06-8.25-15.31-8.95-38.06-22.17-79.31-53.79-41.24-31.62-100.98-81.65-144.15-115.7-26.71-21.07-47.08-36.02-64.98-48.03-11.02-7.39-21.1-13.67-31.15-19.57-26.35-15.48-52.45-28.36-76.38-36.39C116.02,3.99,94.26.81,72.43.14,50.59-.53,28.68,1.31,15.12,2.65c-6.66.66-11.29,1.19-15.12,1.75v72.25c14.86,10.44,31.71,23.07,52.36,39.36,43.17,34.05,102.9,84.08,144.14,115.7,5.6,4.29,10.86,8.25,15.8,11.9.39.24.85.57,1.41.98,1.65,1.19,4.16,3,7.07,5.08l.03-.04.52.43c2.82,2.01,5.98,4.25,9.09,6.42,6.28,4.38,12.32,8.45,17.05,11.57l.62.41c4.81,3.16,8.13,5.26,11.93,7.59,3.81,2.33,8.1,4.91,11.72,7.06,3.62,2.14,6.55,3.86,9.08,5.34,2.53,1.48,4.66,2.73,12.68,7.4,8.02,4.67,21.92,12.76,35.82,19.9,13.9,7.15,27.79,13.36,42.06,17.47,14.27,4.11,28.92,6.12,39.34,7.22,10.41,1.1,16.59,1.29,21.3,1.35,4.71.05,7.96-.03,9.58-.07.4,0,.71-.02.88,0,16.18-.7,32.59-3.22,51.77-9.1,19.61-6.01,42.13-15.53,55.72-21.41,1.54-.67,2.97-1.28,4.26-1.85l12.72-5.52-3.93-2.34c-2.48-1.48-6.54-3.89-13.04-7.73Z"/>
      <path class="cls-1" d="M2365.13,293.75c-3.79-2.24-8.42-4.95-14.05-8.25-15.31-8.95-38.06-22.17-79.31-53.79-41.24-31.62-100.98-81.65-144.15-115.7-26.72-21.08-47.09-36.03-64.99-48.04-11.02-7.39-21.1-13.67-31.14-19.56-26.35-15.48-52.45-28.36-76.38-36.39-23.93-8.03-45.68-11.21-67.51-11.88-21.83-.67-43.76,1.17-57.31,2.51-13.55,1.34-18.74,2.17-25.77,3.68-7.03,1.5-15.9,3.68-26.44,8.2-5.94,2.54-12.41,5.83-18.02,8.83-4.35,2.32-8.18,4.47-10.84,5.97l-6.11,3.43-.03.02c.95.49,1.9.98,2.86,1.48l5.54,2.94.37.19c2.73,1.47,5.47,2.97,8.21,4.51,3.77,2.11,7.56,4.28,11.34,6.51,26.35,15.48,52.96,33.55,96.12,67.6,43.17,34.05,102.9,84.08,144.14,115.7,5.6,4.29,10.86,8.25,15.8,11.9.39.24.85.57,1.41.98,1.65,1.19,4.16,3,7.07,5.08l.03-.04.52.43c2.82,2.01,5.98,4.25,9.09,6.42,6.28,4.38,12.32,8.44,17.04,11.56l.63.42c4.81,3.16,8.13,5.26,11.93,7.59,3.81,2.33,8.1,4.91,11.72,7.06,3.62,2.14,6.55,3.86,9.08,5.34,2.53,1.48,4.66,2.73,12.68,7.4,8.02,4.67,21.92,12.76,35.82,19.9,13.9,7.15,27.79,13.36,42.06,17.47,14.27,4.11,28.92,6.12,39.34,7.22,10.41,1.1,16.59,1.29,21.3,1.35,4.71.05,7.96-.03,9.58-.07.4,0,.71-.02.88,0,16.18-.7,32.59-3.22,51.77-9.1,19.61-6.01,42.12-15.53,55.71-21.41,1.54-.67,2.97-1.29,4.27-1.85l12.72-5.52-3.93-2.34c-2.48-1.48-6.54-3.9-13.05-7.73Z"/>
      <path class="cls-1" d="M1155.02,293.75c-3.79-2.23-8.42-4.95-14.05-8.25-15.31-8.95-38.06-22.17-79.31-53.79-41.24-31.62-100.98-81.65-144.15-115.7-26.72-21.08-47.09-36.03-64.99-48.04-11.02-7.39-21.09-13.67-31.14-19.56-26.35-15.48-52.45-28.36-76.38-36.39-23.93-8.03-45.68-11.21-67.51-11.88-21.83-.67-43.75,1.17-57.31,2.51-13.55,1.34-18.74,2.17-25.77,3.68-7.03,1.5-15.9,3.68-26.44,8.2-5.94,2.54-12.41,5.84-18.02,8.84-4.34,2.32-8.17,4.47-10.84,5.97l-6.11,3.43-.03.02c.95.49,1.9.98,2.86,1.48l5.54,2.94.37.19c2.73,1.47,5.47,2.97,8.21,4.51,3.77,2.11,7.56,4.28,11.35,6.51,26.35,15.48,52.96,33.55,96.12,67.6,43.17,34.05,102.9,84.08,144.14,115.7,5.6,4.29,10.86,8.25,15.8,11.9.39.24.85.57,1.41.98,1.65,1.19,4.16,3,7.07,5.08l.03-.04.52.43c2.82,2.01,5.98,4.25,9.09,6.42,6.28,4.38,12.31,8.44,17.04,11.56l.63.42c4.81,3.16,8.13,5.26,11.93,7.59,3.81,2.33,8.1,4.91,11.72,7.06,3.62,2.14,6.55,3.86,9.08,5.34,2.53,1.48,4.66,2.73,12.68,7.4,8.02,4.67,21.92,12.76,35.82,19.9,13.9,7.15,27.79,13.36,42.06,17.47,14.27,4.11,28.92,6.12,39.34,7.22,10.41,1.1,16.59,1.29,21.3,1.35,4.71.05,7.96-.03,9.58-.07.4,0,.71-.02.88,0,16.18-.7,32.59-3.22,51.77-9.1,19.61-6.01,42.12-15.53,55.71-21.41,1.54-.67,2.97-1.29,4.27-1.85l12.72-5.52-3.93-2.34c-2.48-1.48-6.54-3.9-13.05-7.73Z"/>
      <path class="cls-1" d="M852.53,293.75c-3.79-2.23-8.42-4.95-14.05-8.25-15.31-8.95-38.07-22.17-79.31-53.79-41.24-31.62-100.98-81.65-144.15-115.7-26.75-21.1-47.15-36.07-65.06-48.08-10.99-7.37-21.05-13.63-31.07-19.52-26.35-15.48-52.45-28.36-76.38-36.39C418.59,3.99,396.84.81,375,.14c-21.83-.67-43.75,1.17-57.31,2.51-13.55,1.34-18.74,2.17-25.77,3.68-7.03,1.5-15.9,3.68-26.44,8.2-5.94,2.54-12.41,5.84-18.03,8.84-4.34,2.32-8.17,4.47-10.84,5.97l-6.11,3.43-.03.02c.95.49,1.9.98,2.86,1.48l5.54,2.94.37.19c2.73,1.47,5.47,2.97,8.21,4.51,3.77,2.11,7.56,4.28,11.35,6.51,26.35,15.48,52.96,33.55,96.12,67.6,43.17,34.05,102.9,84.08,144.14,115.7,5.6,4.29,10.86,8.25,15.8,11.9.39.24.85.57,1.41.98,1.65,1.19,4.16,3,7.07,5.08l.03-.04.52.43c2.82,2.01,5.98,4.25,9.09,6.42,6.25,4.36,12.26,8.4,16.97,11.51l.7.46c4.81,3.16,8.13,5.26,11.93,7.59,3.81,2.33,8.1,4.91,11.72,7.06,3.62,2.14,6.55,3.86,9.08,5.34,2.53,1.48,4.66,2.73,12.68,7.4,8.02,4.67,21.92,12.76,35.82,19.9,13.9,7.15,27.79,13.36,42.06,17.47,14.27,4.11,28.92,6.12,39.33,7.22,10.41,1.1,16.59,1.29,21.3,1.35,4.71.05,7.96-.03,9.58-.07.4,0,.71-.02.88,0,16.18-.7,32.59-3.22,51.77-9.1,19.61-6.01,42.12-15.53,55.71-21.41,1.54-.67,2.97-1.29,4.27-1.85l12.72-5.52-3.93-2.34c-2.49-1.48-6.54-3.9-13.05-7.73Z"/>
      <path class="cls-1" d="M3575.25,293.75c-3.79-2.23-8.42-4.95-14.05-8.25-15.31-8.95-38.06-22.17-79.31-53.79-41.24-31.62-100.98-81.65-144.15-115.7-26.72-21.08-47.09-36.03-64.99-48.04-11.02-7.39-21.1-13.67-31.14-19.56-26.35-15.48-52.45-28.36-76.38-36.39-23.93-8.03-45.68-11.21-67.51-11.88-21.83-.67-43.75,1.17-57.31,2.51-13.55,1.34-18.74,2.17-25.77,3.68-7.03,1.5-15.9,3.68-26.44,8.2-5.94,2.55-12.41,5.84-18.03,8.84-4.34,2.32-8.17,4.47-10.84,5.97l-6.11,3.43-.03.02c.95.49,1.9.98,2.86,1.48l5.54,2.94.37.19c2.73,1.47,5.47,2.97,8.21,4.51,3.77,2.11,7.56,4.28,11.35,6.51,26.35,15.48,52.96,33.55,96.12,67.6,43.17,34.05,102.9,84.08,144.14,115.7,5.6,4.29,10.86,8.25,15.8,11.9.39.24.85.57,1.41.98,1.65,1.19,4.16,3,7.07,5.08l.03-.04.52.43c2.82,2.01,5.98,4.25,9.09,6.42,6.28,4.38,12.32,8.44,17.04,11.56l.63.42c4.81,3.16,8.13,5.26,11.93,7.59,3.81,2.33,8.1,4.91,11.72,7.06,3.62,2.14,6.55,3.86,9.08,5.34,2.53,1.48,4.66,2.73,12.68,7.4,8.02,4.67,21.92,12.76,35.82,19.9,13.9,7.15,27.79,13.36,42.06,17.47,14.27,4.11,28.92,6.12,39.33,7.22,10.41,1.1,16.59,1.29,21.3,1.35,4.71.05,7.96-.03,9.58-.07.4,0,.71-.02.88,0,16.18-.7,32.59-3.22,51.77-9.1,19.61-6.01,42.12-15.53,55.71-21.41,1.54-.67,2.97-1.29,4.27-1.85l12.72-5.52-3.93-2.34c-2.49-1.48-6.54-3.9-13.05-7.73Z"/>
      <path class="cls-1" d="M3877.81,293.75c-3.79-2.24-8.42-4.95-14.06-8.25-15.31-8.95-38.06-22.17-79.31-53.79-41.24-31.62-100.98-81.65-144.15-115.7-26.75-21.1-47.14-36.06-65.05-48.07-10.99-7.37-21.05-13.64-31.08-19.52-26.35-15.48-52.45-28.36-76.38-36.39-23.93-8.03-45.68-11.21-67.51-11.88-21.83-.67-43.75,1.17-57.31,2.51-13.55,1.34-18.74,2.17-25.77,3.68-7.03,1.5-15.9,3.68-26.44,8.2-5.94,2.54-12.41,5.83-18.01,8.83-4.35,2.33-8.18,4.48-10.85,5.98l-6.11,3.43-.03.02c.95.49,1.9.98,2.86,1.48l5.54,2.94.37.19c2.73,1.47,5.47,2.98,8.22,4.51,3.77,2.11,7.55,4.28,11.34,6.5,26.35,15.48,52.96,33.55,96.12,67.6,43.17,34.05,102.9,84.08,144.14,115.7,5.6,4.29,10.86,8.25,15.8,11.9.39.24.85.57,1.41.98,1.65,1.19,4.16,3,7.07,5.08l.03-.04.52.43c2.82,2.01,5.98,4.25,9.09,6.42,6.25,4.36,12.26,8.41,16.98,11.52l.69.46c4.81,3.16,8.13,5.26,11.93,7.59,3.81,2.33,8.1,4.91,11.72,7.06,3.62,2.14,6.55,3.86,9.08,5.34,2.53,1.48,4.66,2.73,12.68,7.4,8.02,4.67,21.92,12.76,35.82,19.9s27.79,13.36,42.06,17.47c14.27,4.11,28.92,6.12,39.34,7.22,10.41,1.1,16.59,1.29,21.3,1.35,4.71.05,7.96-.03,9.58-.07.4,0,.71-.02.88,0,16.18-.7,32.59-3.22,51.77-9.1,19.61-6.01,42.12-15.53,55.72-21.41,1.54-.67,2.97-1.29,4.26-1.85l12.72-5.52-3.93-2.34c-2.48-1.48-6.54-3.89-13.05-7.73Z"/>
      <path class="cls-1" d="M2667.7,293.75c-3.79-2.24-8.42-4.95-14.06-8.25-15.31-8.95-38.06-22.17-79.31-53.79-41.24-31.62-100.98-81.65-144.15-115.7-26.75-21.1-47.14-36.06-65.05-48.08-10.99-7.37-21.05-13.64-31.08-19.52-26.35-15.48-52.45-28.36-76.38-36.39-23.93-8.03-45.68-11.21-67.51-11.88-21.83-.67-43.75,1.17-57.31,2.51-13.55,1.34-18.74,2.17-25.77,3.68-7.03,1.5-15.9,3.68-26.44,8.2-5.94,2.54-12.41,5.83-18.01,8.83-4.35,2.33-8.18,4.48-10.85,5.98l-6.11,3.43-.03.02c.95.49,1.9.98,2.86,1.48l5.54,2.94.37.19c2.73,1.47,5.47,2.98,8.22,4.51,3.77,2.11,7.55,4.28,11.34,6.5,26.35,15.48,52.96,33.55,96.12,67.6,43.17,34.05,102.9,84.08,144.14,115.7,5.6,4.29,10.86,8.25,15.8,11.9.39.24.85.57,1.41.98,1.65,1.19,4.16,3,7.07,5.08l.03-.04.52.43c2.82,2.01,5.98,4.25,9.09,6.42,6.25,4.36,12.27,8.41,16.98,11.52l.69.46c4.81,3.16,8.13,5.26,11.93,7.59,3.81,2.33,8.1,4.91,11.72,7.06,3.62,2.14,6.55,3.86,9.08,5.34,2.53,1.48,4.66,2.73,12.68,7.4,8.02,4.67,21.92,12.76,35.82,19.9,13.9,7.15,27.79,13.36,42.06,17.47,14.27,4.11,28.92,6.12,39.34,7.22,10.41,1.1,16.59,1.29,21.3,1.35,4.71.05,7.96-.03,9.58-.07.4,0,.71-.02.88,0,16.18-.7,32.59-3.22,51.77-9.1,19.62-6.01,42.13-15.53,55.73-21.41,1.54-.67,2.96-1.28,4.26-1.85l12.72-5.52-3.93-2.34c-2.48-1.48-6.54-3.89-13.04-7.73Z"/>
      <path class="cls-1" d="M4180.31,293.75c-3.79-2.24-8.42-4.95-14.06-8.25-15.31-8.95-38.06-22.17-79.31-53.79-41.24-31.62-100.98-81.65-144.15-115.7-26.72-21.07-47.09-36.03-64.98-48.03-11.02-7.39-21.1-13.67-31.14-19.57-26.35-15.48-52.45-28.36-76.38-36.39-23.93-8.03-45.68-11.21-67.51-11.88-21.83-.67-43.75,1.17-57.31,2.51s-18.74,2.17-25.77,3.68c-7.03,1.5-15.9,3.68-26.44,8.2-5.94,2.54-12.41,5.83-18.01,8.83-4.35,2.33-8.18,4.48-10.85,5.98l-6.11,3.43-.03.02c.95.49,1.9.98,2.86,1.48l5.54,2.94.37.19c2.73,1.47,5.47,2.98,8.22,4.51,3.77,2.11,7.55,4.28,11.34,6.5,26.35,15.48,52.96,33.55,96.12,67.6,43.17,34.05,102.9,84.08,144.14,115.7,5.6,4.29,10.86,8.25,15.8,11.9.39.24.85.57,1.41.98,1.65,1.19,4.16,3,7.07,5.08l.03-.04.52.43c2.82,2.01,5.98,4.25,9.09,6.42,6.28,4.38,12.32,8.45,17.04,11.56l.63.41c4.81,3.16,8.13,5.26,11.93,7.59,3.81,2.33,8.1,4.91,11.72,7.06,3.62,2.14,6.55,3.86,9.08,5.34,2.53,1.48,4.66,2.73,12.68,7.4,8.02,4.67,21.92,12.76,35.82,19.9s27.79,13.36,42.06,17.47c14.27,4.11,28.92,6.12,39.34,7.22,10.41,1.1,16.59,1.29,21.3,1.35,4.71.05,7.96-.03,9.58-.07.4,0,.71-.02.88,0,16.18-.7,32.59-3.22,51.77-9.1,19.61-6.01,42.12-15.53,55.72-21.41,1.54-.67,2.97-1.29,4.26-1.85l12.72-5.52-3.93-2.34c-2.48-1.48-6.54-3.89-13.05-7.73Z"/>
      <path class="cls-1" d="M2970.19,293.75c-3.79-2.24-8.42-4.95-14.06-8.25-15.31-8.95-38.07-22.17-79.31-53.79-41.24-31.62-100.98-81.65-144.15-115.7-26.71-21.07-47.08-36.02-64.98-48.03-11.02-7.39-21.1-13.67-31.15-19.57-26.35-15.48-52.45-28.36-76.38-36.39-23.93-8.03-45.68-11.21-67.51-11.88-21.83-.67-43.75,1.17-57.31,2.51-13.55,1.34-18.74,2.17-25.77,3.68-7.03,1.5-15.9,3.68-26.44,8.2-5.94,2.54-12.41,5.83-18.01,8.83-4.35,2.33-8.18,4.48-10.85,5.98l-6.11,3.43-.03.02c.95.49,1.9.98,2.86,1.48l5.54,2.94.37.19c2.73,1.47,5.47,2.98,8.22,4.51,3.77,2.11,7.55,4.28,11.34,6.5,26.35,15.48,52.96,33.55,96.12,67.6,43.17,34.05,102.9,84.08,144.14,115.7,5.6,4.29,10.86,8.25,15.8,11.9.39.24.85.57,1.41.98,1.65,1.19,4.16,3,7.07,5.08l.03-.04.52.43c2.82,2.01,5.98,4.25,9.09,6.42,6.28,4.38,12.33,8.45,17.05,11.57l.62.41c4.81,3.16,8.13,5.26,11.93,7.59,3.81,2.33,8.1,4.91,11.72,7.06,3.62,2.14,6.55,3.86,9.08,5.34,2.53,1.48,4.66,2.73,12.68,7.4,8.02,4.67,21.92,12.76,35.82,19.9s27.79,13.36,42.06,17.47c14.27,4.11,28.92,6.12,39.34,7.22,10.41,1.1,16.59,1.29,21.3,1.35,4.71.05,7.96-.03,9.58-.07.4,0,.71-.02.88,0,16.18-.7,32.59-3.22,51.77-9.1,19.61-6.01,42.13-15.53,55.73-21.41,1.54-.67,2.96-1.28,4.26-1.85l12.72-5.52-3.93-2.34c-2.48-1.48-6.54-3.89-13.04-7.73Z"/>
      <path class="cls-1" d="M3272.76,293.75c-3.79-2.23-8.42-4.95-14.05-8.25-15.31-8.95-38.07-22.17-79.31-53.79-41.24-31.62-100.98-81.65-144.15-115.7-26.75-21.1-47.15-36.07-65.06-48.08-10.99-7.37-21.05-13.63-31.07-19.52-26.35-15.48-52.45-28.36-76.38-36.39-23.93-8.03-45.68-11.21-67.51-11.88-21.83-.67-43.75,1.17-57.31,2.51-13.55,1.34-18.74,2.17-25.77,3.68-7.03,1.5-15.9,3.68-26.44,8.2-5.94,2.55-12.41,5.84-18.03,8.84-4.34,2.32-8.17,4.47-10.84,5.97l-6.11,3.43-.03.02c.95.49,1.9.98,2.86,1.48l5.54,2.94.37.19c2.73,1.47,5.47,2.97,8.21,4.51,3.77,2.11,7.56,4.28,11.35,6.51,26.35,15.48,52.96,33.55,96.12,67.6,43.17,34.05,102.9,84.08,144.14,115.7,5.6,4.29,10.86,8.25,15.8,11.9.39.24.85.57,1.41.98,1.65,1.19,4.16,3,7.07,5.08l.03-.04.52.43c2.82,2.01,5.98,4.25,9.09,6.42,6.24,4.36,12.25,8.4,16.96,11.51l.7.46c4.81,3.16,8.13,5.26,11.93,7.59,3.81,2.33,8.1,4.91,11.72,7.06,3.62,2.14,6.55,3.86,9.08,5.34,2.53,1.48,4.66,2.73,12.68,7.4,8.02,4.67,21.92,12.76,35.82,19.9,13.9,7.15,27.79,13.36,42.06,17.47,14.27,4.11,28.92,6.12,39.34,7.22,10.41,1.1,16.59,1.29,21.3,1.35,4.71.05,7.96-.03,9.58-.07.4,0,.71-.02.88,0,16.18-.7,32.59-3.22,51.77-9.1,19.61-6.01,42.12-15.53,55.71-21.41,1.54-.67,2.97-1.29,4.27-1.85l12.72-5.52-3.93-2.34c-2.48-1.48-6.54-3.9-13.05-7.73Z"/>
    </g>
  </g>
</svg>