<?xml version="1.0" encoding="UTF-8"?>
<svg id="Layer_2" data-name="Layer 2" xmlns="http://www.w3.org/2000/svg" viewBox="0 0 591.98 516.79">
  <defs>
    <style>
      .cls-1, .cls-2 {
        fill: #fff;
      }

      .cls-3 {
        fill: #a91e23;
      }

      .cls-3, .cls-4, .cls-5, .cls-2, .cls-6 {
        stroke: #231f20;
        stroke-miterlimit: 10;
        stroke-width: 3px;
      }

      .cls-4 {
        fill: #252e67;
      }

      .cls-5 {
        fill: #fcfdff;
      }

      .cls-6 {
        fill: #f5a71c;
      }

      .cls-7 {
        fill: #aa1f23;
      }
    </style>
  </defs>
  <g id="Layer_1-2" data-name="Layer 1">
    <g>
      <polygon class="cls-1" points="295.12 2.5 147.47 258.24 442.77 258.24 295.12 2.5"/>
      <g>
        <path d="M230.06,181.06c.48,1.86,1.73,3.46,3.46,4.18,1.37.64,3.11,1.41,3.45,3.31-.03.07-.1.09-.18.11-.44.07-1.36.05-1.75.17-.13.1-.02.28.04.41.49.98,2.38,1.79,2.95,2.1.3.16.27.73.26.99-.21,1.24-2.89-2.3-5.66-1.17-.93.33-2.7-5.58-2.59-5.74,0-1.13-.03-3.88.02-4.38h0Z"/>
        <path d="M238.48,185.25c-.9,0-1.29-.65-2.17-.53-.31.01-.68.18-.95.16-.96-.46-2.34-1.7-3.33-1.96-.74-.22-.55-1.29-.17-1.77.4-.49-.45-.64-.56-1.04-.36-1.04.16-1.69,1.26-1.15.63.36,1.04,1.31,1.7,1.83,1.08.89,5.12,3.73,4.26,4.46h-.04Z"/>
        <path d="M254.14,174.66c-.32,1.77-8.01-4.84-9.81-5.7-.99-.61-2.64-.93-3.2-1.96-.06-.1-.12-.25-.09-.33,1.32-.26,11.87,7.19,13.09,7.97v.02Z"/>
        <path d="M335.14,215.7c-.87.25-2.07.08-2.59-.75-.31-.51-.54-1.5.08-1.86,1.36-.6,3.54,1.14,2.56,2.59l-.04.03Z"/>
        <path d="M327.09,205.75c1.45-1.24,3.99.98,2.4,2.17-1.08.85-3.4-.99-2.44-2.13l.04-.04Z"/>
        <path d="M322.97,200.76c-.13.03-.43,0-.63.02-.37-.02-.67.05-.81-.03-.28-.53-.49-1.36-.19-1.92.44-.79,1.65-.65,1.98.17.23.51-.04,1.3-.34,1.75l-.02.02Z"/>
        <path d="M317.82,130.69c-1.74-.24-3.79-1.84-4.54-3.36.48-.07,4.07,2.53,4.55,3.35h-.02Z"/>
        <path d="M319.7,170.04c.83-1.7,1.06-4.07,2.27-5.42.1-.11.16-.08.17.07.04,1.89-1.01,4.13-2.44,5.35h0Z"/>
        <path d="M351.67,173.42c-.41.67-1.36.8-1.96,1.26-.45.32-.83,1.19-1.51,1.17-.29-.03-.51-.18-.73-.4-.03-.05-.09-.11-.05-.17.32-.56,3.34-2.17,4.25-1.88v.02Z"/>
        <path d="M241.92,188.01c-1.16.26-2.19-.91-2.71-1.79,1.08-.21,2.62.61,2.73,1.76l-.02.03Z"/>
        <path d="M346.49,175.87c-.81,1.34-2.37,2.15-3.95,2.08.77-.41,3.5-1.9,3.96-2.1v.02Z"/>
        <path d="M312.59,216.9c-.28.32-1.01.29-1.29.01-2.85-5.28-8.04,4.04-3.66,4.64.61.11,1.29-.21,1.83-.15.38.03.84.59.55.98-4.23,3.27-7.52-2.53-4.51-6.59,1.29-1.89,4.16-2.95,6-1.31.54.49,1.17,1.46,1.11,2.38l-.02.04Z"/>
        <path d="M302.56,212.38c-.13.12-.46.09-.88-.02-1.11-.32-2.8-1.26-3.04-1.01-.29.56-.51,1.4-.77,2.02-.14.38-.16.37.14.52.07.04.14.08.21.11.61.34,1.38.75,1.96,1.07.16.1.13.19.09.47-.03.2-.07.45-.11.59-.05.25-.14.19-.45.14-.44-.09-1.17-.23-1.65-.33-.48-.09-.77-.25-1.06.16-.76.9-.49,2.56-1.7,2.73-.2.02-.63.07-.67-.15-.06-1.07,2.18-8.27,3-9.43.05-.06.08-.08.15-.07.73.24,1.55.55,2.52.89.93.35,1.52.5,2.2.8.33.31.26,1.11.07,1.46l-.02.02Z"/>
        <path d="M284.08,226.94c-.21-.24-.48-.86-.32-1.21.28-.33.66-.54,1.06-.76,3.56-1.68,3.19,4.9-.7,2l-.03-.03Z"/>
        <path d="M342.19,231.89c-1.12.42-3.3.29-3.34-1.28-.12-2.51,4.01-1.15,3.37,1.24l-.03.04Z"/>
        <path d="M312.91,222.8c1.83-.54,2.24,2.73.74,3.28-1.98.46-2.64-2.77-.79-3.27l.06-.02Z"/>
        <path d="M305.93,229.89c1.49,2.25-1.99,3.82-2.85,1.63-.6-1.48,1.79-2.11,2.81-1.67l.04.04Z"/>
        <path d="M322.35,231.39c2.67-.34,2.68,3.67-.08,2.6-.35-.16-.65-.29-.91-.56-.49-.78-.08-1.96.93-2.03h.06Z"/>
        <path d="M273.42,220.7c1.26-1.11,3.19,1.05,2.02,2.39-1.23,1.01-3.26-1.19-2.06-2.35l.04-.04Z"/>
        <path d="M333.38,231.37c.69,1.2-1.93,3.15-2.89,1.46-.94-1.64,1.98-2.31,2.87-1.49l.02.03Z"/>
        <path d="M296.45,228.66c.67.66.08,1.55-.67,1.95-.23.09-.5-.02-.71-.05-.49-.12-1.11-.31-1.42-.71-.78-1.04,1.64-2.31,2.76-1.22l.04.04Z"/>
        <path d="M302.58,218.51c-.01.55-.24,2.07-.26,2.29-1.71,2.17-3.95-2.99.23-2.3h.02Z"/>
        <path d="M312.45,231.69c2.69-1.61,3.55,2.07.86,1.8-.99-.09-1.58-.9-.89-1.76l.04-.03Z"/>
        <path d="M299.27,224.01c.35.41-.53.88-.93,1.04-.59.23-1.46.38-1.81-.23-.02-.05,0-.1.05-.15.7-.63,1.75-.71,2.66-.67h.03Z"/>
        <path d="M297.41,222.5c.94,1.4-1.13,1.07-2.04,1.18-.02,0-.05-.02-.07-.02-.15-.49.38-.91.81-1.1.48-.2.98-.27,1.28-.08l.02.02Z"/>
        <path d="M307.77,224.63c-.06.38-.09,1.09-.4,1.33-.11.08-.27.1-.5.12-.18.01-.44.02-.64.04-.02-.01-.24.05-.26-.02-.25-1.01.82-1.71,1.78-1.49l.02.02Z"/>
        <path d="M276.48,200.57c1.41-1.3,3.43.91,2.33,2.4-1.36,2.36-3.92-.79-2.37-2.36l.04-.04Z"/>
        <path d="M282.73,207.87c2.28-.81,3.49,2.55,1.27,3.68-.2.1-.45.14-.65.09-1.51-.3-2.15-3.08-.67-3.76l.05-.02ZM284.37,209.62c0-1.27-2.07-1.18-1.94.1.06,1.2,1.94,1.13,1.94-.05v-.05Z"/>
        <path d="M290.14,207.61c.11-.07.51.08.7.06.47.05,1.07-.11,1.29-.45.56-.93-.8-1.42-1.85-1.26-.18-.06-.16-.18-.08-.38.68-1.6,2.94-.61,2.99,1.12.09,1.2-1.39,2.09-2.45,1.73-.3-.11-.63-.44-.62-.8v-.02Z"/>
        <path d="M304.72,198.35c-.26.1-1.88.14-2.08.19-.04,0,0,.03.11.08l.46.23c.4.21.79.36.9.48,0,.12-.35,1.03-.43,1.14-.11.08-.25-.02-.4-.07-.6-.23-1.34-.76-1.49-1.4-.45-2.05,2.42-3.44,2.93-.67v.02Z"/>
        <path d="M286.49,209.75c.42.17,1.02.52,1.53.41,1.2-.31.51-1.94-.74-1.76-.32.01-.24-.26-.25-.53,0-.29.07-.36.33-.34,4.89.17.27,6.58-.89,2.22h.02Z"/>
        <path d="M291.63,201.5c.03-.08.13,0,.3.05.35.1,1.15.47,1.37.46.09-.08.21-.32.29-.44.06-.12.15-.19.13-.28-.04-.05-.35-.15-.68-.29-.33-.15-.64-.21-.74-.34.28-.5,1.18-.58,1.68-.34.31.14.53.39.64.71.81,2.3-3.32,3.18-2.99.51v-.03Z"/>
        <path d="M280.65,206.86c-.04.06-.12,0-.26-.05-.26-.1-1.09-.45-1.22-.48-.09.05-.08.32-.17.66-.06.35-.14.63-.15.81.08.08.23.02.37.04.31.03.83-.05,1.09.04.02-.03,0,.15-.02.16-.77,2.28-3.54-.66-1.88-2.07.76-.65,2.53-.4,2.26.87v.03Z"/>
        <path d="M300.78,202.7s.02-.02.05,0c.25.11,1.65.84,1.74.86.03,0,.03-.07.03-.21,0-.33.05-1.2,0-1.36-.03-.03,0-.04-.11-.07-.15-.02-.39-.06-.55-.14-.48-.2-.31-.63.18-.69.84-.06,1.73.85,1.62,1.71-.04.51-.33,1-.71,1.33-1.15,1.02-2.21.13-2.27-1.41v-.02Z"/>
        <path d="M306.9,189.59s.13-.02.27.02c.21.06.42.06.57.2.11.21.16.66.32.89.19.39.63.56.94.23.43-.39.34-1.41-.28-2.02-.03-.06-.29-.24-.17-.27.61.01,1.6.51,1.69,1,.16.45-.02.96-.36,1.36-1.29,1.42-2.85.55-2.98-1.4v-.02Z"/>
        <path d="M310.55,186.48c.45-.36,1.1.19.93.82,0,.2.32.08.54.11.17,0,.28,0,.3-.06,0-.36-.23-.97.04-1.3.14-.13.38.02.56.28.33.47.46,1.31-.4,1.61-.73.29-1.68-.11-2.02-.77-.14-.25-.13-.52.01-.66l.03-.03Z"/>
        <path d="M305.84,193.29c-.44-.45-1.11-.34-1.51.1-.17.16-.21.16-.22-.05-.13-1.7,2.16-1.54,2.66-.41.11.26.06.62-.02.89-.26.64-.73-.17-.88-.49l-.03-.03Z"/>
        <path d="M302.03,167.29c.23-.45,5.25-6.91,5.73-7.59.06-.08.01.03-.03.15-1.01,2.73-3.14,6.22-5.68,7.43h-.02Z"/>
        <path d="M303.82,160.57c-.84,1.11-2.43,3.14-3.35,4.27-.22-1.07,2.67-4.59,3.34-4.28h0Z"/>
        <path d="M301.39,165.47c.75-.93,2.22-2.71,3.05-3.66.16.97-2.42,3.93-3.04,3.67h0Z"/>
        <path d="M257.02,211.48c.06,2.26-3.53,2.44-3.77.25-.4-2.64,3.79-2.86,3.77-.32v.06Z"/>
        <path d="M264.12,202.13c1.05,1.2-1.09,3.75-2.45,2.72-1.81-1.43.79-4.29,2.42-2.75l.04.04Z"/>
        <path d="M266.88,192.64c2.29-.94,2.64,2.74.61,3.27-1.84.15-2.49-2.67-.67-3.25l.06-.02Z"/>
        <path d="M278.94,148.44c4.01.82-.7,7.58-2.66,9.13-.17.14-.31.21-.57.23-.79.06-2.65-.18-2.25-1.35,1.65-2.16,5.03-4.58,5.35-7.74.02-.11.04-.2.1-.24l.03-.02Z"/>
        <path d="M280.41,158.42c.45-.52,1.26-.96,1.75-1.53.56-.59.99-1.29.85-2.08-.24-.7-.94.87-1.1,1.1-.29.53-.65.96-1.22.87-.08-.02-.08-.06-.05-.12l.68-1.44c.72-1.53,1.73-3.7,1.91-4.06.1-.08.19.08.31.19,2.14,2.24-.03,6.95-3.12,7.08h0Z"/>
        <path d="M287.85,153.9c1.51,1-1.17,4.48-2.11,4.56-1.25-.7,1.33-4.13,2.08-4.56h.03Z"/>
        <path d="M367.59,165.36c-.74-2.28-16.15,2.07-17.59,1.86-1.2,1.06-1.7,2.84-2.96,3.92-7.33,5.49-10.67-5.95-4.41-9.26,1.33-.8,3.6-1.11,5.48-.86.82.09,1.62.27,2.51.5.16.04.29.03.33-.06-.41-1.83-1.72-3.54-2.77-4.8-11.26-12.66-38.39,3.76-28.14,20.44.34.61.58.4.76-.14.39-1.15,10.3-6.77,12.82-3.82,1.39,1.63.41,5.72-1.74,7.13-1.24.81-2.87,1.3-2.87,1.3-.91.41-2.95,3.09-3.83,3.48-6.43,3.12-4.79.97-11.16-1.57-2.64-1.25-7.72-.97-7.93-4.74-.13-2.49,2.02-5.45,3.77-7.39,9.1-7.94,8.45-25.49-1.41-32.56-.87-.63-1.64-1.28-1.7-2.37-.05-.48.13-1.07,0-1.54-.03-.59-1.77-2.48-.53-2.49,5.33-.29,8.78,5.76,14.15,5.83,1.07-.01,4.38.25,4.5-1.03-.63-1.14-2.85-2.46-3.97-2.45-.28-.04-.2-.59-.47-.63-.11-.04-.25,0-.34-.11-.56-3.47-7.25-2.6-8.04-7.79-.07-.39-.15-.75-.33-1.12-.95-1.54-3.18-2.42-5.03-2.44-.23,0-.6,0-.62.28.12.63,1.82,1.09,1.81,1.37-.09.24-.45.06-.64.02-.8-.31-2.44-1.08-2.7-1.62-.3-.56,1.2-.36,1.54-.48.48-.13,2.11.1,1.65-.64-.32-.55-1.99-.75-1.7-.95,3.84.37,7.83.96,11.71,1.15.86.2,1.68.73,2.56.77,1.11.14,2.24,0,3.35-.11,2.43-.28,4.78,1.75,7.29,1.71,1.56.07,3.09-1.05,1.07-2.02-1.37-.35-2.99.18-4.35-.29-3.4-.65-7.68-4.93-10.83-4.76.68.47,2.74,1.68,3.75,2.3.33.19.35.27.1.34-1.5.44-5.3-2.25-7.44-2.77-.71-.19-.34-1.26-1.06-1.48-2.27-.97-6.86-1.53-8.72-3.47.76-.07,3,.03,3.77-.02.07,0,.2,0,.18-.07-1.14-1-7.37-6.29-16.57-5.61-8.12.6-13.17,5.47-14.41,6.74-.96,4.16,4.7,3.58,7.28,5.34,1.04.58,1.83,1.51,1.71,2.71-.05.45-.22.9-.66,1.06-1.6.37-2.2,2-3.77,2.49-1.02.39-2.16-.07-3.12.51-.34.21-.57.58-.73.94-1.11,2.3-4.59,3.42-2.52,6.41.41.52,1.33,1.07,1.98.71.16-.33,0-.67-.04-1.1-.06-.5-.24-.95.34-.89,5.9.31,20.67-1.51,24.06,3.03,0,.14-.31.06-.44.06-2.94-.4-10.58-2.76-12.5.48-.47,2.29-4.36,3.23-6.02,4.97-.96.48-2.2-1.06-3.46.45-.3.36-.45.79-.55,1.24-1.4,6.5-3.96,12.93-10.88,15.26-5.67,2.48-3.02,3.62,1.25,4.97,4.34,7.64,9.72,7.3,16.08,11.85.62.49,1.69,1.83,1.31,2.47-1.08.03-4.8-1.98-6.27-2.34-2.21-.46-1.61,2.07-2.28,3.4-2.52,4.19-11.85,2.9-14.88-.24-4.03-3.7-6.45-10.83-.89-13.35.39-.18.64-.5.36-.89-3.59-5.03-12.25-.05-9.84,6.97.04.98-.91.48-1.45.15-4.92-3.02-4.59-5.6-7.45-9.65-.16-.18-.32-.44-.51-.47-1.35-.2-13.81-2.13-18.21-2.77-.11.16.31,1.17.61,1.54,1.57,2.26,4.3,3.96,6.15,5.98,3.73,4.16,5.21,7.27,11.25,6.99,7.23,1.59,7.67,11.51-1.82,8.15-3.46-1.55-5.62-3.48-8.62-6.63-2.04-1.75-2.33,3.11-2.24,4.12.01.4-.22.98.16,1.25.18.06.34-.12.41-.29.59-1.03.66-3.38,1.51-3.35.22.15.06.62.04.87-.26.75-.1,1.57.43,2.18.6.79,1.25.35,1.54-.31.09-.13.19-.19.3-.16.36.16.63.53.96.75,10.42,9.39,21.67-3.63,7.18-8.96-.76-.31-1.59-.32-2.22-.7-.3-.29-.13-1.05-.58-1.22-.09,0-.2.07-.26.15-.37.43-1.2,1.48-1.53,1.86-.29.28-.09-.13-.06-.24.57-.92,1.01-1.33.05-2.18-.23-.24-.39-.56-.24-.88.16-.29.51-.42.83-.41,1.58.03,2.08,1.25,3.02-.09.57-.85.95-1.8,1.3-2.75.1-.28.25-.46.43-.42.28.09.43.39.54.66,1.74,4.05,4.89,7.64,9.22,8.87,1.06.38.16-1.46.79-1.62.18-.07,1.29.17,1.39-.01-.29-.68-1.48-.75-1.9-1.23-.27-.26-.4-.76-.16-.82.57,0,1.25.36,1.78.48.26.08.4.12.38.08-.06-.15-1.98-1.81-2.23-2.14.67.14,1.96.84,2.56.91-.26-.49-1.78-2.31-1.95-2.74.54.12,1.27.47,1.81.64.6.25.57-.1.3-.57-.26-.5-.94-.96-.8-1.58.44-1.17,1.92-.3,2.9-.46.31-.14-.17-.9.37-.75,1.68.4,1.42.23.39,1.5-6.4,7.52,5.17,17.3,10.93,19.72,1,.36.91-.08-1.24-1.62-.3-.19-.66-.52-.08-.48,4.56.21,10.75.12,11.36-5.45.06-.48.34-.64.74-.51,1.95.52,4.29,1.2,5.6,2.68.09.22-.38.24-.55.25-5.04.41-8.96,3.94-12.06,7.68-.3.38-.69.3-1.07.07-3.35-1.85-7.26-2.3-10.72-3.96-3.26-1.62-6.84-2.98-8.99,1.03-3.62,5.81.76,10.75,6.67,12.17.3.08.71.24.37.58-6.72,6.68-20.37,2.31-25.35-5.51-.87-.51-2.8-.51-2.24.22,6.56,9.58,20.61,12.89,29.62,6.19,0,0,.07.02.07.06-.11.82-.49,1.62-.81,2.39-5.18,12.46-27.18,4.97-18.38,13.31,2.46,1.73,5.54,2.94,8.33,4.28,1.93.93,3.73,1.86,5.14,3.07.29.27.02.52-.26.69-3.68,2.28-9.28,3.59-11.92,6.87-.23.28-.54.42-.9.45-.87.06-1.69.33-2.2.92-.53.45-.43,1.39-.69,2.01-.2.25-.84.11-.96.25-.11.59.84,1.92,1.47,2.64.38.38.72.47.88.08.08-.17.14-.41.28-.54.41-.26,1.01-.02,1.5-.14,1.73-.13,1.56-1.46,3.33-1.81.61-.18,1.3-.2,1.87-.29.66-.32,7.74-3.88,11.78-5.9,1.21-.62,1.9-.93,2.54-1.27.19-.09.19-.15.52.02,11.94,6.5,24.99,11.02,38.46,13.11,12.12,1.64,27.83,4.72,38.5,1.06,2.05-.31,3.92.27,5.77-1,1.73-.81,1.96-3.77,1.29-4.89-.69-.98-.61.46-.68,1.22-.68,2.81-.64-.42-.79-1.63-.06-.38.24-.47.56-.52.87-.19,1.67-.72,2.52-.25,1.46.63,3.13.55,3.69-.74.31-.81.33-2.19-.37-2.85-.8-.63-2.15.33-2.84-.6-1.04-1.07-2.82-1.93-3.98-2.81-2.56-3.63-5.15-13.07-8.48-13.68-1.04-.22,2.46,2.1.78,3.73-.1.13-.1.26-.04.4.42,1.06,1.79,2.85,2.73,4.54.37.73,1.81,3.33.17,2.58-10.72-4.19-14.99-15.36-23.89-21.99-.34-.23-.81-.3-.51.2,4.33,5.31,10.53,9.95,13.68,15.96-1.01-.8-22.97-11.88-23.31-12.82.36-.52.73-1.74,1.54-1.92,4.43-1.45,9.06-5.24,13.22-6.78,2.37-1.06,3.87,1.36,5.28,3.26.1.28,1.57,1.58.7,1.34-.97-.27-1.91-2.06-2.91-2.75-.33-.15-.05.43.03.56,1.28,2.45,8.75,10.76,9.26,11.74.2.18.62.28.89.28.19-.03.18-.22.16-.47-.03-.27-.03-.49.12-.38.57.62.89,1.69,1.64,2.01.18.09.45.13.49-.11.23-.56-2.73-5.68-3.74-4.24-.16.17-.24.03-.33-.16-.07-.17-.14-.39-.12-.58-.03-.38,1.03.08.88-.29-1.69-2.03-3.03-5.24-5.27-6.42-.46-.19-.36-.7-.58-1.06-.18-.25-.47-.35-.69-.49-.61-.35-.57-.99-.84-1.58-.26-.62-.93-1.14-1.12-1.78-.17-.48.08-.86.5-1.08,8.64-5.23,24.71-10.52,22.03,4.46,0,.29.2.29.47.2,3.63-1.35,6.07-6.61,5.06-10.31-.63-2.04-3.28-3.01-4.46-4.68-1.37-1.69.82-3.9,2.63-3.63,1.15.05,2.3.58,3.05.84.39.12.63.23.82.11.63-.62,11.63-11.5,12.48-12.34.17-.19.33-.59.25-.88ZM313.03,130.65c1.19-.43,2.33.89,2.45,2.04v.03c-.52.33-2.86-1.18-2.45-2.07ZM311.88,130.27c.22,0,.41-.01.46.04l.02.02c-.41,3.1,1.88,2.52,3.07,4.27.04.08.05.15,0,.19-2.87.12-3.35-1.92-3.91-4.24-.07-.26.06-.29.36-.29ZM306.09,116.65c.11,0,.19.02.3.09,1.28.85,1.73.64,3.15.04.19-.06.4-.18.56-.13.5.26,3.56,1.87,4.99,2.62.19.1.35.18.47.25.16.1.27.09.27.22v.03c-.2.42-.84.09-1.17-.01-2.1-.81-5.82-3.74-5.94-.59-.01.22.03.63-.07.79-.5.57-1.68.04-2.19-.38-1.06-.94.55-.22.97-.28.26-.05.29-.46.33-.69.17-1.08-1.69-.87-1.65-1.96ZM285.21,114.15c-.53-.08-2.46-1.53-3.61-1.58.65-.05,1.71-.19,2.34-.25.27,0-.17-.47-.33-.79-.47-.79-.66-.77.2-.85.13-.03.52-.02.51-.12-.14-.21-1.34-.94-1.4-1.21.06-.27.46-.47.71-.4h.04c.34.22.5.73,1.18.86.34.07.51.14.36.52-.37,1.22-.46,2.35.03,3.56.03.13.1.25-.03.25ZM234.98,164.72c-1.52-.6-2.85-.19-3.32-1.9-.04-.13-.02-.24.13-.23,1.32.12,2.54,1.02,3.21,2.12h-.01ZM240.61,164.51c-3.17.11-8.84-4.35-11.8-6.04-.1-.06-.18-.11-.2-.13-.02-.01-.01-.02,0-.01.37.06,3.44.55,6.54,1.05,1.95.34,5.6.85,6.87,1.13h0c.28,1.05-.86,3.51-1.43,4.01ZM350.36,227.02h.04c.18,0,.43.29.64.58.35.51.49,1.07.4,1.63-.57,2.15-5.43-.54-1.08-2.21ZM308.14,183.17s-.01.04-.07.08c-.34.17-1.1.57-1.41.7h0s.15-.62.21-.89c.06-.26.12-.35-.01-.31-.14.03-.31.08-.48.12-.17.03-.46.13-.59.13-.05-.03.03-.14.04-.19.3-.63-.39-1-.4-1.57,0-.04.01-.05.04-.03.31.23,2.44,1.78,2.68,1.95ZM277.72,129.56c-.34.11-1.28.24-1.29.22-.02-.14-.27-.71-.23-1,.05-.39.83-.05,1.32.02.87.13,1.25.41.2.76ZM278.45,128.06c-.09.07-.54.45-.61.47-.19.06-.41-.65-.39-.81.45-.09.85-.73,1.47-.84l3.57-1.19s.27.25.07.5c-.35.42-2.8.9-4.12,1.86ZM280.75,128.99c-.53.37-.48-.35-1.07-.21-.35.08-1.02-.04-.98-.34s.51-.36,1.05-.5c.73-.19,1.21,0,1.63.04.42.04-.06.15.26.87.12.28-.62-.06-.89.13ZM285.99,130c-.04.1-.09.17-.16.2h-.04c-.11.04-.24,0-.36-.02-.72-.14-1.38.26-1.88.05-.5-.25-1.36-.89-1.31-1.35.07-.15.26-.14.41-.23.29-.15.56-.42.6-.76.07-.36-.34-.64-.24-.96.39-1.02,3.41-3.72,4.39-4.85.06.14-.14,1.18-.1,1.34.07.25.49.25.72.38,3.21,1.32-1.09,3.9-2.04,6.19ZM295.68,108.8c-.25.12-.54.12-.83.29-.41.19-.55.87-1.06.93-1.84.25-3.47.17-5.03,1.74-.19.19-.41.45-.37.7.73,2.05,5.39,3.64,5.33,6.14-.03.11-.09.08-.17,0-.47-.57-1.07-1.06-1.83-1.54-2.85-1.79-5.98-2.76-5.21-6.21.81-3.5,6.59-2.8,9.69-3.12l.02.02c.06.38-.21.89-.54,1.04ZM300.83,109.42c.7.16.88.13,1.14.26.63.34,2.19,1.18,2.5,1.36.04.05-.12.03-.21.02-1.39-.08-3.09.21-4.48.02h-.05c-1.28-.17-2.76-1.06-2.84-2.43.54.07,2.6.51,3.94.77ZM298.46,128.83s-.05.03-.06.07c-.03.32,0,1.89-.02,2.21,0,.21-.39-.1-.67-.21-.63-.34-1.03-.32-.66-1.04.76-1.78,1.75-1.96,3.66-1.51.36.09.45.08.06-.29-.32-.37-.72-.53-.13-.55.18-.02.42-.04.62-.06.29-.04.55-.02.34-.21-.97-.91-4.49-.82-4.62-2.35.05-.1.32-.1.46-.09,4.15.4,7.82,4.85,3.28,4.43-.74-.05-1.48-.27-2.22-.41h-.03ZM300.25,131.73c-.59-.02-.49-.42-.67-.88-.08-.31-.22-.72-.07-1.01.15-.28.73-.26.95,0,.37.37.51,1.37,1.16,1.3l.02-.02c.19-.25-.56-1.43.23-1.02,1.28.66-.3,3.13,1.33,2.84.42-.03.85-.33,1.23-.38,0,.21-.18.39-.24.59-.32.66.35.9.82,1.54.05.08.05.14-.01.15-1.57-.22-4.06-.99-3.35-2.65.08-.31-.17-.25-.47-.32-.29-.04-.62-.09-.91-.14ZM280.12,141.45c.28.41.68.46,1,.1,1.43-1.45,3.56-2.28,5.41-3.26,1.05-.55,1.99-1.15,2.69-1.93.14-.14.3-.26.49-.33,6.13-1.43,13.27-.73,18.18,3.81,1.64,1.41,3.72,2.89,3.18,5.24l.02.03c.13.17.47.19.66.31,1.22.63.56,1.83-.43,1.36-.29-.13-.49-.38-.65-.65-5-8.26-15.9-11.66-24.51-6.56-1.79,1.08-4.4,2.61-4.3,5.04.03.22.06.86.37.62,2.44-3.51,6.82-6.23,11.14-6.28.43-.03.53.29.57.65.11.6.41,1.32.79,1.68,1.44,1.5,4.01.06,3.53-2.22-.03-.2-.03-.42.22-.42,24.92,5.96,12.03,42.29-11.33,34.54-.52-.13-.68-.39-.65-.9-.02-.43.18-.52.51-.42,1.38.31,2.53.54,3.94.29.32-.07.64,0,.8.27,1.47,1.97,6.76-1.34,9.29-1.38.14-.17-.22-.89-.11-1.04.04-.05.12-.04.26-.02.23.04.53.11.77.15.37.08.33-.15.19-.53-.09-.36-.4-.68-.77-.56-.08.06-.06.06-.08.11-.03.11.04.29-.08.35-.04.02-.1.03-.17.04-.05,0-.11,0-.17,0-.83,0-1.11.63-1.79,1.02-.15.08-.45.27-.48-.02-.05-.3.17-.67-.01-.86-.09-.04-.3.02-.53.08-.26.06-.46.12-.5.1-.01,0-.02-.01-.01-.02.39-.55,2.7-3.5,2.94-3.83.02-.03.02-.04,0-.04-.34.14-2.32,2.1-3.06,2.66-.76.63-1.47,1.15-1.84,1.2-.49.03-.25-.71-.01-.9.57-.49,2.17-.92,2.65-1.85.06-.14.24-.48,0-.47-.83.27-4.12,2.67-3.17.79.08-.16.15-.26.19-.41,0-.02-.01-.04-.04-.04-.35.07-1.67.77-1.88.72.35-.87,1.76-1.4,1.87-2.34.03-.18-.03-.27-.19-.15-.59.38-2.42,1.63-2.9,1.91-.01,0,.08-.09.21-.21,2.65-2.46,4.99-5.76,6.77-8.74.55-.66,1.46-.88,1.86-1.77.25-.52.3-1.4.16-1.91-.67-2.17-3.79-1.04-5.47-1.36-4.31-.4-7.93-3.91-11.43-5.34.49.43,2.81,2.46,3.36,2.94.21.18-.17.06-.31.02-4.07-1.11-7.28-5.21-7.43-9.52.04-.15.14.02.3.22ZM301.44,174.83l-.02.02c-2.01,1.69-5.7,2.08-8.32,1.52-.13-.03-.24-.05-.16-.06.71-.1,8.07-1.49,8.49-1.48ZM296.66,155.08c.17-1.78,3.09-1.65,3.05.18v.06c.01,2.05-3.35,1.88-3.05-.24ZM268.67,157.88c.22-.58,1.19-1.34,1.78-1.75,3.88-2.63,6.73-5.95,7.58-10.72.03-.17.06-.3.15-.42.16-.21.69-.35.92-.29h.03c5.74,10.37,21.69,9.07,14.01,11.88-1.79.76-3.43,1.05-5.69,1.5-1.82.45-3.43.6-4.5,1.69-.03.13.23.05.48.02.33-.05.95-.18,1.12-.13,1.61,1.12-7.56,1.23-8.85,1.16-.06,0-.1,0-.11-.01.67-.09,5.23-.52,5.91-.6.14-.04-.04-.11-.19-.2-2.69-1.32-13.65.34-12.65-2.12ZM285.62,172.34l-.02.02c-.26.26-2.94-.8-2.36-1.55.49-.2,3.1.58,2.38,1.53ZM283.75,169.13c-1.89.33-3.46,0-4.27-1.3-.12-.19-.22-.34-.44-.44-.52-.22-1.9-.68-2.37-.77-.06,0-.1,0-.15.02-.15.06-.14.79-.34.79-1.71-.8-5.73-4.07-5.85-5.06-.08-.31.58-.31,1.08-.14.21.06.34.24.37.45.01.35.31.63.45.25.06-.15,0-.46.16-.54,8.54,1.53,17.34-2.4,25.01-4.92h.03c.55,4.08-8.18,10.67-13.68,11.65ZM243.61,208.6c-.22-.2-.09-.23.28-.22,12.55.8,22.95-9.77,19.04-22.03-.59-1.87.14,5.12-.22,5.31l-.02.04c-1.24,1.91-5.57.49-7.1-.31-3.53-1.91-4.53-7.33-.67-8.46,5.7-1.04,10.97,3.34,15.63,5.97.23.15.37.23.38.45-.14,1.56-1.49,4.22-1.58,6.02-.17,1.5-.12,2.26,1.37,2.59.82.2,1.91.31,2.79.55.25.1.25.29.22.55-.8,3.87.68,7.67,2.4,11.02-.01.07-.06.11-.14.15-.28.11-.59.2-.91.31-5.59,1.96-5.16,4.74-10.11,1.85-.77-.45-1.38-.84-2.14-1.37-.27-.18-.3-.43-.12-.68,2.26-3.61,7.83-7.08,6.77-12.12-.07-.01-.16.14-.27.34-6.7,13.23-13.27,10.58-4.23,15.23.43.26.94.44,1.28.74.02.06,0,.05,0,.08-1.65.8-4.1,2.33-5.73,2.96-3.01,1.36-14.18-6.61-16.89-8.97ZM244.06,231.77l-.03.02c-1.46.54-2.58-.54-2.59-1.61-.02-.49.16-.95.56-1.18.49-.3,1.41-.12,1.86.21.04.19.16,1.73.22,2.36,0,.12.04.16-.02.2ZM250.58,226.38c-2.99,1.17-5.46,2.13-5.81,1.73v-.02c2.9-5.96,19.49-9.63,25.69-14.41.22-.17.52-.26.81-.27,4.31-.22.4,2.62-5.62,5.87-4.79,2.57-10.12,5.07-15.08,7.1ZM288.94,231.54c-.81,1.14-2.99.09-3.64-.95.44.12,2.89.69,3.65.93v.02ZM299.02,234.24c-2.37-.48-5.41-.28-7.51-1.68-.14-.1-.14-.15.04-.13,2.43.39,5.65.15,7.48,1.8h0ZM306.16,208.15c1.34.58,2.94,1.85,4.31,2.66,7.47,3.92,15.16,7.43,22.49,11.61.24.14.37.23.45.37.31.66,1.93,4.16,2.16,4.65.02.05.06.1-.01.11-.63.06-9.51.86-10.35.92-.05-.01-.09-.07-.13-.2-.18-.61-.39-1.26-1.04-1.35-.27-.08-.71.03-.99-.1l-.02-.02s-.05-.11-.02-.2c.12-.31.35-.76.42-1.13.27-.99-.14-1.37.04-2.18.11-.61.79-.98,1.11-1.53.39-.61.27-1.54-.12-2.14-.89-1.48-3.15-1.81-4.84-2.06-.24-.02-.52-.12-.71.04-.86.89-2.88,6.89-3.33,8.69-.11.32.26.38.52.42,2.08.34,4.26,1.23,6.21.45.19-.07.5-.18.27.12-.62.83-1.72,1.24-3.06,1.37-3.61.37-9.02-1.15-11.99-1.15-.14,0-.25-.02-.35-.1-.22-.13-.35-.92-.67-.93-.13,0-.3.08-.43.13-1.42.59-2.98.08-4.49-.2-.74-.07-.05-1.12-.24-1.49-.74-.69-2.29.58-3.14.63-.93.05-2.3-.6-3.42-.83-.18-.05-.3-.12-.37-.29-.1-.28-.18-.95-.25-1.23-.04-.19-.09-.25-.19-.26-.92-.08-5.61,1.24-5.43-1.11-.04-.31-.26-.43-.54-.39-.99.11-1.89.83-2.62.17-.1-.1-.27-.23-.21-.39.09-.17.94-.02,1.16-.15.25-.18.03-.63-.08-.83-.81-1.01-2.73,1.89-4.03.09-.04-.06-.05-.06-.09-.19-.01-.13.02-.22.16-.27.66-.19,1.34-.3,2-.15.5.15.69-.18.37-.62-.76-.93-3.9.37-5.32.27-.11,0-.24-.04-.29-.13.22-1.02,2.41-.31,3.05-1.06.07-.09-.07-.12-.14-.12-.65-.06-2.77-.21-3.3-.27-.1-.02-.15-.05-.2-.15-.1-.17-.09-.62-.32-.71-.2-.06-.56.06-.79.1-.18.04-.33.06-.47.14-.05.04-.06.08-.02.14.1.18.75.5.78.76.01.07-.02.13-.09.15-.29.1-.71-.09-.99-.15-.47-.1-2.18-.57-2.28-.13,0,.2.41.54,1.02.91.68.41,1.63.87,2.56,1.22,14.79,6.57,33.12,10.48,49.31,9.56,2.74-.23,8.06-.27,9.88-1.55.97-.83-1.4-2.18-1.3-3.43.7-1.4,7.98,4.12,8.28,4.17.63.42.53,2.9.42,3.66-.06.51-.22.74-.64.82-26.18,4.72-54.05.36-77.61-11.81-.08-.05-.09-.08-.06-.1.23-.12,1.13-.59,2.39-1.25,4.02-2.11,11.66-6.11,12.39-6.49.1-.04.17,0,.36.05,6.58,2.09,13.51-.75,15.8-7.38.19-.16.52-.08.76,0,4.4,1.33,5.52.49,8.34,1.83ZM319.17,221.76h-.02c.03-.21.94-2.08,1.06-2.37.05-.06.16-.01.23-.02,1.36.15,3.05,1.07,2.21,2.08-.73.85-2.46.7-3.48.3ZM317.93,225.36c-.11-.42.17-1.18.35-1.58.44-.74,2.77-.21,3.21.18l.02.03c1.34,2.29-2.07,2.14-3.59,1.37ZM309.29,193.69c-.39.52-.71,1.13-1.01,1.65-5.36,9.74-.1,11.12-12.45,9.48-.26.1-.39.27-.53.57-5.87,13.33-22.87,6.94-20.99-6.68.02-.35.19-.67-.12-.81-.66-.2-3.12-.9-3.72-1.09-.18-.07-.18-.19-.15-.42.68-5.03,4.17-12.89,9.14-15.69,1.66-.94,3.6-1.35,5.51-.79.06.03.03.06-.07.08-1.72.18-3.44.8-4.72,2-.39.38-.52.47.26.32.98-.13,2.22-.37,3.2-.47.06.02.04.07.04.12-.06.35-.41,1.46-.46,1.85-.03.54.73.78,1.17.74,1-.14,1.63-1.76,2.44-2.65.05-.07.09-.14.1-.21.06-.26-.35-.61-.21-.75.06-.08.25-.13.37-.17,1.12-.38,1.5-1.91,1.32-3.08-.03-.19-.05-.4.14-.5.21-.14,1.31-.29,1.46-.43-.03-.16-1.02-.44-1.4-.66-.19-.09-.28-.27-.21-.47.18-.73,1.51-1.47,2.14-.9.18.17.26.49.35.74,1.22,3.74,7.35.9,10.47.3.22-.04.39.01.36.26-.48,1.97-4.4,1.73-6.26,2.29-.3.09-.25.22,0,.29,1.44.42,4.29-1.03,6.15-1.09.96.02.28.72-.47.99-1.58.67-4.55,1.16-4.41,1.56.07.19.55.13.76.08,3.02-.81,7.74-2.05,7.53-5.79-.06-.69.58-1.3,1.25-1.01l.04.03c.63.72-.75,1.25-.92,1.91-.45,1.11-.29,2.82-1.08,3.71-.28.34-.41.15-.45-.23-.01-.11-.03-.22-.04-.3-.03-.11-.02-.23-.13-.23-.37.23-1.39,1.15-1.73,1.43-.27.3.78.27.55.57-.28.28-2.49,1.96-1.23,1.76.51,0,2.34-1.52,2.58-.86,0,.29-.47.33-.66.46-.31.21.01.57.26.67.93.3,1.2-.09.64,1.01-.23.45.21.25.59.19,1.18-.28.2.36.08.74-.18.32.35.71.12,1-4.15,2.1-5.8,6.94-6.95,11.25-.07.21-.11.62-.36.55-1-.11-6.44-.74-7.27-.83-.21.05-.16.29-.23.59-1.91,8.72-10.5,10.45-7.05.13.24-.62.86-1.27.5-1.91-.11-.2-.31-.34-.5-.46-.93-.49-1.79-.87-2.78-1.22-5.92-1.93-6.74-.09-4.43-5.46.37-.85.73-1.66,1.1-2.54.14-.34,0-.28-.2-.07-2.68,2.72-3.83,6.32-4.24,10.05.02,1.01,1.49,1.64,2.35,1.66.65.03,1.11-.53,1.13-1.16.09-.89-.36-1.82.12-1.75.3.06.67.26.82.54.34.74-.4,1.49-.4,2.22.07,1.91,3.31,1.24,2.91-.46-.06-.27-.24-.53-.4-.51-.18-.01-.3.28-.44.47-.21.31-.88.53-1.01.05-.12-1.08,1.53-1.57,2.42-1.17.25.1.41.28.51.52.19.46.53,1.4.67,1.85.08.3.04.59,0,.9-.52,3.37.32,6.71,4.06,7.02,0,.03-.36.13-.46.12-3.1.41-3.8-2.71-4.44-5.26-.11-.17-.29-.22-.43-.12-.13.1-.19.29-.2.51-.02.62.1,1.18.25,1.8,2.07,8.42,10.64,3.56,11.67-3.34.03-.17.09-.32.21-.41.16-.13.42-.13.64-.11,1.2.14,2.23.32,3.12.46,3.82.79,5.07-.16,6.22-4.63,1.03-5.55,9.17-13.77,13.46-7.1.17.33.12.62-.1.87-1.7,2.02-4.3,3.26-5.89,5.41ZM351.7,187.6h.02s.04.04.04.07c0,.4-1.64,2.66-1.59,3.86,0,.09,0,.32.13.24.12-.11.49-.64.69-.89.11-.15.15-.19.13-.11-.08.28-.3,1.33-.45,1.7-.12.09-.24.03-.5.04-.36,0-.83,0-1.02-.02-.08,0-.13-.03-.15-.08-.11-1.15,1.13-5,2.69-4.8ZM363.37,166.25c-2.74,1.32-9.75,6.69-12.12,4.76.04.29.27,1.08.42,1.55.09.52.6.24.95.24.34.03.2.42.16.66-.26,1.39.73,2.07,1.21,3.26.09.33-.12.33-.48.22-7.12-2.48-9.97,3.72-3.53,7.35.18.43-.37,1.39-.24,1.62.08.1.21,0,.32-.04,1.25-.65.5.35.2.87-.52.89-.28,2.2-1.01,2.72-.26.19-.54.06-.73-.33-6.41-14.7-22.55,1.29-32.58,3.06-1.03.39-1.99,1.02-2.81,1.82-.13.1-.26.18-.25-.03.3-2.9,16.17-9.97,17.15-10.6l1.8-.76c.23-.07.46-.17.69-.29,2.01-1.05,3.99-3.85,3.82-6.36-.3-4.37-7.28-8.6-12.06-6.44-1.61.73-3.09,2.04-4.2,4.08-.08.21-.3.76-.45.4-4.9-15.7,18.39-26.85,28.84-14.97.23.22.47.62-.01.61-.09,0-.2,0-.31,0-7.84-.28-14.36,7.01-7.76,13.39.75.74,1.87,1.31,2.8,1.39,3.29.37,5.78-3.54,7.21-6.46,1-.6,7.7-1.01,11.3-1.61.97-.12,1.68-.22,1.88-.24.02,0,.03,0,.02,0,0,.01-.09.05-.22.12Z"/>
      </g>
      <g>
        <path class="cls-4" d="M294.8,1.71l-147.89,255.15L2.57,1.5l292.23.21ZM162.94,94.72c-.37-1.65-1.83-2.42-3.27-2.42l-19.16-.06c-2.27,0-4.03-1.44-4.03-3.77.34-30.88-4.93-21.12,30.75-22.78,1.79,0,3.31-1.25,3.54-2.93.36-2.62.66-7.38-3.19-7.39l-26.88-.06c-4.22,0-8.18-.35-12.32.23-1.57.22-2.37,2.33-2.37,3.96.87,1.52-2.04,73.75,1.67,72.65,3.09,1.43,8.97,1.33,8.76-3.29,0,0,.06-22.72.06-22.72,0-2.04,1.6-3.3,3.49-3.33,0,0,19.68-.28,19.68-.28,4.06.1,3.8-4.89,3.26-7.81Z"/>
        <path class="cls-5" d="M162.94,94.72c.42,1.86.34,3.95-.07,5.71-.33,1.45-1.84,2.08-3.19,2.1l-19.68.28c-1.89.03-3.48,1.28-3.49,3.33l-.06,22.72c0,1.06-.46,2.81-1.37,3.24-2.28,1.09-5.08,1.16-7.39.05-1.16-.56-1.68-2.48-1.68-3.91V59.5c.01-1.63.81-3.74,2.39-3.96,4.14-.58,8.1-.24,12.32-.23l26.88.06c3.85,0,3.55,4.77,3.19,7.39-.23,1.68-1.76,2.92-3.54,2.93l-27.13.06c-2,0-3.57,1.4-3.57,3.5l-.05,19.22c0,2.34,1.76,3.77,4.03,3.77l19.16.06c1.44,0,2.9.77,3.27,2.42Z"/>
        <path class="cls-6" d="M441.76,256.63L294.8,1.71l294.58-.1-147.62,255.02ZM451.37,122.48c-23.35,6.94-30.82-26.96-23.64-43.37,3.02-8.07,10-16.19,19.51-14.97s11.7,9.5,14.77,9.1c2.08-.27,3.93-1.48,5.49-2.66,2.93-2.24-.85-6.14-2.26-7.76-32.89-30.07-61.09,19.33-46.85,50.1,5.84,17.8,28.25,28.12,43.58,15.16,2.36-1.93,10.12-8.69,5.78-11.67-8.76-6.62-8.31,3.51-16.38,6.05Z"/>
        <path class="cls-2" d="M451.17,122.37c3.5-1.36,6.04-3.94,8.24-6.72,2.37-2.99,5.36-1.24,8.14.67,4.34,2.98-3.41,9.73-5.78,11.67-5.11,4.18-11.18,6.06-17.81,5.76-12.43-.57-21.29-9.89-25.76-20.92-4.91-12.13-4.72-25.62-.17-37.87,1.81-4.88,4.51-8.95,7.91-12.66,10.72-11.68,28.67-11.5,39.11.43,1.41,1.62,5.19,5.52,2.26,7.76-1.55,1.19-3.41,2.39-5.49,2.66-3.08.4-4.97-7.83-14.77-9.1-9.51-1.23-16.49,6.89-19.51,14.96-3.31,8.85-3.56,18.5-.68,27.5,3.37,10.52,12.25,20.54,24.31,15.87Z"/>
        <path class="cls-3" d="M441.56,257.52s-146.58,254-147.05,255.53l-147.19-255.52h294.24ZM316.6,387.98c7.4-9.04,6.61-22.08-1.36-30.35-1.38-1.43-1.3-3.34-.22-5,9.5-12.98.36-34.06-16.59-34.41-1.63.33-25.69-1.12-26.16.9-.49.67-.87,1.85-.87,2.94v69.91c0,2.35,1.76,3.67,3.89,3.66l25.37-.02c6.33,0,11.82-2.61,15.94-7.63Z"/>
        <path class="cls-2" d="M316.21,387.98c-4.11,5.03-9.61,7.63-15.94,7.63l-25.37.02c-2.13,0-3.89-1.31-3.89-3.66v-69.91c0-1.09.38-2.27.87-2.94.42-.57,1.75-1.02,2.66-1.02l23.5.11c7.71.04,14.74,5.39,17.93,11.6,3.94,7.67,3.14,15.96-1.34,22.81-1.09,1.66-1.16,3.57.22,5,7.96,8.28,8.75,21.31,1.36,30.35ZM284.74,351.64h11.55c6.52.02,11.57-4.9,11.68-11.18s-4.47-11.81-10.98-11.81h-12.4c-1.86-.01-3.11,1.61-3.12,3.36v16.24c0,1.72,1.27,3.4,3.26,3.4ZM300.31,385.24c3.16-.37,5.93-1.47,7.78-3.84,2.77-3.56,3.39-8.3,1.75-12.44s-5.13-6.69-9.56-6.81c-5.08-.15-10.06-.13-15.15,0-1.93.05-3.63,1.31-3.63,3.36l-.02,16.19c0,1.91,1.45,3.48,3.46,3.49l15.38.06Z"/>
        <path class="cls-7" d="M300.31,385.24l-15.38-.06c-2.01,0-3.46-1.58-3.46-3.49l.02-16.19c0-2.06,1.7-3.32,3.63-3.36,5.09-.13,10.08-.14,15.15,0,4.42.13,7.94,2.73,9.56,6.81s1.03,8.88-1.75,12.44c-1.85,2.37-4.62,3.47-7.78,3.84Z"/>
        <path class="cls-7" d="M284.74,351.64c-1.99,0-3.27-1.68-3.27-3.4v-16.24c0-1.75,1.26-3.37,3.12-3.37h12.4c6.51.02,11.09,5.68,10.98,11.82s-5.16,11.2-11.68,11.19h-11.55Z"/>
      </g>
    </g>
  </g>
</svg>