<?xml version="1.0" encoding="UTF-8"?>
<svg id="Layer_2" data-name="Layer 2" xmlns="http://www.w3.org/2000/svg" viewBox="0 0 447.01 418.21">
  <defs>
    <style>
      .cls-1 {
        fill: #f5a71c;
      }

      .cls-1, .cls-2 {
        stroke: #a91e23;
        stroke-miterlimit: 10;
        stroke-width: 3px;
      }

      .cls-2 {
        fill: #252e67;
      }
    </style>
  </defs>
  <g id="Layer_1-2" data-name="Layer 1">
    <g>
      <polygon class="cls-1" points="230.87 154.14 349.27 33.29 389 9.51 241.57 164.99 230.87 154.14"/>
      <polygon class="cls-1" points="205.41 203.03 112.96 299.98 112.96 299.98 111.55 301.48 93.66 299.62 90.47 296.59 194.51 191.14 205.41 203.03"/>
      <g>
        <path class="cls-2" d="M440.77,387.61c-3.94-4.15-9.45-5.9-14.72-5.21l-26.16-31.18-27.27-28.7,2.87-2.73-5.23-5.5-11.36,12.18-12.74,10.73,5.23,5.5,2.87-2.73,27.27,28.7,29.81,27.72c-.95,5.23.52,10.82,4.46,14.97,6.56,6.9,17.46,7.18,24.36.62,6.9-6.56,7.18-17.46.62-24.36ZM438.68,408.9c-.26.24-.52.47-.79.69,4.6-5.11,4.56-12.98-.25-18.04-4.82-5.07-12.67-5.5-18.01-1.17.23-.26.47-.51.73-.76,5.32-5.06,13.74-4.84,18.8.48,5.06,5.32,4.84,13.74-.48,18.8Z"/>
        <path class="cls-2" d="M400.45,279.62c.27-.29.53-.59.79-.9l.97-1.1h0c2.18-2.42,1.99-6.25-.67-8.41-2.03-1.65-5-1.7-7.1-.14-1.96,1.47-2.7,3.85-2.19,6.01.45,1.91-.25,3.92-1.74,5.2-7.39,6.36-25.85,22.3-30.71,26.49-.77.67-1.72,1.1-2.73,1.25l-13.81,2-2.7,13.69c-.2,1-.68,1.93-1.38,2.67-4.43,4.63-21.29,22.26-28.02,29.32-1.36,1.42-3.39,2.02-5.28,1.47-2.13-.62-4.54,0-6.11,1.88-1.67,2.01-1.77,4.98-.22,7.1,2.02,2.77,5.84,3.15,8.36,1.1h0s1.15-.91,1.15-.91c.32-.24.63-.49.94-.74l47.81-40.27,42.65-45.69ZM395.11,270.1c1.78-1.69,4.6-1.62,6.3.16,1.69,1.78,1.62,4.6-.16,6.29-.16.16-.34.3-.52.42,1.33-1.71,1.25-4.18-.29-5.8-1.54-1.62-4-1.83-5.78-.58.14-.17.28-.34.45-.5Z"/>
        <path class="cls-2" d="M111.32,302.05h0s-1.42,1.49-1.42,1.49l-17.89-1.86-3.19-3.03,105.68-107.52-3.49-3.81-109.38,111c3.23,2.79,5.91,5.1,7.37,6.36.38.33.84.54,1.33.61l13.81,2c.06,0,.11.04.16.05.07.01.14.01.21.03.1.03.19.08.29.12.07.03.15.06.22.09.23.12.44.26.62.43.18.17.33.38.46.6.04.07.07.14.1.21.05.09.1.18.14.28.02.07.02.14.04.21.01.06.05.1.06.16l2.7,13.69c.1.49.33.94.68,1.3,1.33,1.39,3.77,3.94,6.72,7.03l103.3-112.72-14.43-15.75-94.09,99.01ZM141.14,357.16c-1.89.55-3.92-.05-5.28-1.47-6.73-7.06-23.58-24.69-28.02-29.32-.71-.74-1.19-1.66-1.38-2.67l-2.7-13.69-13.81-2c-1.01-.15-1.96-.58-2.73-1.25-4.85-4.19-23.32-20.13-30.71-26.49-1.49-1.28-2.19-3.28-1.74-5.2.51-2.15-.23-4.54-2.19-6.01-2.09-1.57-5.07-1.51-7.1.14-2.66,2.16-2.85,5.99-.67,8.41h0s.97,1.1.97,1.1c.26.31.52.61.79.9l42.65,45.69,47.81,40.27c.31.26.62.5.94.74l1.15.92h0c2.52,2.05,6.34,1.66,8.36-1.1,1.54-2.11,1.45-5.08-.22-7.1-1.57-1.88-3.98-2.5-6.11-1.88ZM46.57,271.18c-1.54,1.62-1.62,4.09-.29,5.8-.18-.13-.35-.27-.52-.42-1.78-1.69-1.85-4.51-.16-6.29,1.69-1.78,4.51-1.85,6.29-.16.16.16.31.32.45.5-1.78-1.24-4.24-1.03-5.78.58ZM76.76,314.28l-5.23,5.5,2.87,2.73-27.27,28.7-26.16,31.18c-5.27-.68-10.78,1.07-14.72,5.21-6.56,6.9-6.28,17.81.62,24.36,6.9,6.56,17.81,6.28,24.36-.62,3.94-4.15,5.41-9.74,4.46-14.97l29.81-27.72,27.27-28.69,2.87,2.73,5.23-5.5-12.74-10.73-11.36-12.18ZM9.38,391.54c-4.82,5.07-4.85,12.93-.25,18.04-.27-.22-.54-.45-.79-.69-5.32-5.06-5.54-13.48-.48-18.8,5.06-5.32,13.48-5.54,18.8-.48.26.24.5.5.73.76-5.34-4.33-13.19-3.9-18.01,1.17ZM394.35,1.75l-43.97,25.25c-2.1,1.21-4.03,2.69-5.73,4.42l-117.35,119.09,3.58,3.63,116.76-118.79,39.72-23.78-145.79,153.41,14.29,14.5,113.86-124.25c1.64-1.79,3.03-3.79,4.12-5.95l22.97-45.2c.8-1.57-.94-3.23-2.47-2.35Z"/>
        <path class="cls-2" d="M337.19,324.47c.35-.36.58-.81.68-1.3l2.7-13.69c.01-.06.04-.1.06-.16.02-.07.02-.14.04-.21.04-.1.09-.19.14-.28.03-.07.06-.14.1-.21.13-.22.28-.42.46-.6.18-.17.39-.31.62-.43.07-.04.14-.06.22-.09.1-.04.19-.09.29-.12.07-.02.14-.02.21-.03.06-.01.1-.04.16-.05l13.81-2c.49-.07.96-.28,1.33-.61,1.45-1.26,4.13-3.57,7.37-6.36L102.37,31.41c-1.7-1.73-3.63-3.21-5.73-4.42L52.67,1.75c-1.53-.88-3.27.77-2.47,2.35l22.97,45.2c1.1,2.16,2.49,4.16,4.12,5.95l253.17,276.26c2.95-3.09,5.4-5.64,6.72-7.03ZM59.66,11.58l39.72,23.78,258.8,263.3-3.19,3.03-17.89,1.86-1.42-1.49h0S59.66,11.58,59.66,11.58Z"/>
      </g>
      <polygon class="cls-1" points="58.42 11.58 98.14 35.35 356.95 298.66 353.76 301.68 335.87 303.54 334.45 302.05 334.45 302.05 58.42 11.58"/>
    </g>
  </g>
</svg>