<svg xmlns="http://www.w3.org/2000/svg" viewBox="0 0 936.008230452675 960" width="936.008230452675" height="960" font-family="'Courier New', monospace">
  <defs>
    <style>
      .wall { stroke: #1a1a2e; stroke-width: 4; fill: none; stroke-linecap: square; }
      .wall-thin { stroke: #1a1a2e; stroke-width: 2; fill: none; }
      .dim-line { stroke: #555; stroke-width: 1; fill: none; }
      .dim-tick { stroke: #555; stroke-width: 1.5; }
      .dim-text { font-size: 11px; fill: #333; text-anchor: middle; font-weight: bold; }
      .leader { stroke: #555; stroke-width: 0.75; fill: none; stroke-dasharray: 3,2; marker-end: url(#arrow); }
      .leader-plain { stroke: #555; stroke-width: 0.75; fill: none; stroke-dasharray: 3,2; }
      .leader-tick { stroke: #555; stroke-width: 1.5; }
      .room-label { font-size: 26px; fill: #1a1a2e; text-anchor: middle; font-weight: bold; }
      .sub-label { font-size: 14px; fill: #555; text-anchor: middle; }
      .title { font-size: 22px; fill: #1a1a2e; text-anchor: middle; font-weight: bold; }
      .subtitle { font-size: 13px; fill: #555; text-anchor: middle; }
      .note { font-size: 11px; fill: #666; }
      .door { stroke: #1a1a2e; stroke-width: 1.5; fill: none; }
      .exit-label { font-size: 12px; fill: #c0392b; text-anchor: middle; font-weight: bold; letter-spacing: 1px; }
      .street { font-size: 15px; fill: #666; text-anchor: middle; font-style: italic; }
      .stair-fill { fill: #e0e2ea; }
      .hc-icon { fill: #1a1a2e; font-size: 24px; text-anchor: middle; }
      .compass { font-size: 11px; fill: #1a1a2e; text-anchor: middle; font-weight: bold; }
    </style>
    <marker id="arrow" markerWidth="8" markerHeight="6" refX="7" refY="3" orient="auto"><path d="M0,0 L8,3 L0,6" fill="#555"/></marker>
  </defs>
  <rect width="936.008230452675" height="960" fill="#fefefe"/>
  <text x="468.0041152263375" y="32" class="title">Grand Hall</text>
  <text x="920.008230452675" y="952" class="note" text-anchor="end">Door icons not to scale.</text>
  <rect x="100" y="160" width="736.008230452675" height="700" class="wall"/>
  <line x1="681.8930041152264" y1="160" x2="681.8930041152264" y2="860" class="wall"/>
  <line x1="100" y1="393.33333333333337" x2="100" y2="445.1851851851852" class="door"/>
  <path d="M100,445.1851851851852 A51.851851851851855,51.851851851851855 0 0,0 151.85185185185185,393.33333333333337" class="door"/>
  <line x1="100" y1="626.6666666666667" x2="100" y2="678.5185185185186" class="door"/>
  <path d="M100,678.5185185185186 A51.851851851851855,51.851851851851855 0 0,0 151.85185185185185,626.6666666666667" class="door"/>
  <text x="390.9465020576132" y="510" class="room-label">Grand Hall</text>
  <text x="758.2304526748972" y="510" class="room-label" font-size="16">Stage</text>
  <line x1="100" y1="160" x2="100" y2="117" class="dim-line"/>
  <line x1="681.8930041152264" y1="160" x2="681.8930041152264" y2="117" class="dim-line"/>
  <line x1="100" y1="125" x2="681.8930041152264" y2="125" class="dim-line"/>
  <line x1="100" y1="119" x2="100" y2="131" class="dim-tick"/>
  <line x1="681.8930041152264" y1="119" x2="681.8930041152264" y2="131" class="dim-tick"/>
  <line x1="681.8930041152264" y1="160" x2="681.8930041152264" y2="117" class="dim-line"/>
  <line x1="836.008230452675" y1="160" x2="836.008230452675" y2="117" class="dim-line"/>
  <line x1="681.8930041152264" y1="125" x2="836.008230452675" y2="125" class="dim-line"/>
  <line x1="681.8930041152264" y1="119" x2="681.8930041152264" y2="131" class="dim-tick"/>
  <line x1="836.008230452675" y1="119" x2="836.008230452675" y2="131" class="dim-tick"/>
  <line x1="100" y1="160" x2="57" y2="160" class="dim-line"/>
  <line x1="100" y1="860" x2="57" y2="860" class="dim-line"/>
  <line x1="65" y1="160" x2="65" y2="860" class="dim-line"/>
  <line x1="59" y1="160" x2="71" y2="160" class="dim-tick"/>
  <line x1="59" y1="860" x2="71" y2="860" class="dim-tick"/>
  <line x1="100" y1="860" x2="100" y2="903" class="dim-line"/>
  <line x1="836.008230452675" y1="860" x2="836.008230452675" y2="903" class="dim-line"/>
  <line x1="100" y1="895" x2="836.008230452675" y2="895" class="dim-line"/>
  <line x1="100" y1="889" x2="100" y2="901" class="dim-tick"/>
  <line x1="836.008230452675" y1="889" x2="836.008230452675" y2="901" class="dim-tick"/>
  <rect x="360.9465020576132" y="110" width="60" height="14" fill="#fefefe"/>
  <text x="390.9465020576132" y="120" class="dim-text">33'-8"</text>
  <rect x="728.9506172839507" y="110" width="60" height="14" fill="#fefefe"/>
  <text x="758.9506172839507" y="120" class="dim-text">8'-11"</text>
  <rect x="5" y="504" width="54" height="14" fill="#fefefe"/>
  <text x="57" y="514" class="dim-text" text-anchor="end">40'-6"</text>
  <rect x="438.0041152263375" y="898" width="60" height="14" fill="#fefefe"/>
  <text x="468.0041152263375" y="908" class="dim-text">42'-7"</text>
  <g transform="translate(886.008230452675,45)">
    <line x1="0" y1="-22" x2="0" y2="22" stroke="#1a1a2e" stroke-width="1"/>
    <line x1="-22" y1="0" x2="22" y2="0" stroke="#1a1a2e" stroke-width="1"/>
    <polygon points="0,-26 -4,-18 4,-18" fill="#1a1a2e"/>
    <polygon points="0,26 -4,18 4,18" fill="#1a1a2e"/>
    <polygon points="-26,0 -18,-4 -18,4" fill="#1a1a2e"/>
    <polygon points="26,0 18,-4 18,4" fill="#1a1a2e"/>
    <text x="0" y="-30" class="compass">S</text>
    <text x="0" y="36" class="compass">N</text>
    <text x="-32" y="4" class="compass">E</text>
    <text x="32" y="4" class="compass">W</text>
  </g>
</svg>