<svg xmlns="http://www.w3.org/2000/svg" viewBox="0 0 1083.2446134347274 980" width="1083.2446134347274" height="980" font-family="'Courier New', monospace">
  <defs>
    <style>
      .wall { stroke: #1a1a2e; stroke-width: 4; fill: none; stroke-linecap: square; }
      .wall-thin { stroke: #1a1a2e; stroke-width: 2; fill: none; }
      .dim-line { stroke: #555; stroke-width: 1; fill: none; }
      .dim-tick { stroke: #555; stroke-width: 1.5; }
      .dim-text { font-size: 11px; fill: #333; text-anchor: middle; font-weight: bold; }
      .leader { stroke: #555; stroke-width: 0.75; fill: none; stroke-dasharray: 3,2; marker-end: url(#arrow); }
      .leader-plain { stroke: #555; stroke-width: 0.75; fill: none; stroke-dasharray: 3,2; }
      .leader-tick { stroke: #555; stroke-width: 1.5; }
      .room-label { font-size: 26px; fill: #1a1a2e; text-anchor: middle; font-weight: bold; }
      .sub-label { font-size: 14px; fill: #555; text-anchor: middle; }
      .title { font-size: 22px; fill: #1a1a2e; text-anchor: middle; font-weight: bold; }
      .subtitle { font-size: 13px; fill: #555; text-anchor: middle; }
      .note { font-size: 11px; fill: #666; }
      .door { stroke: #1a1a2e; stroke-width: 1.5; fill: none; }
      .exit-label { font-size: 12px; fill: #c0392b; text-anchor: middle; font-weight: bold; letter-spacing: 1px; }
      .street { font-size: 15px; fill: #666; text-anchor: middle; font-style: italic; }
      .stair-fill { fill: #e0e2ea; }
      .hc-icon { fill: #1a1a2e; font-size: 24px; text-anchor: middle; }
      .compass { font-size: 11px; fill: #1a1a2e; text-anchor: middle; font-weight: bold; }
    </style>
    <marker id="arrow" markerWidth="8" markerHeight="6" refX="7" refY="3" orient="auto"><path d="M0,0 L8,3 L0,6" fill="#555"/></marker>
  </defs>
  <rect width="1083.2446134347274" height="980" fill="#fefefe"/>
  <text x="541.6223067173637" y="32" class="title">Parking Lot</text>
  <text x="1067.2446134347274" y="972" class="note" text-anchor="end">Door icons not to scale.</text>
  <line x1="120" y1="160" x2="332.0405576679341" y2="160" class="wall"/>
  <line x1="638.1242078580481" y1="160" x2="983.2446134347275" y2="160" class="wall"/>
  <line x1="120" y1="160" x2="120" y2="860" class="wall"/>
  <line x1="120" y1="860" x2="983.2446134347275" y2="860" class="wall"/>
  <line x1="983.2446134347275" y1="160" x2="983.2446134347275" y2="860" class="wall"/>
  <line x1="332.0405576679341" y1="160" x2="332.0405576679341" y2="359.6197718631179" class="wall"/>
  <line x1="332.0405576679341" y1="359.6197718631179" x2="638.1242078580481" y2="359.6197718631179" class="wall"/>
  <line x1="638.1242078580481" y1="160" x2="638.1242078580481" y2="359.6197718631179" class="wall"/>
  <path d="M462.0152091254752,359.6197718631179 A23.067173637515843,23.067173637515843 0 0,0 485.0823827629911,382.6869455006337" class="door"/>
  <path d="M508.1495564005069,359.6197718631179 A23.067173637515843,23.067173637515843 0 0,1 485.0823827629911,382.6869455006337" class="door"/>
  <text x="485.0823827629911" y="265.80988593155894" class="room-label" font-size="20">Lodge</text>
  <text x="551.1787072243346" y="621.3434727503168" class="room-label">Parking Lot</text>
  <text x="100" y="509.5564005069708" class="street" transform="rotate(-90 100 509.5564005069708)">Laurence Ave</text>
  <text x="551.1787072243346" y="882" class="street">12th Ave</text>
  <line x1="120" y1="160" x2="120" y2="117" class="dim-line"/>
  <line x1="983.2446134347275" y1="160" x2="983.2446134347275" y2="117" class="dim-line"/>
  <line x1="120" y1="125" x2="983.2446134347275" y2="125" class="dim-line"/>
  <line x1="120" y1="119" x2="120" y2="131" class="dim-tick"/>
  <line x1="983.2446134347275" y1="119" x2="983.2446134347275" y2="131" class="dim-tick"/>
  <line x1="983.2446134347275" y1="160" x2="1026.2446134347274" y2="160" class="dim-line"/>
  <line x1="983.2446134347275" y1="860" x2="1026.2446134347274" y2="860" class="dim-line"/>
  <line x1="1018.2446134347275" y1="160" x2="1018.2446134347275" y2="860" class="dim-line"/>
  <line x1="1012.2446134347275" y1="160" x2="1024.2446134347274" y2="160" class="dim-tick"/>
  <line x1="1012.2446134347275" y1="860" x2="1024.2446134347274" y2="860" class="dim-tick"/>
  <line x1="332.0405576679341" y1="359.6197718631179" x2="332.0405576679341" y2="402.6197718631179" class="dim-line"/>
  <line x1="638.1242078580481" y1="359.6197718631179" x2="638.1242078580481" y2="402.6197718631179" class="dim-line"/>
  <line x1="332.0405576679341" y1="394.6197718631179" x2="638.1242078580481" y2="394.6197718631179" class="dim-line"/>
  <line x1="332.0405576679341" y1="388.6197718631179" x2="332.0405576679341" y2="400.6197718631179" class="dim-tick"/>
  <line x1="638.1242078580481" y1="388.6197718631179" x2="638.1242078580481" y2="400.6197718631179" class="dim-tick"/>
  <line x1="638.1242078580481" y1="160" x2="681.1242078580481" y2="160" class="dim-line"/>
  <line x1="638.1242078580481" y1="359.6197718631179" x2="681.1242078580481" y2="359.6197718631179" class="dim-line"/>
  <line x1="673.1242078580481" y1="160" x2="673.1242078580481" y2="359.6197718631179" class="dim-line"/>
  <line x1="667.1242078580481" y1="160" x2="679.1242078580481" y2="160" class="dim-tick"/>
  <line x1="667.1242078580481" y1="359.6197718631179" x2="679.1242078580481" y2="359.6197718631179" class="dim-tick"/>
  <rect x="521.6223067173637" y="110" width="60" height="14" fill="#fefefe"/>
  <text x="551.6223067173637" y="120" class="dim-text">81'-1"</text>
  <rect x="1024.2446134347274" y="504" width="54" height="14" fill="#fefefe"/>
  <text x="1026.2446134347274" y="514" class="dim-text" text-anchor="start">65'-9"</text>
  <rect x="455.0823827629911" y="397.6197718631179" width="60" height="14" fill="#fefefe"/>
  <text x="485.0823827629911" y="407.6197718631179" class="dim-text">28'-9"</text>
  <rect x="679.1242078580481" y="253.80988593155894" width="54" height="14" fill="#fefefe"/>
  <text x="681.1242078580481" y="263.80988593155894" class="dim-text" text-anchor="start">18'-9"</text>
  <g transform="translate(1033.2446134347274,45)">
    <line x1="0" y1="-22" x2="0" y2="22" stroke="#1a1a2e" stroke-width="1"/>
    <line x1="-22" y1="0" x2="22" y2="0" stroke="#1a1a2e" stroke-width="1"/>
    <polygon points="0,-26 -4,-18 4,-18" fill="#1a1a2e"/>
    <polygon points="0,26 -4,18 4,18" fill="#1a1a2e"/>
    <polygon points="-26,0 -18,-4 -18,4" fill="#1a1a2e"/>
    <polygon points="26,0 18,-4 18,4" fill="#1a1a2e"/>
    <text x="0" y="-30" class="compass">S</text>
    <text x="0" y="36" class="compass">N</text>
    <text x="-32" y="4" class="compass">E</text>
    <text x="32" y="4" class="compass">W</text>
  </g>
</svg>