<svg xmlns="http://www.w3.org/2000/svg" viewBox="0 0 693.5353535353536 980" width="693.5353535353536" height="980" font-family="'Courier New', monospace">
  <defs>
    <style>
      .wall { stroke: #1a1a2e; stroke-width: 4; fill: none; stroke-linecap: square; }
      .wall-thin { stroke: #1a1a2e; stroke-width: 2; fill: none; }
      .dim-line { stroke: #555; stroke-width: 1; fill: none; }
      .dim-tick { stroke: #555; stroke-width: 1.5; }
      .dim-text { font-size: 11px; fill: #333; text-anchor: middle; font-weight: bold; }
      .leader { stroke: #555; stroke-width: 0.75; fill: none; stroke-dasharray: 3,2; marker-end: url(#arrow); }
      .leader-plain { stroke: #555; stroke-width: 0.75; fill: none; stroke-dasharray: 3,2; }
      .leader-tick { stroke: #555; stroke-width: 1.5; }
      .room-label { font-size: 26px; fill: #1a1a2e; text-anchor: middle; font-weight: bold; }
      .sub-label { font-size: 14px; fill: #555; text-anchor: middle; }
      .title { font-size: 22px; fill: #1a1a2e; text-anchor: middle; font-weight: bold; }
      .subtitle { font-size: 13px; fill: #555; text-anchor: middle; }
      .note { font-size: 11px; fill: #666; }
      .door { stroke: #1a1a2e; stroke-width: 1.5; fill: none; }
      .exit-label { font-size: 12px; fill: #c0392b; text-anchor: middle; font-weight: bold; letter-spacing: 1px; }
      .street { font-size: 15px; fill: #666; text-anchor: middle; font-style: italic; }
      .stair-fill { fill: #e0e2ea; }
      .hc-icon { fill: #1a1a2e; font-size: 24px; text-anchor: middle; }
      .compass { font-size: 11px; fill: #1a1a2e; text-anchor: middle; font-weight: bold; }
    </style>
    <marker id="arrow" markerWidth="8" markerHeight="6" refX="7" refY="3" orient="auto"><path d="M0,0 L8,3 L0,6" fill="#555"/></marker>
  </defs>
  <rect width="693.5353535353536" height="980" fill="#fefefe"/>
  <text x="346.7676767676768" y="32" class="title">Upstairs Hallway</text>
  <text x="677.5353535353536" y="972" class="note" text-anchor="end">Door icons not to scale.</text>
  <path d="M378.5858585858586,170 L480.4040404040404,170 L480.4040404040404,592.8282828282829 L378.5858585858586,592.8282828282829 L378.5858585858586,870 L100,870 L100,766.7676767676768 L261.21212121212125,766.7676767676768 L261.21212121212125,486.7676767676768 L378.5858585858586,486.7676767676768 Z" class="wall"/>
  <line x1="396.969696969697" y1="170" x2="396.969696969697" y2="153.03030303030303" class="wall-thin"/>
  <line x1="450.7070707070707" y1="170" x2="450.7070707070707" y2="153.03030303030303" class="wall-thin"/>
  <line x1="404.04040404040404" y1="170" x2="454.9494949494949" y2="170" class="door"/>
  <path d="M454.9494949494949,170 A50.90909090909091,50.90909090909091 0 0,0 404.04040404040404,119.0909090909091" class="door"/>
  <line x1="480.4040404040404" y1="235.05050505050505" x2="480.4040404040404" y2="285.95959595959596" class="door"/>
  <path d="M480.4040404040404,285.95959595959596 A50.90909090909091,50.90909090909091 0 0,0 531.3131313131313,235.05050505050505" class="door"/>
  <line x1="480.4040404040404" y1="308.58585858585855" x2="480.4040404040404" y2="359.4949494949494" class="door"/>
  <path d="M480.4040404040404,359.4949494949494 A50.90909090909091,50.90909090909091 0 0,0 531.3131313131313,308.58585858585855" class="door"/>
  <line x1="480.4040404040404" y1="434.44444444444446" x2="480.4040404040404" y2="485.35353535353534" class="door"/>
  <path d="M480.4040404040404,485.35353535353534 A50.90909090909091,50.90909090909091 0 0,0 531.3131313131313,434.44444444444446" class="door"/>
  <line x1="378.5858585858586" y1="650.8080808080808" x2="378.5858585858586" y2="701.7171717171717" class="door"/>
  <path d="M378.5858585858586,701.7171717171717 A50.90909090909091,50.90909090909091 0 0,0 429.49494949494954,650.8080808080808" class="door"/>
  <line x1="261.21212121212125" y1="534.8484848484849" x2="261.21212121212125" y2="483.939393939394" class="door"/>
  <path d="M261.21212121212125,483.939393939394 A50.90909090909091,50.90909090909091 0 0,0 210.30303030303034,534.8484848484849" class="door"/>
  <line x1="261.21212121212125" y1="655.0505050505051" x2="261.21212121212125" y2="705.959595959596" class="door"/>
  <path d="M261.21212121212125,705.959595959596 A50.90909090909091,50.90909090909091 0 0,1 210.30303030303034,655.0505050505051" class="door"/>
  <line x1="261.21212121212125" y1="766.7676767676768" x2="378.5858585858586" y2="766.7676767676768" class="leader-plain"/>
  <text x="238.58585858585857" y="823.3333333333334" class="room-label" font-size="20">Landing</text>
  <line x1="378.5858585858586" y1="170" x2="378.5858585858586" y2="127" class="dim-line"/>
  <line x1="480.4040404040404" y1="170" x2="480.4040404040404" y2="127" class="dim-line"/>
  <line x1="378.5858585858586" y1="135" x2="480.4040404040404" y2="135" class="dim-line"/>
  <line x1="378.5858585858586" y1="129" x2="378.5858585858586" y2="141" class="dim-tick"/>
  <line x1="480.4040404040404" y1="129" x2="480.4040404040404" y2="141" class="dim-tick"/>
  <line x1="480.4040404040404" y1="170" x2="523.4040404040404" y2="170" class="dim-line"/>
  <line x1="480.4040404040404" y1="592.8282828282829" x2="523.4040404040404" y2="592.8282828282829" class="dim-line"/>
  <line x1="515.4040404040404" y1="170" x2="515.4040404040404" y2="592.8282828282829" class="dim-line"/>
  <line x1="509.4040404040404" y1="170" x2="521.4040404040404" y2="170" class="dim-tick"/>
  <line x1="509.4040404040404" y1="592.8282828282829" x2="521.4040404040404" y2="592.8282828282829" class="dim-tick"/>
  <line x1="378.5858585858586" y1="592.8282828282829" x2="378.5858585858586" y2="635.8282828282829" class="dim-line"/>
  <line x1="480.4040404040404" y1="592.8282828282829" x2="480.4040404040404" y2="635.8282828282829" class="dim-line"/>
  <line x1="378.5858585858586" y1="627.8282828282829" x2="480.4040404040404" y2="627.8282828282829" class="dim-line"/>
  <line x1="378.5858585858586" y1="621.8282828282829" x2="378.5858585858586" y2="633.8282828282829" class="dim-tick"/>
  <line x1="480.4040404040404" y1="621.8282828282829" x2="480.4040404040404" y2="633.8282828282829" class="dim-tick"/>
  <line x1="378.5858585858586" y1="592.8282828282829" x2="443.5858585858586" y2="592.8282828282829" class="dim-line"/>
  <line x1="378.5858585858586" y1="870" x2="443.5858585858586" y2="870" class="dim-line"/>
  <line x1="435.5858585858586" y1="592.8282828282829" x2="435.5858585858586" y2="870" class="dim-line"/>
  <line x1="429.5858585858586" y1="592.8282828282829" x2="441.5858585858586" y2="592.8282828282829" class="dim-tick"/>
  <line x1="429.5858585858586" y1="870" x2="441.5858585858586" y2="870" class="dim-tick"/>
  <line x1="100" y1="870" x2="100" y2="913" class="dim-line"/>
  <line x1="378.5858585858586" y1="870" x2="378.5858585858586" y2="913" class="dim-line"/>
  <line x1="100" y1="905" x2="378.5858585858586" y2="905" class="dim-line"/>
  <line x1="100" y1="899" x2="100" y2="911" class="dim-tick"/>
  <line x1="378.5858585858586" y1="899" x2="378.5858585858586" y2="911" class="dim-tick"/>
  <line x1="100" y1="766.7676767676768" x2="57" y2="766.7676767676768" class="dim-line"/>
  <line x1="100" y1="870" x2="57" y2="870" class="dim-line"/>
  <line x1="65" y1="766.7676767676768" x2="65" y2="870" class="dim-line"/>
  <line x1="59" y1="766.7676767676768" x2="71" y2="766.7676767676768" class="dim-tick"/>
  <line x1="59" y1="870" x2="71" y2="870" class="dim-tick"/>
  <line x1="100" y1="766.7676767676768" x2="100" y2="723.7676767676768" class="dim-line"/>
  <line x1="261.21212121212125" y1="766.7676767676768" x2="261.21212121212125" y2="723.7676767676768" class="dim-line"/>
  <line x1="100" y1="731.7676767676768" x2="261.21212121212125" y2="731.7676767676768" class="dim-line"/>
  <line x1="100" y1="725.7676767676768" x2="100" y2="737.7676767676768" class="dim-tick"/>
  <line x1="261.21212121212125" y1="725.7676767676768" x2="261.21212121212125" y2="737.7676767676768" class="dim-tick"/>
  <line x1="261.21212121212125" y1="486.7676767676768" x2="196.21212121212125" y2="486.7676767676768" class="dim-line"/>
  <line x1="261.21212121212125" y1="766.7676767676768" x2="196.21212121212125" y2="766.7676767676768" class="dim-line"/>
  <line x1="204.21212121212125" y1="486.7676767676768" x2="204.21212121212125" y2="766.7676767676768" class="dim-line"/>
  <line x1="198.21212121212125" y1="486.7676767676768" x2="210.21212121212125" y2="486.7676767676768" class="dim-tick"/>
  <line x1="198.21212121212125" y1="766.7676767676768" x2="210.21212121212125" y2="766.7676767676768" class="dim-tick"/>
  <line x1="261.21212121212125" y1="486.7676767676768" x2="261.21212121212125" y2="443.7676767676768" class="dim-line"/>
  <line x1="378.5858585858586" y1="486.7676767676768" x2="378.5858585858586" y2="443.7676767676768" class="dim-line"/>
  <line x1="261.21212121212125" y1="451.7676767676768" x2="378.5858585858586" y2="451.7676767676768" class="dim-line"/>
  <line x1="261.21212121212125" y1="445.7676767676768" x2="261.21212121212125" y2="457.7676767676768" class="dim-tick"/>
  <line x1="378.5858585858586" y1="445.7676767676768" x2="378.5858585858586" y2="457.7676767676768" class="dim-tick"/>
  <line x1="378.5858585858586" y1="170" x2="335.5858585858586" y2="170" class="dim-line"/>
  <line x1="378.5858585858586" y1="486.7676767676768" x2="335.5858585858586" y2="486.7676767676768" class="dim-line"/>
  <line x1="343.5858585858586" y1="170" x2="343.5858585858586" y2="486.7676767676768" class="dim-line"/>
  <line x1="337.5858585858586" y1="170" x2="349.5858585858586" y2="170" class="dim-tick"/>
  <line x1="337.5858585858586" y1="486.7676767676768" x2="349.5858585858586" y2="486.7676767676768" class="dim-tick"/>
  <rect x="399.49494949494954" y="120" width="60" height="14" fill="#fefefe"/>
  <text x="429.49494949494954" y="130" class="dim-text">6'-0"</text>
  <rect x="521.4040404040404" y="375.41414141414145" width="54" height="14" fill="#fefefe"/>
  <text x="523.4040404040404" y="385.41414141414145" class="dim-text" text-anchor="start">24'-11"</text>
  <rect x="399.49494949494954" y="630.8282828282829" width="60" height="14" fill="#fefefe"/>
  <text x="429.49494949494954" y="640.8282828282829" class="dim-text">6'-0"</text>
  <rect x="441.5858585858586" y="725.4141414141415" width="54" height="14" fill="#fefefe"/>
  <text x="443.5858585858586" y="735.4141414141415" class="dim-text" text-anchor="start">16'-4"</text>
  <rect x="209.2929292929293" y="908" width="60" height="14" fill="#fefefe"/>
  <text x="239.2929292929293" y="918" class="dim-text">16'-5"</text>
  <rect x="5" y="812.3838383838383" width="54" height="14" fill="#fefefe"/>
  <text x="57" y="822.3838383838383" class="dim-text" text-anchor="end">6'-1"</text>
  <rect x="150.60606060606062" y="716.7676767676768" width="60" height="14" fill="#fefefe"/>
  <text x="180.60606060606062" y="726.7676767676768" class="dim-text">9'-6"</text>
  <rect x="144.21212121212125" y="620.7676767676768" width="54" height="14" fill="#fefefe"/>
  <text x="196.21212121212125" y="630.7676767676768" class="dim-text" text-anchor="end">16'-6"</text>
  <rect x="289.89898989898995" y="436.7676767676768" width="60" height="14" fill="#fefefe"/>
  <text x="319.89898989898995" y="446.7676767676768" class="dim-text">6'-11"</text>
  <rect x="283.5858585858586" y="322.3838383838384" width="54" height="14" fill="#fefefe"/>
  <text x="335.5858585858586" y="332.3838383838384" class="dim-text" text-anchor="end">18'-8"</text>
  <g transform="translate(643.5353535353536,45)">
    <line x1="0" y1="-22" x2="0" y2="22" stroke="#1a1a2e" stroke-width="1"/>
    <line x1="-22" y1="0" x2="22" y2="0" stroke="#1a1a2e" stroke-width="1"/>
    <polygon points="0,-26 -4,-18 4,-18" fill="#1a1a2e"/>
    <polygon points="0,26 -4,18 4,18" fill="#1a1a2e"/>
    <polygon points="-26,0 -18,-4 -18,4" fill="#1a1a2e"/>
    <polygon points="26,0 18,-4 18,4" fill="#1a1a2e"/>
    <text x="0" y="-30" class="compass">S</text>
    <text x="0" y="36" class="compass">N</text>
    <text x="-32" y="4" class="compass">E</text>
    <text x="32" y="4" class="compass">W</text>
  </g>
</svg>