<svg xmlns="http://www.w3.org/2000/svg" viewBox="0 0 1100 788.4040995607613" width="1100" height="788.4040995607613" font-family="'Courier New', monospace">
  <defs>
    <style>
      .wall { stroke: #1a1a2e; stroke-width: 4; fill: none; stroke-linecap: square; }
      .wall-thin { stroke: #1a1a2e; stroke-width: 2; fill: none; }
      .dim-line { stroke: #555; stroke-width: 1; fill: none; }
      .dim-tick { stroke: #555; stroke-width: 1.5; }
      .dim-text { font-size: 11px; fill: #333; text-anchor: middle; font-weight: bold; }
      .leader { stroke: #555; stroke-width: 0.75; fill: none; stroke-dasharray: 3,2; marker-end: url(#arrow); }
      .leader-plain { stroke: #555; stroke-width: 0.75; fill: none; stroke-dasharray: 3,2; }
      .leader-tick { stroke: #555; stroke-width: 1.5; }
      .room-label { font-size: 26px; fill: #1a1a2e; text-anchor: middle; font-weight: bold; }
      .sub-label { font-size: 14px; fill: #555; text-anchor: middle; }
      .title { font-size: 22px; fill: #1a1a2e; text-anchor: middle; font-weight: bold; }
      .subtitle { font-size: 13px; fill: #555; text-anchor: middle; }
      .note { font-size: 11px; fill: #666; }
      .door { stroke: #1a1a2e; stroke-width: 1.5; fill: none; }
      .exit-label { font-size: 12px; fill: #c0392b; text-anchor: middle; font-weight: bold; letter-spacing: 1px; }
      .street { font-size: 15px; fill: #666; text-anchor: middle; font-style: italic; }
      .stair-fill { fill: #e0e2ea; }
      .hc-icon { fill: #1a1a2e; font-size: 24px; text-anchor: middle; }
      .compass { font-size: 11px; fill: #1a1a2e; text-anchor: middle; font-weight: bold; }
    </style>
    <marker id="arrow" markerWidth="8" markerHeight="6" refX="7" refY="3" orient="auto"><path d="M0,0 L8,3 L0,6" fill="#555"/></marker>
  </defs>
  <rect width="1100" height="788.4040995607613" fill="#fefefe"/>
  <text x="550" y="32" class="title">Dining Hall</text>
  <text x="1084" y="780.4040995607613" class="note" text-anchor="end">Door icons not to scale.</text>
  <!-- Dining walls -->
  <line x1="100" y1="160" x2="758.8579795021961" y2="160" class="wall"/>
  <line x1="806.2957540263543" y1="160" x2="835.2855051244509" y2="160" class="wall"/>
  <line x1="100" y1="160" x2="100" y2="688.4040995607613" class="wall"/>
  <line x1="100" y1="688.4040995607613" x2="1000" y2="688.4040995607613" class="wall"/>
  <line x1="835.2855051244509" y1="160" x2="835.2855051244509" y2="186.35431918008786" class="wall"/>
  <line x1="835.2855051244509" y1="233.79209370424599" x2="835.2855051244509" y2="518.4187408491947" class="wall"/>
  <line x1="835.2855051244509" y1="518.4187408491947" x2="1000" y2="518.4187408491947" class="wall"/>
  <line x1="1000" y1="518.4187408491947" x2="1000" y2="555.9736456808199" class="wall"/>
  <line x1="1000" y1="650.8491947291361" x2="1000" y2="688.4040995607613" class="wall"/>
  <line x1="758.8579795021961" y1="160" x2="806.2957540263543" y2="160" class="door"/>
  <path d="M806.2957540263543,160 A47.43777452415812,47.43777452415812 0 0,0 758.8579795021961,112.56222547584187" class="door"/>
  <line x1="835.2855051244509" y1="186.35431918008786" x2="835.2855051244509" y2="233.79209370424599" class="door"/>
  <path d="M835.2855051244509,233.79209370424599 A47.43777452415812,47.43777452415812 0 0,0 882.723279648609,186.35431918008786" class="door"/>
  <line x1="1000" y1="603.411420204978" x2="1000" y2="555.9736456808198" class="door"/>
  <path d="M1000,555.9736456808198 A47.43777452415812,47.43777452415812 0 0,1 1047.4377745241582,603.411420204978" class="door"/>
  <line x1="1000" y1="603.411420204978" x2="1000" y2="650.8491947291361" class="door"/>
  <path d="M1000,650.8491947291361 A47.43777452415812,47.43777452415812 0 0,0 1047.4377745241582,603.411420204978" class="door"/>
  <text x="467.64275256222544" y="416.9546120058565" class="room-label">Dining</text>
  <text x="916.9838945827232" y="339.20937042459735" class="sub-label" font-style="italic">Kitchen</text>
  <line x1="100" y1="160" x2="100" y2="117" class="dim-line"/>
  <line x1="835.2855051244509" y1="160" x2="835.2855051244509" y2="117" class="dim-line"/>
  <line x1="100" y1="125" x2="835.2855051244509" y2="125" class="dim-line"/>
  <line x1="100" y1="119" x2="100" y2="131" class="dim-tick"/>
  <line x1="835.2855051244509" y1="119" x2="835.2855051244509" y2="131" class="dim-tick"/>
  <line x1="100" y1="160" x2="57" y2="160" class="dim-line"/>
  <line x1="100" y1="688.4040995607613" x2="57" y2="688.4040995607613" class="dim-line"/>
  <line x1="65" y1="160" x2="65" y2="688.4040995607613" class="dim-line"/>
  <line x1="59" y1="160" x2="71" y2="160" class="dim-tick"/>
  <line x1="59" y1="688.4040995607613" x2="71" y2="688.4040995607613" class="dim-tick"/>
  <line x1="835.2855051244509" y1="160" x2="878.2855051244509" y2="160" class="dim-line"/>
  <line x1="835.2855051244509" y1="518.4187408491947" x2="878.2855051244509" y2="518.4187408491947" class="dim-line"/>
  <line x1="870.2855051244509" y1="160" x2="870.2855051244509" y2="518.4187408491947" class="dim-line"/>
  <line x1="864.2855051244509" y1="160" x2="876.2855051244509" y2="160" class="dim-tick"/>
  <line x1="864.2855051244509" y1="518.4187408491947" x2="876.2855051244509" y2="518.4187408491947" class="dim-tick"/>
  <line x1="835.2855051244509" y1="518.4187408491947" x2="835.2855051244509" y2="475.4187408491947" class="dim-line"/>
  <line x1="1000" y1="518.4187408491947" x2="1000" y2="475.4187408491947" class="dim-line"/>
  <line x1="835.2855051244509" y1="483.4187408491947" x2="1000" y2="483.4187408491947" class="dim-line"/>
  <line x1="835.2855051244509" y1="477.4187408491947" x2="835.2855051244509" y2="489.4187408491947" class="dim-tick"/>
  <line x1="1000" y1="477.4187408491947" x2="1000" y2="489.4187408491947" class="dim-tick"/>
  <line x1="1000" y1="518.4187408491947" x2="1043" y2="518.4187408491947" class="dim-line"/>
  <line x1="1000" y1="688.4040995607613" x2="1043" y2="688.4040995607613" class="dim-line"/>
  <line x1="1035" y1="518.4187408491947" x2="1035" y2="688.4040995607613" class="dim-line"/>
  <line x1="1029" y1="518.4187408491947" x2="1041" y2="518.4187408491947" class="dim-tick"/>
  <line x1="1029" y1="688.4040995607613" x2="1041" y2="688.4040995607613" class="dim-tick"/>
  <line x1="100" y1="688.4040995607613" x2="100" y2="731.4040995607613" class="dim-line"/>
  <line x1="1000" y1="688.4040995607613" x2="1000" y2="731.4040995607613" class="dim-line"/>
  <line x1="100" y1="723.4040995607613" x2="1000" y2="723.4040995607613" class="dim-line"/>
  <line x1="100" y1="717.4040995607613" x2="100" y2="729.4040995607613" class="dim-tick"/>
  <line x1="1000" y1="717.4040995607613" x2="1000" y2="729.4040995607613" class="dim-tick"/>
  <rect x="437.64275256222544" y="110" width="60" height="14" fill="#fefefe"/>
  <text x="467.64275256222544" y="120" class="dim-text">46'-6"</text>
  <rect x="5" y="418.20204978038066" width="54" height="14" fill="#fefefe"/>
  <text x="57" y="428.20204978038066" class="dim-text" text-anchor="end">33'-5"</text>
  <rect x="876.2855051244509" y="333.20937042459735" width="54" height="14" fill="#fefefe"/>
  <text x="878.2855051244509" y="343.20937042459735" class="dim-text" text-anchor="start">22'-8"</text>
  <rect x="887.6427525622255" y="468.4187408491947" width="60" height="14" fill="#fefefe"/>
  <text x="917.6427525622255" y="478.4187408491947" class="dim-text">10'-5"</text>
  <rect x="1041" y="597.411420204978" width="54" height="14" fill="#fefefe"/>
  <text x="1043" y="607.411420204978" class="dim-text" text-anchor="start">10'-9"</text>
  <rect x="520" y="726.4040995607613" width="60" height="14" fill="#fefefe"/>
  <text x="550" y="736.4040995607613" class="dim-text">56'-11"</text>
  <g transform="translate(1050,45)">
    <line x1="0" y1="-22" x2="0" y2="22" stroke="#1a1a2e" stroke-width="1"/>
    <line x1="-22" y1="0" x2="22" y2="0" stroke="#1a1a2e" stroke-width="1"/>
    <polygon points="0,-26 -4,-18 4,-18" fill="#1a1a2e"/>
    <polygon points="0,26 -4,18 4,18" fill="#1a1a2e"/>
    <polygon points="-26,0 -18,-4 -18,4" fill="#1a1a2e"/>
    <polygon points="26,0 18,-4 18,4" fill="#1a1a2e"/>
    <text x="0" y="-30" class="compass">S</text>
    <text x="0" y="36" class="compass">N</text>
    <text x="-32" y="4" class="compass">E</text>
    <text x="32" y="4" class="compass">W</text>
  </g>
</svg>